<?xml version="1.0" encoding="UTF-8" standalone="no"?>
<svg width="706px" height="56px" viewBox="0 0 706 56" version="1.1" xmlns="http://www.w3.org/2000/svg" xmlns:xlink="http://www.w3.org/1999/xlink">
    <!-- Generator: Sketch 46.2 (44496) - http://www.bohemiancoding.com/sketch -->
    <title>molecules/bottom-navigation-white</title>
    <desc>Created with Sketch.</desc>
    <defs>
        <rect id="path-1" x="0" y="0" width="706" height="56" rx="2"></rect>
        <filter x="-1.1%" y="-18.8%" width="102.1%" height="126.8%" filterUnits="objectBoundingBox" id="filter-2">
            <feOffset dx="0" dy="-1" in="SourceAlpha" result="shadowOffsetOuter1"></feOffset>
            <feGaussianBlur stdDeviation="1" in="shadowOffsetOuter1" result="shadowBlurOuter1"></feGaussianBlur>
            <feColorMatrix values="0 0 0 0 0   0 0 0 0 0   0 0 0 0 0  0 0 0 0.11 0" type="matrix" in="shadowBlurOuter1" result="shadowMatrixOuter1"></feColorMatrix>
            <feOffset dx="0" dy="-2" in="SourceAlpha" result="shadowOffsetOuter2"></feOffset>
            <feGaussianBlur stdDeviation="1.5" in="shadowOffsetOuter2" result="shadowBlurOuter2"></feGaussianBlur>
            <feColorMatrix values="0 0 0 0 0   0 0 0 0 0   0 0 0 0 0  0 0 0 0.05 0" type="matrix" in="shadowBlurOuter2" result="shadowMatrixOuter2"></feColorMatrix>
            <feMerge>
                <feMergeNode in="shadowMatrixOuter1"></feMergeNode>
                <feMergeNode in="shadowMatrixOuter2"></feMergeNode>
            </feMerge>
        </filter>
    </defs>
    <g id="Symbols" stroke="none" stroke-width="1" fill="none" fill-rule="evenodd">
        <g id="molecules/bottom-navigation-white">
            <g id="Rectangle-44-Copy-6">
                <use fill="black" fill-opacity="1" filter="url(#filter-2)" xlink:href="#path-1"></use>
                <use fill="#FFFFFF" fill-rule="evenodd" xlink:href="#path-1"></use>
            </g>
            <g id="atoms/bottom-nav-white-item-active" transform="translate(269.000000, 0.000000)">
                <rect id="Rectangle-46" fill="#FFFFFF" fill-rule="evenodd" x="0" y="0" width="168" height="56"></rect>
                <text id="Item-Label" font-family=".AppleSystemUIFont" font-size="14" font-weight="normal" fill="#F57C00">
                    <tspan x="69.7949219" y="47">Item </tspan>
                    <tspan x="66.4760742" y="64">Label</tspan>
                </text>
            </g>
            <g id="atoms/bottom-nav-white-item" transform="translate(437.000000, 0.000000)">
                <rect id="Rectangle-46-Copy" fill="#FFFFFF" fill-rule="evenodd" x="0" y="0" width="168" height="56"></rect>
                <text id="-Item-Label" font-family=".AppleSystemUIFont" font-size="12" font-weight="normal" fill-opacity="0.54" fill="#000000">
                    <tspan x="69.8730469" y="47"> Item </tspan>
                    <tspan x="68.6572266" y="62">Label</tspan>
                </text>
            </g>
            <g id="atoms/bottom-nav-white-item" transform="translate(101.000000, 0.000000)">
                <rect id="Rectangle-46-Copy" fill="#FFFFFF" fill-rule="evenodd" x="0" y="0" width="168" height="56"></rect>
                <text id="-Item-Label" font-family=".AppleSystemUIFont" font-size="12" font-weight="normal" fill-opacity="0.54" fill="#000000">
                    <tspan x="69.8730469" y="47"> Item </tspan>
                    <tspan x="68.6572266" y="62">Label</tspan>
                </text>
            </g>
            <path d="M353,27.4 L351.6,26 C346.4,21.4 343,18.3 343,14.5 C343,11.4 345.4,9 348.5,9 C350.2,9 351.9,9.8 353,11.1 C354.1,9.8 355.8,9 357.5,9 C360.6,9 363,11.4 363,14.5 C363,18.3 359.6,21.4 354.4,26 L353,27.4 L353,27.4 Z" id="Shape" fill="#F16C00"></path>
            <path d="M193.3,12.7 L191.7,11 L190,12.7 L188.3,11 L186.6,12.7 L185,11 L183.3,12.7 L181.7,11 L180,12.7 L178.3,11 L176.7,12.7 L175,11 L175,27 C175,28.1 175.9,29 177,29 L193,29 C194.1,29 195,28.1 195,27 L195,11 L193.3,12.7 L193.3,12.7 Z M185,27 L177,27 L177,20 L185,20 L185,27 L185,27 Z M193,27 L186,27 L186,26 L193,26 L193,27 L193,27 Z M193,25 L186,25 L186,24 L193,24 L193,25 L193,25 Z M193,23 L186,23 L186,22 L193,22 L193,23 L193,23 Z M193,21 L186,21 L186,20 L193,20 L193,21 L193,21 Z M193,19 L177,19 L177,16 L193,16 L193,19 L193,19 Z" id="Shape" fill-opacity="0.54" fill="#000000"></path>
            <path d="M529,12.4 C528.4,12.2 524.7,12 521,12 C517.3,12 513.6,12.2 513,12.4 C511.4,12.9 511,16.4 511,20 C511,23.6 511.4,27.1 513,27.6 C513.6,27.8 517.3,28 521,28 C524.7,28 528.4,27.8 529,27.6 C530.6,27.1 531,23.6 531,20 C531,16.4 530.6,12.9 529,12.4 L529,12.4 Z M519,24.5 L519,15.5 L525,20 L519,24.5 L519,24.5 Z" id="Shape" fill-opacity="0.54" fill="#000000"></path>
        </g>
    </g>
</svg>