<?xml version="1.0" encoding="UTF-8" standalone="no"?>
<svg width="256px" height="168px" viewBox="0 0 256 168" version="1.1" xmlns="http://www.w3.org/2000/svg" xmlns:xlink="http://www.w3.org/1999/xlink">
    <!-- Generator: Sketch 46.2 (44496) - http://www.bohemiancoding.com/sketch -->
    <title>molecules/menu</title>
    <desc>Created with Sketch.</desc>
    <defs>
        <rect id="path-1" x="0" y="0" width="256" height="168" rx="2"></rect>
        <filter x="-8.2%" y="-10.1%" width="116.4%" height="125.0%" filterUnits="objectBoundingBox" id="filter-2">
            <feOffset dx="0" dy="2" in="SourceAlpha" result="shadowOffsetOuter1"></feOffset>
            <feGaussianBlur stdDeviation="5" in="shadowOffsetOuter1" result="shadowBlurOuter1"></feGaussianBlur>
            <feColorMatrix values="0 0 0 0 0   0 0 0 0 0   0 0 0 0 0  0 0 0 0.16 0" type="matrix" in="shadowBlurOuter1" result="shadowMatrixOuter1"></feColorMatrix>
            <feOffset dx="0" dy="2" in="SourceAlpha" result="shadowOffsetOuter2"></feOffset>
            <feGaussianBlur stdDeviation="2.5" in="shadowOffsetOuter2" result="shadowBlurOuter2"></feGaussianBlur>
            <feColorMatrix values="0 0 0 0 0   0 0 0 0 0   0 0 0 0 0  0 0 0 0.26 0" type="matrix" in="shadowBlurOuter2" result="shadowMatrixOuter2"></feColorMatrix>
            <feMerge>
                <feMergeNode in="shadowMatrixOuter1"></feMergeNode>
                <feMergeNode in="shadowMatrixOuter2"></feMergeNode>
            </feMerge>
        </filter>
    </defs>
    <g id="Symbols" stroke="none" stroke-width="1" fill="none" fill-rule="evenodd">
        <g id="molecules/menu">
            <g id="Rectangle-117">
                <use fill="black" fill-opacity="1" filter="url(#filter-2)" xlink:href="#path-1"></use>
                <use fill="#FFFFFF" fill-rule="evenodd" xlink:href="#path-1"></use>
            </g>
            <rect id="Rectangle-117" fill-opacity="0.2" fill="#9E9E9E" x="0" y="0" width="256" height="56.59375" rx="2"></rect>
            <rect id="Rectangle-117-Copy" fill-opacity="0.12" fill="#000000" x="0" y="111" width="256" height="1" rx="0.5"></rect>
            <g id="menu-button" transform="translate(25.000000, 132.000000)">
                <text id="Completed" font-family=".AppleSystemUIFont" font-size="15" font-weight="normal" fill="#4D4D4E">
                    <tspan x="51" y="15">Completed</tspan>
                </text>
                <g id="done" transform="translate(0.000000, 3.000000)" fill-opacity="0.54" fill="#000000">
                    <polygon id="Shape" points="6 11.2 1.8 7 0.4 8.4 6 14 18 2 16.6 0.6"></polygon>
                </g>
            </g>
            <g id="menu-button" transform="translate(25.000000, 72.000000)">
                <text id="Archive" font-family=".AppleSystemUIFont" font-size="15" font-weight="normal" fill="#4D4D4E">
                    <tspan x="51" y="15">Archive</tspan>
                </text>
                <g id="archive" transform="translate(0.000000, 1.000000)" fill-opacity="0.54" fill="#000000">
                    <path d="M17.5,2.2 L16.1,0.5 C15.9,0.2 15.5,0 15,0 L3,0 C2.5,0 2.1,0.2 1.8,0.5 L0.5,2.2 C0.2,2.6 0,3 0,3.5 L0,16 C0,17.1 0.9,18 2,18 L16,18 C17.1,18 18,17.1 18,16 L18,3.5 C18,3 17.8,2.6 17.5,2.2 L17.5,2.2 Z M9,14.5 L3.5,9 L7,9 L7,7 L11,7 L11,9 L14.5,9 L9,14.5 L9,14.5 Z M2.1,2 L2.9,1 L14.9,1 L15.8,2 L2.1,2 L2.1,2 Z" id="Shape"></path>
                </g>
            </g>
            <g id="menu-button" transform="translate(24.000000, 19.000000)">
                <text id="Recent-Articles" font-family=".AppleSystemUIFont" font-size="15" font-weight="normal" fill="#4D4D4E">
                    <tspan x="52" y="15">Recent Articles</tspan>
                </text>
                <g id="access-time" fill-opacity="0.54" fill="#000000">
                    <path d="M10,0 C4.5,0 0,4.5 0,10 C0,15.5 4.5,20 10,20 C15.5,20 20,15.5 20,10 C20,4.5 15.5,0 10,0 L10,0 Z M10,18 C5.6,18 2,14.4 2,10 C2,5.6 5.6,2 10,2 C14.4,2 18,5.6 18,10 C18,14.4 14.4,18 10,18 L10,18 Z" id="Shape"></path>
                    <polygon id="Shape" points="10.5 5 9 5 9 11 14.2 14.2 15 12.9 10.5 10.2"></polygon>
                </g>
            </g>
        </g>
    </g>
</svg>