<?xml version="1.0" encoding="UTF-8" standalone="no"?>
<svg width="672px" height="38px" viewBox="0 0 672 38" version="1.1" xmlns="http://www.w3.org/2000/svg" xmlns:xlink="http://www.w3.org/1999/xlink">
    <!-- Generator: Sketch 46.2 (44496) - http://www.bohemiancoding.com/sketch -->
    <title>molecules/slider-input</title>
    <desc>Created with Sketch.</desc>
    <defs>
        <path d="M236.847656,20 L236.847656,32 L239.847656,29 L242.347656,34 L243.347656,34 C243.347656,34 243.993316,33.3495845 243.847656,33 C243.159983,31.3495845 241.347656,28 241.347656,28 L244.847656,28 L236.847656,20 Z" id="path-1"></path>
        <filter x="-75.0%" y="-35.7%" width="250.0%" height="185.7%" filterUnits="objectBoundingBox" id="filter-2">
            <feMorphology radius="1" operator="dilate" in="SourceAlpha" result="shadowSpreadOuter1"></feMorphology>
            <feOffset dx="0" dy="1" in="shadowSpreadOuter1" result="shadowOffsetOuter1"></feOffset>
            <feGaussianBlur stdDeviation="1.5" in="shadowOffsetOuter1" result="shadowBlurOuter1"></feGaussianBlur>
            <feComposite in="shadowBlurOuter1" in2="SourceAlpha" operator="out" result="shadowBlurOuter1"></feComposite>
            <feColorMatrix values="0 0 0 0 0   0 0 0 0 0   0 0 0 0 0  0 0 0 1 0" type="matrix" in="shadowBlurOuter1"></feColorMatrix>
        </filter>
    </defs>
    <g id="Symbols" stroke="none" stroke-width="1" fill="none" fill-rule="evenodd">
        <g id="molecules/slider-input">
            <g id="input" transform="translate(614.000000, 9.000000)">
                <text id="Value" font-family=".AppleSystemUIFont" font-size="16" font-weight="normal" letter-spacing="-0.100000001" fill="#000000">
                    <tspan x="6.76328125" y="15">183</tspan>
                </text>
                <path d="M39.5,27.5 L0.486843109,27.5" id="Line" stroke="#757575" stroke-linecap="square"></path>
            </g>
            <text id="Input-Label" font-family=".AppleSystemUIFont" font-size="16" font-weight="normal" letter-spacing="-0.100000001" fill="#000000">
                <tspan x="47.6390625" y="23">Input </tspan>
                <tspan x="45.1484375" y="41">Label</tspan>
            </text>
            <g id="atoms/slider-active" transform="translate(99.000000, 1.257812)">
                <rect id="sliderContainer" fill="#C8C8C8" fill-rule="evenodd" x="0" y="16" width="500" height="2"></rect>
                <rect id="activeProgress" fill="#039BE5" fill-rule="evenodd" x="0" y="16" width="233.347656" height="2"></rect>
                <path d="M233.347656,31 C241.90807,31 248.847656,24.0604136 248.847656,15.5 C248.847656,6.93958638 241.90807,0 233.347656,0 C224.787243,0 217.847656,6.93958638 217.847656,15.5 C217.847656,24.0604136 224.787243,31 233.347656,31 Z" id="sliderKnob" fill="#039BE5" fill-rule="evenodd"></path>
                <g id="default">
                    <use fill="black" fill-opacity="1" filter="url(#filter-2)" xlink:href="#path-1"></use>
                    <use fill="#000000" fill-rule="evenodd" xlink:href="#path-1"></use>
                    <path stroke="#FFFFFF" stroke-width="1" d="M242.181517,28.5 C242.194464,28.5244526 242.207621,28.5493185 242.220981,28.5745859 C242.545777,29.1888684 242.870605,29.8144029 243.174031,30.4144041 C243.252284,30.5693945 243.252284,30.5693945 243.330284,30.7249777 C243.756745,31.5772237 244.091805,32.2859561 244.309195,32.8076923 C244.418096,33.0690556 244.374908,33.3338139 244.245556,33.6062776 C244.184823,33.7342044 244.105016,33.861622 244.010424,33.9895812 C243.896051,34.1443006 243.783294,34.2708698 243.702504,34.3522538 L243.555838,34.5 L242.038639,34.5 L239.710681,29.8440825 L236.347656,33.2071068 L236.347656,18.7928932 L246.054763,28.5 L242.181517,28.5 Z"></path>
                </g>
            </g>
        </g>
    </g>
</svg>