<?xml version="1.0" encoding="UTF-8" standalone="no"?>
<svg width="766px" height="55px" viewBox="0 0 766 55" version="1.1" xmlns="http://www.w3.org/2000/svg" xmlns:xlink="http://www.w3.org/1999/xlink">
    <!-- Generator: Sketch 46.2 (44496) - http://www.bohemiancoding.com/sketch -->
    <title>molecules/tab-group-pressed-accent</title>
    <desc>Created with Sketch.</desc>
    <defs>
        <path d="M491,40.5 L491,52.5 L494,49.5 L496.5,54.5 L497.5,54.5 C497.5,54.5 498.14566,53.8495845 498,53.5 C497.312327,51.8495845 495.5,48.5 495.5,48.5 L499,48.5 L491,40.5 Z" id="path-1"></path>
        <filter x="-75.0%" y="-35.7%" width="250.0%" height="185.7%" filterUnits="objectBoundingBox" id="filter-2">
            <feMorphology radius="1" operator="dilate" in="SourceAlpha" result="shadowSpreadOuter1"></feMorphology>
            <feOffset dx="0" dy="1" in="shadowSpreadOuter1" result="shadowOffsetOuter1"></feOffset>
            <feGaussianBlur stdDeviation="1.5" in="shadowOffsetOuter1" result="shadowBlurOuter1"></feGaussianBlur>
            <feComposite in="shadowBlurOuter1" in2="SourceAlpha" operator="out" result="shadowBlurOuter1"></feComposite>
            <feColorMatrix values="0 0 0 0 0   0 0 0 0 0   0 0 0 0 0  0 0 0 1 0" type="matrix" in="shadowBlurOuter1"></feColorMatrix>
        </filter>
    </defs>
    <g id="Symbols" stroke="none" stroke-width="1" fill="none" fill-rule="evenodd">
        <g id="molecules/tab-group-pressed-accent">
            <g id="atoms/tab-active-accent" transform="translate(255.000000, 0.000000)">
                <rect id="Rectangle-69" fill="#039BE5" fill-rule="evenodd" x="0" y="0" width="256" height="48"></rect>
                <rect id="Rectangle-69" fill="#FFFFFF" fill-rule="evenodd" x="0" y="46" width="256" height="2"></rect>
                <text id="TAB-LABEL" font-family=".AppleSystemUIFont" font-size="14" font-weight="normal" fill="#FFFFFF">
                    <tspan x="114.47168" y="30">TAB </tspan>
                    <tspan x="106.938477" y="47">LABEL</tspan>
                </text>
            </g>
            <path d="M304.001097,48.0000059 C304.000366,47.8334253 304,47.6667583 304,47.5000059 C304,30.5114967 307.799369,14.4103776 314.594755,1.24344979e-14 L510,5.90417019e-06 L510,48.0000059 L304.001019,48.0000059 Z" id="ripple" fill-opacity="0.4" fill="#FFFFFF"></path>
            <g id="default">
                <use fill="black" fill-opacity="1" filter="url(#filter-2)" xlink:href="#path-1"></use>
                <use fill="#000000" fill-rule="evenodd" xlink:href="#path-1"></use>
                <path stroke="#FFFFFF" stroke-width="1" d="M496.333861,49 C496.346808,49.0244526 496.359965,49.0493185 496.373325,49.0745859 C496.69812,49.6888684 497.022949,50.3144029 497.326375,50.9144041 C497.404627,51.0693945 497.404627,51.0693945 497.482628,51.2249777 C497.909089,52.0772237 498.244148,52.7859561 498.461538,53.3076923 C498.57044,53.5690556 498.527252,53.8338139 498.3979,54.1062776 C498.337167,54.2342044 498.25736,54.361622 498.162768,54.4895812 C498.048394,54.6443006 497.935637,54.7708698 497.854848,54.8522538 L497.708182,55 L496.190983,55 L493.863024,50.3440825 L490.5,53.7071068 L490.5,39.2928932 L500.207107,49 L496.333861,49 Z"></path>
            </g>
            <g id="atoms/tab-accent">
                <rect id="Rectangle-69" fill="#039BE5" fill-rule="evenodd" x="0" y="0" width="256" height="48"></rect>
                <text id="TAB-LABEL" opacity="0.7" font-family=".AppleSystemUIFont" font-size="14" font-weight="normal" fill="#FFFFFF">
                    <tspan x="114.47168" y="30">TAB </tspan>
                    <tspan x="106.938477" y="47">LABEL</tspan>
                </text>
            </g>
            <g id="atoms/tab-accent" transform="translate(510.000000, 0.000000)">
                <rect id="Rectangle-69" fill="#039BE5" fill-rule="evenodd" x="0" y="0" width="256" height="48"></rect>
                <text id="TAB-LABEL" opacity="0.7" font-family=".AppleSystemUIFont" font-size="14" font-weight="normal" fill="#FFFFFF">
                    <tspan x="114.47168" y="30">TAB </tspan>
                    <tspan x="106.938477" y="47">LABEL</tspan>
                </text>
            </g>
        </g>
    </g>
</svg>