<?xml version="1.0" encoding="UTF-8" standalone="no"?>
<svg width="1024px" height="64px" viewBox="0 0 1024 64" version="1.1" xmlns="http://www.w3.org/2000/svg" xmlns:xlink="http://www.w3.org/1999/xlink">
    <!-- Generator: Sketch 46.2 (44496) - http://www.bohemiancoding.com/sketch -->
    <title>molecules/toolbar-accent-split</title>
    <desc>Created with Sketch.</desc>
    <defs></defs>
    <g id="Symbols" stroke="none" stroke-width="1" fill="none" fill-rule="evenodd">
        <g id="molecules/toolbar-accent-split">
            <g id="molecules/toolbar-accent">
                <rect id="Rectangle-1" fill="#039BE5" fill-rule="evenodd" x="0" y="0.461538462" width="1024" height="63.0153846"></rect>
                <path d="M989,39.5076923 C987.895431,39.5076923 987,38.6122618 987,37.5076923 C987,36.4031228 987.895431,35.5076923 989,35.5076923 C990.104569,35.5076923 991,36.4031228 991,37.5076923 C991,38.6122618 990.104569,39.5076923 989,39.5076923 Z M989,33.5076923 C987.895431,33.5076923 987,32.6122618 987,31.5076923 C987,30.4031228 987.895431,29.5076923 989,29.5076923 C990.104569,29.5076923 991,30.4031228 991,31.5076923 C991,32.6122618 990.104569,33.5076923 989,33.5076923 Z M989,27.5076923 C987.895431,27.5076923 987,26.6122618 987,25.5076923 C987,24.4031228 987.895431,23.5076923 989,23.5076923 C990.104569,23.5076923 991,24.4031228 991,25.5076923 C991,26.6122618 990.104569,27.5076923 989,27.5076923 Z" id="more-vert" fill="#FFFFFF" fill-rule="evenodd"></path>
                <path d="M936.36248,34.3423323 L936.1076,34.5972123 L935.15504,33.6446523 C936.10688,32.4688923 936.68,30.9748923 936.68,29.3476923 C936.68,25.5763323 933.61136,22.5076923 929.84,22.5076923 C926.06864,22.5076923 923,25.5763323 923,29.3476923 C923,33.1190523 926.06864,36.1876923 929.84,36.1876923 C931.4672,36.1876923 932.9612,35.6145723 934.13696,34.6627323 L935.08952,35.6152923 L934.83464,35.8701723 L939.15608,40.1916123 L940.6832,38.6644923 L936.36248,34.3423323 L936.36248,34.3423323 Z M929.84072,34.0276923 C927.26024,34.0276923 925.16072,31.9281723 925.16072,29.3476923 C925.16072,26.7672123 927.26024,24.6676923 929.84072,24.6676923 C932.4212,24.6676923 934.52072,26.7672123 934.52072,29.3476923 C934.52072,31.9281723 932.42048,34.0276923 929.84072,34.0276923 L929.84072,34.0276923 Z" id="Shape" fill="#FFFFFF" fill-rule="evenodd"></path>
                <text id="Title" font-family=".SFNSDisplay-Regular, .SF NS Display" font-size="20" font-weight="normal" fill="#FFFFFF">
                    <tspan x="166" y="38.5076923">Toolbar</tspan>
                </text>
                <path d="M21,30.5076923 L39,30.5076923 L39,32.5076923 L21,32.5076923 L21,30.5076923 Z M21,35.5076923 L39,35.5076923 L39,37.5076923 L21,37.5076923 L21,35.5076923 Z M21,25.5076923 L39,25.5076923 L39,27.5076923 L21,27.5076923 L21,25.5076923 Z" id="menu" fill="#FFFFFF" fill-rule="evenodd"></path>
                <g id="atoms/logo" transform="translate(56.000000, 20.000000)" fill-rule="evenodd" fill="#FFFFFF">
                    <path d="M8.55704698,0 L17.114094,5 L16.529744,15 L8.55704698,20 L0.531227245,15 L0,5 L8.55704698,0 Z M8.55704698,0.998302254 L16.259842,5.49915112 L15.7286148,14.5008489 L8.55704698,19.0016977 L1.38547917,14.5008489 L0.85425193,5.49915112 L8.55704698,0.998302254 Z" id="Combined-Shape"></path>
                    <path d="M14.7596947,10.2355932 C14.5996355,10.1505763 14.4126864,10.1471413 14.2479322,10.2059661 L13.7553769,9.94447458 L13.7553769,7.86928814 L14.2402494,7.57559322 C14.3000048,7.59405651 14.3618944,7.60607908 14.425918,7.60607908 C14.5420143,7.60607908 14.6564032,7.57430508 14.7558533,7.51376271 C14.9022541,7.42488136 15.0055456,7.28404519 15.0469475,7.11744634 C15.0879227,6.95041807 15.0623132,6.77737854 14.9739606,6.63010169 C14.7989626,6.33769492 14.3866502,6.23378532 14.0951291,6.41068925 C13.9337895,6.50858756 13.8330589,6.66745763 13.7997666,6.84049719 L13.3285524,7.1260339 L11.6212548,6.09595481 L11.6212548,5.52745763 C11.7514363,5.40937854 11.834667,5.24063278 11.834667,5.05084746 C11.834667,4.69575142 11.5474142,4.40677966 11.1944304,4.40677966 C10.8414466,4.40677966 10.5541938,4.69575142 10.5541938,5.05084746 C10.5541938,5.24063278 10.6374246,5.40937854 10.767606,5.52745763 L10.767606,6.09595481 L9.06030836,7.12646329 L7.35301074,6.09595481 L7.35301074,5.52745763 C7.48319218,5.40937854 7.56642295,5.24063278 7.56642295,5.05084746 C7.56642295,4.69575142 7.2791701,4.40677966 6.92618634,4.40677966 C6.57320255,4.40677966 6.2859497,4.69575142 6.2859497,5.05084746 C6.2859497,5.24063278 6.36918047,5.40937854 6.49936191,5.52745763 L6.49936191,6.09595481 L4.79249111,7.1260339 L4.32127695,6.84049719 C4.28798466,6.66745763 4.18725409,6.5081582 4.02591446,6.41068925 C3.73439339,6.23335593 3.32250784,6.33769492 3.14708301,6.62967231 C3.05830353,6.77694915 3.03269407,6.95041807 3.07366921,7.11744634 C3.11507118,7.28404519 3.21836269,7.42488136 3.36476346,7.51376271 C3.46464037,7.57430508 3.57860248,7.60607908 3.69469872,7.60607908 C3.75872238,7.60607908 3.82061191,7.59405651 3.88036735,7.57559322 L4.36523987,7.86971753 L4.36523987,9.94447458 L3.87311134,10.2063955 C3.70835711,10.1475706 3.52140802,10.1505763 3.36092205,10.2360226 C3.0489134,10.4021921 2.92940256,10.7924972 3.09415679,11.1063729 C3.20555796,11.3180565 3.42238477,11.4494463 3.66055279,11.4494463 C3.76427111,11.4494463 3.86713577,11.4236836 3.95932987,11.3747345 C4.12579138,11.2862825 4.23548527,11.1329943 4.27816768,10.9625311 L4.77883272,10.6963164 L6.49936191,11.7345537 L6.49936191,13.8088814 L6.00723339,14.0708023 C5.84205232,14.0119774 5.65510322,14.0154124 5.49504409,14.1004294 C5.18303544,14.2665989 5.0635246,14.656904 5.22827883,14.9707797 C5.33968,15.1824633 5.55650681,15.3138531 5.79467483,15.3138531 C5.89839315,15.3138531 6.00125782,15.2880904 6.09345191,15.2391413 C6.25991342,15.1506893 6.36960728,14.9974011 6.41228973,14.8269379 L6.91295477,14.5607232 L8.63348396,15.5989604 L8.63348396,16.1674576 C8.50330252,16.2855367 8.42007174,16.4542825 8.42007174,16.6440678 C8.42007174,16.9991638 8.7073246,17.2881356 9.06030836,17.2881356 C9.41329215,17.2881356 9.700545,16.9991638 9.700545,16.6440678 C9.700545,16.4542825 9.61731423,16.2855367 9.48713279,16.1674576 L9.48713279,15.5989604 L11.207662,14.5607232 L11.708327,14.8269379 C11.7514363,14.9978305 11.8607033,15.1506893 12.0271648,15.2395706 C12.1189321,15.2880904 12.2222236,15.3138531 12.3259419,15.3138531 C12.5641099,15.3138531 12.7809367,15.1824633 12.8923379,14.9707797 C13.057519,14.656904 12.9375813,14.2661695 12.6255727,14.1004294 C12.4655135,14.0149831 12.2785644,14.0119774 12.1138102,14.0708023 L11.6212548,13.8088814 L11.6212548,11.7345537 L13.341784,10.6963164 L13.8424491,10.9625311 C13.8855583,11.1334237 13.9948254,11.2862825 14.1612869,11.3751638 C14.2530541,11.4236836 14.3563456,11.4494463 14.460064,11.4494463 C14.698232,11.4494463 14.9150588,11.3180565 15.02646,11.1063729 C15.191641,10.7924972 15.0717034,10.4017627 14.7596947,10.2355932 L14.7596947,10.2355932 Z M10.767606,13.824339 L9.06030836,14.8548475 L7.35301074,13.824339 L7.35301074,11.7345537 L9.06030836,10.7040452 L10.767606,11.7345537 L10.767606,13.824339 L10.767606,13.824339 Z M12.9017281,9.9599322 L11.1944304,10.9904407 L9.48713279,9.9599322 L9.48713279,7.87014688 L11.1944304,6.83963841 L12.9017281,7.87014688 L12.9017281,9.9599322 L12.9017281,9.9599322 Z" id="Shape"></path>
                    <path d="M35.1850007,13.6696548 C35.0282399,15.3467754 34.4154581,16.6549818 33.3466359,17.5943133 C32.2778139,18.5336448 30.856302,19.0033035 29.0820575,19.0033035 C27.842224,19.0033035 26.7502606,18.7063928 25.8061345,18.1125626 C24.8620084,17.5187323 24.133439,16.6747862 23.6204044,15.580699 C23.1073699,14.4866117 22.8401684,13.2161939 22.8187919,11.7694075 L22.8187919,10.3010346 C22.8187919,8.81825844 23.0788681,7.51185149 23.5990281,6.38177454 C24.1191881,5.25169756 24.865571,4.38075959 25.838199,3.76893447 C26.810827,3.15710939 27.9348546,2.85120142 29.2103155,2.85120142 C30.9275562,2.85120142 32.3098785,3.32265956 33.3573241,4.26559003 C34.4047698,5.20852047 35.0139889,6.54011986 35.1850007,8.2604281 L32.4915826,8.2604281 C32.363324,7.13035115 32.0373382,6.31519641 31.5136154,5.81493939 C30.9898926,5.31468241 30.2221337,5.06455766 29.2103155,5.06455766 C28.0346113,5.06455766 27.1314703,5.49822719 26.5008653,6.36557925 C25.8702603,7.23293129 25.5478372,8.50514854 25.5335862,10.1822692 L25.5335862,11.575064 C25.5335862,13.2737784 25.8346333,14.5693886 26.4367363,15.4619335 C27.0388394,16.3544784 27.9206043,16.8007441 29.0820575,16.8007441 C30.143754,16.8007441 30.9417958,16.5596167 31.4762068,16.0773545 C32.0106178,15.5950924 32.349073,14.7925338 32.4915826,13.6696548 L35.1850007,13.6696548 Z M35.8250631,12.8382966 C35.8250631,11.6938238 36.0495124,10.662734 36.4984174,9.74499631 C36.9473228,8.82725864 37.5779185,8.12187088 38.3902232,7.62881183 C39.2025279,7.13575278 40.1359517,6.88922695 41.1905228,6.88922695 C42.7510027,6.88922695 44.0175379,7.39667427 44.9901658,8.41158414 C45.962794,9.42649403 46.4882903,10.7724891 46.5666705,12.4496097 L46.5773587,13.0650307 C46.5773587,14.2167015 46.3582534,15.2459918 45.9200362,16.1529325 C45.4818195,17.0598733 44.8547866,17.7616622 44.0389191,18.2583202 C43.2230517,18.7549782 42.2807211,19.0033035 41.211899,19.0033035 C39.5801641,19.0033035 38.2744396,18.4544686 37.2946859,17.3567824 C36.3149326,16.2590962 35.8250631,14.7961363 35.8250631,12.9678589 L35.8250631,12.8382966 Z M38.4222876,13.0650307 C38.4222876,14.2670871 38.6681131,15.2082039 39.1597711,15.8884095 C39.6514292,16.5686151 40.3354651,16.9087127 41.211899,16.9087127 C42.0883329,16.9087127 42.7705876,16.5632167 43.2586829,15.8722142 C43.7467782,15.1812117 43.9908221,14.169916 43.9908221,12.8382966 C43.9908221,11.6578341 43.739653,10.7221156 43.2373067,10.0311131 C42.7349601,9.34011064 42.0527057,8.99461458 41.1905228,8.99461458 C40.3425906,8.99461458 39.669243,9.33471224 39.1704591,10.0149178 C38.6716755,10.6951234 38.4222876,11.7118175 38.4222876,13.0650307 L38.4222876,13.0650307 Z M51.6530101,15.4619335 L54.1006003,7.10516414 L56.7833302,7.10516414 L52.7752678,18.7873663 L50.5200644,18.7873663 L46.4799376,7.10516414 L49.1733557,7.10516414 L51.6530101,15.4619335 Z M64.1141849,18.7873663 C64.0001772,18.5642301 63.9004218,18.2007395 63.8149161,17.6968835 C62.9883604,18.5678345 61.9765577,19.0033035 60.7794768,19.0033035 C59.6180238,19.0033035 58.670349,18.6686042 57.9364245,17.9991956 C57.2025003,17.3297869 56.8355436,16.5020359 56.8355436,15.5159178 C56.8355436,14.2706738 57.2933487,13.3151613 58.2089728,12.6493516 C59.124597,11.9835419 60.4338842,11.6506421 62.1368742,11.6506421 L63.7294107,11.6506421 L63.7294107,10.884065 C63.7294107,10.2794379 63.5619648,9.79538349 63.2270671,9.43188739 C62.8921695,9.06839129 62.3827054,8.88664597 61.6986594,8.88664597 C61.1072443,8.88664597 60.6227191,9.03600105 60.2450685,9.33471566 C59.8674181,9.63343027 59.6785956,10.013116 59.6785956,10.4737843 L57.0813715,10.4737843 C57.0813715,9.83316746 57.2915698,9.23394776 57.7119732,8.67610722 C58.1323765,8.11826668 58.7041876,7.68099824 59.4274238,7.36428875 C60.1506601,7.04757929 60.9576087,6.88922695 61.8482936,6.88922695 C63.2021349,6.88922695 64.2816289,7.23292353 65.0868081,7.92032702 C65.8919872,8.60773054 66.3052587,9.57403983 66.3266352,10.8192839 L66.3266352,16.0881514 C66.3266352,17.139051 66.4727054,17.9775987 66.76485,18.6038197 L66.76485,18.7873663 L64.1141849,18.7873663 Z M61.2604443,16.8979159 C61.7734789,16.8979159 62.2562232,16.7719538 62.7086909,16.5200258 C63.1611591,16.2680978 63.5013956,15.9297996 63.7294107,15.5051209 L63.7294107,13.3025616 L62.3292611,13.3025616 C61.3673211,13.3025616 60.644096,13.4717107 60.1595634,13.810014 C59.6750305,14.1483173 59.4327681,14.6269733 59.4327681,15.2459963 C59.4327681,15.7498523 59.5984329,16.1511316 59.9297678,16.4498462 C60.2611023,16.7485608 60.704657,16.8979159 61.2604443,16.8979159 L61.2604443,16.8979159 Z M70.7716852,18.7873663 L68.1744607,18.7873663 L68.1744607,2.20338983 L70.7716852,2.20338983 L70.7716852,18.7873663 Z M77.6536369,19.0033035 C76.007651,19.0033035 74.6734248,18.4796611 73.6509185,17.4323604 C72.6284121,16.3850598 72.1171668,14.9904794 72.1171668,13.2485773 L72.1171668,12.9246715 C72.1171668,11.7586048 72.3398346,10.7167183 72.7851772,9.79898061 C73.2305195,8.88124295 73.8557711,8.1668579 74.6609503,7.65580397 C75.4661295,7.14475007 76.3639265,6.88922695 77.3543681,6.88922695 C78.9290993,6.88922695 80.1457567,7.39667427 81.0043772,8.41158414 C81.8629973,9.42649403 82.292301,10.862462 82.292301,12.7195312 L82.292301,13.7776234 L74.7357674,13.7776234 C74.8141477,14.7421477 75.1330081,15.5051182 75.6923584,16.0665577 C76.2517084,16.6279972 76.9553393,16.9087127 77.8032711,16.9087127 C78.9932265,16.9087127 79.9622772,16.4228589 80.7104527,15.4511367 L82.1106023,16.8007441 C81.647446,17.4989445 81.0293201,18.0405816 80.2562054,18.4256715 C79.4830909,18.8107614 78.6155768,19.0033035 77.6536369,19.0033035 L77.6536369,19.0033035 Z M77.3436802,8.99461458 C76.6311322,8.99461458 76.0557581,9.24653878 75.6175413,9.75039475 C75.1793242,10.2542507 74.8996534,10.9560396 74.7785201,11.8557824 L79.7271413,11.8557824 L79.7271413,11.6614389 C79.6701372,10.7832899 79.4385628,10.1192897 79.0324104,9.66941831 C78.6262581,9.21954692 78.0633537,8.99461458 77.3436802,8.99461458 L77.3436802,8.99461458 Z M85.6792225,7.10516414 L85.7540396,8.45477159 C86.6090973,7.41106993 87.7313436,6.88922695 89.1208121,6.88922695 C91.5292242,6.88922695 92.7547886,8.2820079 92.7975413,11.0676116 L92.7975413,18.7873663 L90.2003168,18.7873663 L90.2003168,11.2187677 C90.2003168,10.4773796 90.0417775,9.92854471 89.7246936,9.57224658 C89.4076097,9.21594841 88.8892386,9.037802 88.1695654,9.037802 C87.1221198,9.037802 86.3418913,9.516458 85.8288567,10.4737843 L85.8288567,18.7873663 L83.2316322,18.7873663 L83.2316322,7.10516414 L85.6792225,7.10516414 Z M97.6594295,4.26559003 L97.6594295,7.10516414 L99.7008695,7.10516414 L99.7008695,9.04859888 L97.6594295,9.04859888 L97.6594295,15.5699021 C97.6594295,16.0161745 97.7467154,16.3382777 97.9212896,16.5362211 C98.0958641,16.7341645 98.407599,16.8331347 98.8565044,16.8331347 C99.1557745,16.8331347 99.4586027,16.7971455 99.7649983,16.7251661 L99.7649983,18.7549757 C99.1735836,18.9205284 98.6035537,19.0033035 98.0548919,19.0033035 C96.0597574,19.0033035 95.0622054,17.8912381 95.0622054,15.6670739 L95.0622054,9.04859888 L93.1597117,9.04859888 L93.1597117,7.10516414 L95.0622054,7.10516414 L95.0622054,4.26559003 L97.6594295,4.26559003 Z" id="Covalent"></path>
                </g>
            </g>
            <text id="View-Name" font-family=".SFNSDisplay-Regular, .SF NS Display" font-size="20" font-weight="normal" fill="#FFFFFF">
                <tspan x="357" y="39">View Name</tspan>
            </text>
        </g>
    </g>
</svg>