<?xml version="1.0" encoding="UTF-8" standalone="no"?>
<svg width="1024px" height="64px" viewBox="0 0 1024 64" version="1.1" xmlns="http://www.w3.org/2000/svg" xmlns:xlink="http://www.w3.org/1999/xlink">
    <!-- Generator: Sketch 46.2 (44496) - http://www.bohemiancoding.com/sketch -->
    <title>molecules/toolbar-back</title>
    <desc>Created with Sketch.</desc>
    <defs></defs>
    <g id="Symbols" stroke="none" stroke-width="1" fill="none" fill-rule="evenodd">
        <g id="molecules/toolbar-back">
            <rect id="Rectangle-1" fill="#F16C00" x="0" y="0" width="1024" height="64"></rect>
            <path d="M989,40 C987.895431,40 987,39.1045695 987,38 C987,36.8954305 987.895431,36 989,36 C990.104569,36 991,36.8954305 991,38 C991,39.1045695 990.104569,40 989,40 Z M989,34 C987.895431,34 987,33.1045695 987,32 C987,30.8954305 987.895431,30 989,30 C990.104569,30 991,30.8954305 991,32 C991,33.1045695 990.104569,34 989,34 Z M989,28 C987.895431,28 987,27.1045695 987,26 C987,24.8954305 987.895431,24 989,24 C990.104569,24 991,24.8954305 991,26 C991,27.1045695 990.104569,28 989,28 Z" id="more-vert" fill="#FFFFFF"></path>
            <path d="M936.36248,34.83464 L936.1076,35.08952 L935.15504,34.13696 C936.10688,32.9612 936.68,31.4672 936.68,29.84 C936.68,26.06864 933.61136,23 929.84,23 C926.06864,23 923,26.06864 923,29.84 C923,33.61136 926.06864,36.68 929.84,36.68 C931.4672,36.68 932.9612,36.10688 934.13696,35.15504 L935.08952,36.1076 L934.83464,36.36248 L939.15608,40.68392 L940.6832,39.1568 L936.36248,34.83464 L936.36248,34.83464 Z M929.84072,34.52 C927.26024,34.52 925.16072,32.42048 925.16072,29.84 C925.16072,27.25952 927.26024,25.16 929.84072,25.16 C932.4212,25.16 934.52072,27.25952 934.52072,29.84 C934.52072,32.42048 932.42048,34.52 929.84072,34.52 L929.84072,34.52 Z" id="Shape" fill="#FFFFFF"></path>
            <text id="View-Name" font-family=".SFNSDisplay-Regular, .SF NS Display" font-size="20" font-weight="normal" fill="#FFFFFF">
                <tspan x="60" y="39">View Name</tspan>
            </text>
            <polygon id="arrow-back" fill-opacity="0.87" fill="#FFFFFF" points="38 31 25.8 31 31.4 25.4 30 24 22 32 30 40 31.4 38.6 25.8 33 38 33"></polygon>
        </g>
    </g>
</svg>