<?xml version="1.0" encoding="UTF-8" standalone="no"?>
<svg width="168px" height="174px" viewBox="0 0 168 174" version="1.1" xmlns="http://www.w3.org/2000/svg" xmlns:xlink="http://www.w3.org/1999/xlink">
    <title>AppCenter</title>
    <desc>Copyright Teradata</desc>
    <defs></defs>
    <g id="app_center-wrapper" stroke="none" stroke-width="1" fill-rule="evenodd">
        <g id="app_center-group" transform="translate(-64.000000, -107.000000)" fill-rule="nonzero">
            <path d="M193.628288,214.11984 L231,181 L193.108002,147.419067 L172.434392,165.662963 C175.32254,170.168019 176.998274,175.53179 176.998274,181.288784 C176.998274,186.637345 175.551877,191.646499 173.030624,195.942963 L193.628288,214.11984 L193.628288,214.11984 Z M109.951024,140.276937 L147.5,107 L185.715078,140.867255 L165.822541,158.421877 C160.960656,154.642339 154.860491,152.393186 148.237457,152.393186 C141.580665,152.393186 135.452084,154.665326 130.578125,158.47979 L109.951024,140.276937 L109.951024,140.276937 Z M186.235365,220.671653 L147.5,255 L109.430737,221.26197 L129.69568,203.378711 C134.702331,207.624992 141.172399,210.184382 148.237457,210.184382 C155.268957,210.184382 161.711107,207.649247 166.707793,203.439103 L186.235365,220.671653 L186.235365,220.671653 Z M102.5581,146.828749 L64,181 L102.037814,214.710158 L123.396685,195.861536 C120.904838,191.583262 119.476639,186.603592 119.476639,181.288784 C119.476639,175.565377 121.132878,170.230618 123.990096,165.741901 L102.5581,146.828749 L102.5581,146.828749 Z M168.423858,181.288784 C168.423858,192.540584 159.386098,201.66197 148.237457,201.66197 C137.088816,201.66197 128.051056,192.540584 128.051056,181.288784 C128.051056,170.036984 137.088816,160.915599 148.237457,160.915599 C159.386098,160.915599 168.423858,170.036984 168.423858,181.288784 Z M151,260.224916 L232,187 L232,208.29433 L151,281 L151,260.224916 Z M145,260.224916 L145,281 L64,208.29433 L64,187 L145,260.224916 Z" id="app_center"></path>
        </g>
    </g>
</svg>