<?xml version="1.0" encoding="UTF-8"?>
<svg width="190px" height="62px" viewBox="0 0 190 62" version="1.1" xmlns="http://www.w3.org/2000/svg" xmlns:xlink="http://www.w3.org/1999/xlink">
    <defs></defs>
    <g id="aster" fill-rule="evenodd">
        <g>
            <path d="M17.7031496,35.086057 L22.3167896,35.086057 C24.574856,35.086057 26.8343886,35.12418 29.0917217,35.065529 C29.8659159,35.045734 30.3233943,35.295735 30.5088783,36.011278 C30.9744212,37.806 31.4172368,39.606588 31.9289674,41.643247 L30.4245674,41.643247 C26.0785229,41.64398 21.7317452,41.675505 17.3857007,41.622719 C16.2683977,41.609523 15.5785145,41.811869 15.2361388,43.032544 C14.6686897,45.058206 13.9194222,47.034014 13.2288058,49.024484 C12.1899487,52.020821 11.3314436,55.100736 10.0154602,57.970973 C9.220005,59.706311 7.8241094,61.230506 5.4626706,61.106606 C3.7309976,61.015696 1.9912602,61.08901 0.1796752,61.08901 C0.1796752,60.82728 0.1342206,60.65206 0.1862734,60.51423 C1.2573886,57.669653 2.3409672,54.830208 3.4186807,51.988563 C5.1701484,47.373457 6.9186835,42.757617 8.669418,38.142511 C10.0616479,34.47242 11.4912678,30.814792 12.8402425,27.128573 C14.4355517,22.7715309 15.9179575,18.3734336 17.5330615,14.0237233 C18.7075492,10.8587648 20.0169344,7.7443928 21.2676686,4.6072935 C21.3607771,4.3719561 21.5103374,4.1461495 21.5462612,3.9027475 C21.836584,1.9335377 22.9766142,0.7414547 24.9164985,0.478258 C27.1063829,0.1806038 29.3138627,0.0156476 31.4377647,0.949666 C32.8989095,1.5926284 33.2464172,2.9430693 33.7229571,4.2612522 C35.0404069,7.909349 36.4003786,11.5420498 37.7552184,15.1762169 C38.6987676,17.7048113 39.6467155,20.2312063 40.6203233,22.7480705 C42.1415856,26.683558 43.7185663,30.597784 45.212702,34.543534 C46.692909,38.453362 48.071209,42.402045 49.549216,46.312605 C50.72517,49.422579 51.96564,52.509091 53.236902,55.581674 C53.349073,55.852936 53.905525,56.090473 54.256698,56.091206 C58.986174,56.102203 63.716383,56.122731 68.443659,56.022291 C70.565362,55.977569 72.445862,55.025222 73.780907,53.418916 C75.644545,51.176246 75.73912,47.773017 72.838091,45.687972 C70.752312,44.189437 68.472985,42.958497 66.272103,41.619786 C63.708318,40.060401 61.119607,38.541338 58.575616,36.950428 C57.430454,36.234885 56.275028,35.489283 55.283092,34.583857 C50.772091,30.465819 50.816079,24.6769577 54.195114,20.1256344 C55.006698,19.0332581 56.589544,18.4438149 57.90846,17.8118495 C60.610809,16.516394 63.583685,16.4049569 66.494977,16.2847222 C70.19586,16.1322294 73.907007,16.2392676 77.614488,16.2392676 C77.780177,16.2392676 77.945133,16.2927867 78.361556,16.3639012 C78.091761,17.2737259 77.885749,18.1512926 77.573432,18.9885367 C76.696599,21.3375122 76.67827,21.2847262 74.123283,21.3433773 C71.18853,21.4100929 68.253043,21.5266619 65.321956,21.6989494 C62.261836,21.8793015 59.75377,24.7817965 60.810955,27.397634 C61.338082,28.699688 62.357144,30.034 63.517702,30.804529 C66.651869,32.882976 70.003045,34.630778 73.225921,36.578727 C76.07783,38.303068 79.242788,39.682835 81.387218,42.300872 C82.519917,43.683571 83.354229,45.525948 83.705402,47.284014 C84.249391,50.012755 83.891619,52.822875 82.676075,55.385193 C81.658479,57.52889 79.781645,58.724639 77.585895,59.539156 C74.5595,60.661591 71.475187,61.174054 68.237647,61.127133 C61.975179,61.036224 55.711245,61.110271 49.44731,61.078746 C46.87546,61.06555 45.313142,59.600739 44.505957,57.14106 C43.4824957,54.022289 42.1731105,50.998093 41.0404117,47.913047 C40.1371851,45.452634 39.3468619,42.950433 38.4473011,40.488554 C37.4648956,37.801602 36.3769182,35.152039 35.4047767,32.461421 C34.5125472,29.995144 33.7346873,27.487077 32.8666515,25.011269 C31.862985,22.1483633 30.819729,19.2986543 29.7845376,16.447479 C29.0924549,14.5427853 28.3945071,12.6402912 27.6708995,10.7473278 C27.5667938,10.4753334 27.3043303,10.2634564 27.1144474,10.0237201 C26.9223652,10.2700547 26.651104,10.4885299 26.5513971,10.7678556 C25.8666459,12.6784144 25.2486102,14.6138998 24.5513955,16.5200597 C23.2178168,20.1696227 21.831452,23.799391 20.4971401,27.448221 C19.929691,29.000275 19.4597492,30.58752 18.9062297,32.144706 C18.5887808,33.036935 18.1914198,33.900572 17.7031496,35.086057 Z M177.275858,41.955564 C181.460612,48.246625 185.635835,54.523023 189.885106,60.910858 C189.512671,61.006166 189.286131,61.113937 189.058859,61.113937 C186.629971,61.117603 184.198884,61.16379 181.775128,61.055286 C181.146096,61.027427 180.363104,60.64986 179.959144,60.171854 C179.064716,59.111736 178.319114,57.915254 177.596239,56.723904 C175.690079,53.577274 173.81911,50.40865 171.951074,47.239292 C170.089635,44.080932 168.249458,40.910108 166.32277,37.613185 C166.669544,37.576528 166.976729,37.545736 167.283181,37.510546 C169.718667,37.234886 172.158552,36.997349 174.587439,36.672568 C177.093306,36.336791 178.516328,34.58679 178.769994,32.341187 C179.022194,30.115378 178.86017,27.729746 178.315448,25.555991 C177.715741,23.1622937 175.553716,21.9958705 173.222336,21.7583336 C170.350632,21.4650783 167.440073,21.55892 164.546376,21.4694771 C163.833765,21.4482161 163.525114,21.7649319 163.552973,22.4606802 C163.565436,22.7583344 163.555172,23.0567218 163.555172,23.3551091 C163.554439,35.456292 163.539043,47.556741 163.578633,59.657191 C163.582299,60.765696 163.326433,61.107339 162.176139,61.102207 C152.419533,61.056752 142.662194,61.06335 132.905588,61.083145 C129.744295,61.089743 126.863794,60.111004 124.261153,58.457776 C123.37992,57.898392 122.769949,56.741499 122.305139,55.733434 C121.283144,53.51569 120.829332,51.134457 120.828599,48.684308 C120.822734,38.330194 120.832264,27.976814 120.811003,17.6226998 C120.809537,16.701878 120.988423,16.2084758 122.066869,16.2121415 C130.886525,16.2414671 139.70618,16.2268043 148.525835,16.2341357 C148.805894,16.2341357 149.085953,16.3235786 149.596217,16.410822 C149.154135,17.9584772 148.805161,19.4320854 148.278034,20.8389781 C148.154867,21.1666909 147.426127,21.4408847 146.973781,21.4445504 C141.64753,21.4863393 136.322013,21.4709434 130.995762,21.4731428 C129.297081,21.4738759 129.294881,21.4775416 129.293415,23.1549623 C129.291949,26.435757 129.330072,29.717284 129.272887,32.996612 C129.253092,34.115382 129.617462,34.466555 130.742096,34.447493 C134.448111,34.384443 138.155592,34.424766 141.86234,34.424766 L143.370406,34.424766 C142.867473,36.157172 142.458381,37.712892 141.926856,39.225356 C141.853542,39.435034 141.174656,39.51128 140.775096,39.514213 C137.409257,39.53694 134.042685,39.558201 130.67758,39.510547 C129.659984,39.496618 129.237696,39.748084 129.270688,40.862454 C129.358664,43.885184 129.36013,46.910846 129.340336,49.935776 C129.328605,51.830938 129.868928,53.547949 131.356466,54.680647 C132.275089,55.380061 133.547084,55.96144 134.673918,55.986367 C141.14753,56.129329 147.624808,56.080209 154.100619,56.124197 C155.03977,56.130062 155.096955,55.613199 155.092556,54.893991 C155.074227,51.869062 155.086691,48.844132 155.086691,45.81847 C155.086691,36.487818 155.105752,27.156432 155.06323,17.825046 C155.058098,16.6204996 155.377747,16.1842823 156.638011,16.2033439 C161.110889,16.2693263 165.585233,16.225338 170.058843,16.2297368 C174.147556,16.2341357 178.106504,16.9504119 181.720876,18.8924956 C184.48774,20.3793003 186.472346,22.6337009 186.651965,25.947487 C186.786863,28.443823 186.755338,30.957754 186.647566,33.457756 C186.510469,36.649108 184.567653,38.666705 181.885832,40.030342 C180.472341,40.749551 178.955478,41.262748 177.275858,41.955564 Z M117.736954,16.1864817 C117.280942,17.9210872 116.924637,19.4702086 116.424636,20.970943 C116.346924,21.204081 115.610119,21.3133186 115.176835,21.3162512 C111.854251,21.3448436 108.529469,21.3785679 105.207618,21.3067204 C104.063922,21.2817937 103.764069,21.6549611 103.767001,22.761267 C103.799993,35.07506 103.772867,47.388853 103.81099,59.701912 C103.814655,60.797221 103.591781,61.272295 102.41656,61.141063 C101.489874,61.036957 100.543392,61.127867 99.606441,61.097808 C97.203946,61.020095 95.699546,59.466575 95.69808,57.043552 C95.692215,45.752488 95.695147,34.46069 95.694414,23.1696251 C95.694414,21.3331134 95.692215,21.3323802 93.921686,21.3316471 C90.25746,21.3316471 86.592501,21.2986559 82.929008,21.3543744 C81.903348,21.3697703 81.738391,20.9555471 81.975928,20.1263675 C82.289712,19.0288593 82.525782,17.8917616 82.995724,16.8631684 C83.162879,16.4987986 83.918012,16.2172735 84.407015,16.2136078 C90.201008,16.1696195 95.995734,16.1857485 101.79046,16.1857485 C106.605713,16.1857485 111.420233,16.1864817 116.234753,16.1864817 L117.736954,16.1864817 Z"></path>
        </g>
    </g>
</svg>