<?xml version="1.0" encoding="UTF-8" standalone="no"?>
<svg width="479px" height="479px" viewBox="0 0 479 479" version="1.1" xmlns="http://www.w3.org/2000/svg" xmlns:xlink="http://www.w3.org/1999/xlink">
    <title>ecosystem-services</title>
    <defs></defs>
    <g id="Page-1" stroke="none" stroke-width="1" fill-rule="evenodd">
        <path d="M479,239.5 C479,371.772 371.772,479 239.5,479 C107.228,479 0,371.772 0,239.5 C0,107.228 107.228,0 239.5,0 C371.772,0 479,107.228 479,239.5 Z M429.87,298.253 C440.76,140.919 344.639,53.1981 239.502,53.1981 C134.365,53.1981 29.345,133.923 49.1338,298.253 C49.1293,299.521 49.2567,300.792 49.5123,302.063 C87.4872,346.637 166.04,377.255 239.502,377.255 C312.863,377.255 373.713,352.461 429.87,298.253 Z M308.859,246.724 C306.656,202.142 278.861,176.055 247,172.435 L247,76.1882 C331.99,80.2856 407.898,151.172 403.845,275.764 L308.859,246.724 Z M239.179,355 C176.895,355 110.364,329.496 77.0494,292.141 L170.776,263.485 C184.888,279.246 212.983,290 239.287,290 C265.28,290 286.965,281.473 306.959,262.874 L399.009,291.017 C351.785,334.885 300.563,355 239.179,355 Z M169,247.297 L73.9924,276.344 C62.9761,146.164 145.5,80.142 231,76.1889 L231,172.46 C198.746,176.06 168.878,200.794 169,247.297 Z" id="ecosystem-services" fill-rule="nonzero"></path>
    </g>
</svg>