<?xml version="1.0" encoding="UTF-8" standalone="no"?>
<svg width="184px" height="184px" viewBox="0 0 184 184" version="1.1" xmlns="http://www.w3.org/2000/svg" xmlns:xlink="http://www.w3.org/1999/xlink">
    <title>QueryGrid</title>
    <desc>Copyright Teradata</desc>
    <defs></defs>
    <g id="query_grid-wrapper" stroke="none" stroke-width="1" fill-rule="evenodd">
        <g id="query_grid-group" transform="translate(-1030.000000, -101.000000)">
            <path d="M1179.25954,227.593379 L1196.89657,245.230411 L1174.23041,267.896573 L1156.59338,250.259542 L1121.96452,284.888401 L1030,192.923882 L1121.92388,101 L1213.8884,192.96452 L1179.25954,227.593379 Z M1060.22823,192.930562 L1121.95784,254.660171 L1183.66017,192.95784 L1121.93056,131.22823 L1060.22823,192.930562 Z M1073,193.213203 L1094.2132,172 L1115.42641,193.213203 L1094.2132,214.426407 L1073,193.213203 Z M1101,221.213203 L1122.2132,200 L1143.42641,221.213203 L1122.2132,242.426407 L1101,221.213203 Z M1101,166.213203 L1122.2132,145 L1143.42641,166.213203 L1122.2132,187.426407 L1101,166.213203 Z M1129,193.213203 L1150.2132,172 L1171.42641,193.213203 L1150.2132,214.426407 L1129,193.213203 Z" id="query_grid"></path>
        </g>
    </g>
</svg>