<?xml version="1.0" encoding="UTF-8" standalone="no"?>
<svg width="325px" height="901px" viewBox="0 0 325 901" version="1.1" xmlns="http://www.w3.org/2000/svg" xmlns:xlink="http://www.w3.org/1999/xlink">
    <!-- Generator: Sketch 47.1 (45422) - http://www.bohemiancoding.com/sketch -->
    <title>navigation-drawer</title>
    <desc>Created with Sketch.</desc>
    <defs>
        <path d="M16.5878713,17 L33.0792079,17 L32.460396,18.9183168 L26.3029084,18.9183168 L26.3029084,39.3081683 L25.3131188,39.3081683 C24.1683168,39.3081683 23.5804455,38.7821782 23.5804455,37.7920792 L23.5804455,18.8873762 L16,18.8873762 L16.5878713,17 Z M104.490099,22.2289604 C104.644802,21.8886139 105.201733,21.6720297 105.851795,21.6720297 C106.470297,21.6720297 107.089109,21.8886139 107.212871,22.2289604 L112.751238,36.8326114 L111.482673,36.8326114 C110.27599,36.8326114 109.75,36.740099 109.440594,35.8428218 L105.758354,25.0136139 L103.716584,30.7685644 L106.006188,30.7685644 L106.501238,32.4081064 L103.190285,32.4081064 L101.95297,35.8428218 C101.643564,36.740099 101.148824,36.8326114 100.034653,36.8326114 L99.0133045,36.8326114 L104.490099,22.2289604 Z M83.7289604,22.2289604 C83.8839728,21.8886139 84.4409035,21.6720297 85.0900371,21.6720297 C85.7091584,21.6720297 86.2970297,21.8886139 86.4517327,22.2289604 L92.0210396,36.8326114 L90.7215347,36.8326114 C89.5148515,36.8326114 88.9888614,36.740099 88.6794554,35.8428218 L84.9975248,25.0136139 L82.9554455,30.7685644 L85.2450495,30.7685644 L85.740099,32.4081064 L82.4294554,32.4081064 L81.1918317,35.8428218 C80.8824257,36.740099 80.3870668,36.8326114 79.2735149,36.8326114 L78.2524752,36.8326114 L83.7289604,22.2289604 Z M57.4294554,22.2289604 C57.5841584,21.8886139 58.1410891,21.6720297 58.7908416,21.6720297 C59.4096535,21.6720297 59.9975248,21.8886139 60.1212871,22.1980198 L65.6905941,36.8019802 L64.4220297,36.8019802 C63.2153465,36.8019802 62.6893564,36.7091584 62.3799505,35.8118812 L58.6980198,24.9826733 L56.6556312,30.7376238 L58.9455446,30.7376238 L59.4402847,32.3774752 L56.1299505,32.3774752 L54.8923267,35.8118812 C54.5519802,36.7091584 54.0878713,36.8019802 52.9740099,36.8019802 L50.5915842,36.8019802 C49.5086634,36.8019802 49.2920792,36.7091584 48.8282797,35.904703 L44.7125619,28.8811881 L45.9195545,28.8811881 C47.5284653,28.8811881 48.8589109,28.4173886 48.8589109,26.9628713 L48.8589109,25.6943069 C48.8589109,24.2710396 47.8069307,23.5284653 45.7029703,23.5284653 L43.7846535,23.5284653 L43.7846535,36.771349 L34.9975248,36.8019802 C30.2636139,36.8019802 29.4591584,35.6571782 29.4591584,32.1915223 L29.4591584,21.8576733 L39.2054455,21.8576733 L38.710396,23.5284653 L32.1816213,23.5284653 L32.1816213,27.9217203 L37.1017946,27.9217203 L36.6064356,29.5928218 L32.1509901,29.5928218 L32.1509901,32.2227723 C32.1509901,34.6667698 32.7079208,35.1927599 35.0594059,35.1927599 L41.0309406,35.1927599 L41.0309406,21.8886139 L45.6720297,21.8886139 C48.9826733,21.8886139 51.4888614,23.0024752 51.4888614,25.6943069 L51.4888614,26.9938119 C51.4888614,28.8502475 50.2512376,29.9641089 48.2091584,30.3044554 L52.1386139,36.2756807 L57.4294554,22.2289604 Z M89.700495,21.8886139 L102.107673,21.8886139 L101.643564,23.5594059 L97.0334158,23.5594059 L97.0334158,36.8638614 L96.0433168,36.8638614 C94.8985149,36.8638614 94.3103342,36.3378713 94.3103342,35.3477723 L94.3103342,23.5594059 L89.2054455,23.5594059 L89.700495,21.8886139 Z M66.7425743,21.8886139 L71.8168317,21.8886139 C76.1485149,21.8886139 78.2834158,23.9616337 78.2834158,28.1695545 L78.2834158,30.7376238 C78.2834158,34.9455446 76.396349,36.7091584 72.3737624,36.8638614 L71.8168317,36.8638614 L68.4443069,36.8638614 C67.299505,36.8638614 66.7425743,36.3378713 66.7425743,35.3477723 L66.7425743,21.8886139 Z M69.4347153,23.5284653 L69.4347153,35.1927599 L71.8787129,35.1927599 C74.5705446,35.1927599 75.5606436,33.7079208 75.5606436,30.6757426 L75.5300124,30.6757426 L75.5300124,28.1695545 C75.5300124,25.1370668 74.539604,23.5284653 71.7858911,23.5284653 L69.4347153,23.5284653 Z M113.834158,34.6980198 C114.081683,34.450495 114.391089,34.3267327 114.731436,34.3267327 C115.072092,34.3267327 115.381498,34.450495 115.628713,34.6980198 C115.876238,34.9455446 116,35.2549505 116,35.595297 C116,35.935953 115.876238,36.2450495 115.628713,36.4925743 C115.381498,36.740099 115.072092,36.8638614 114.731436,36.8638614 C114.391089,36.8638614 114.081683,36.740099 113.834158,36.4925743 C113.586634,36.2450495 113.462871,35.935953 113.462871,35.595297 C113.462871,35.2549505 113.586634,34.9455446 113.834158,34.6980198 Z M113.957921,36.3685025 C114.174505,36.5850866 114.42203,36.6782178 114.731436,36.6782178 C115.040842,36.6782178 115.288676,36.5544554 115.504641,36.3685025 C115.721225,36.1525371 115.814356,35.904703 115.814356,35.595297 C115.814356,35.2858911 115.721225,35.0383663 115.504641,34.8217822 C115.288676,34.605198 115.040842,34.5123762 114.731436,34.5123762 C114.42203,34.4814356 114.174505,34.605198 113.957921,34.8217822 C113.741337,35.0383663 113.648515,35.2858911 113.648515,35.595297 C113.648515,35.904703 113.741337,36.1525371 113.957921,36.3685025 Z M114.700495,34.914604 L114.700495,34.883354 C114.885829,34.883354 115.009901,34.914604 115.072092,34.9455446 C115.226485,35.0074257 115.288676,35.1311881 115.288676,35.2858911 C115.288676,35.4096535 115.257426,35.5024752 115.164604,35.5643564 C115.102723,35.595297 115.040842,35.6262376 114.94802,35.6262376 C115.072092,35.6571782 115.133663,35.6884282 115.195235,35.7496906 C115.257426,35.8118812 115.257426,35.904703 115.257426,35.9665842 L115.257426,36.0590965 L115.257426,36.1525371 L115.257426,36.2141089 L115.257426,36.2450495 L115.009901,36.2450495 L115.009901,36.2141089 L115.009901,36.1831683 L115.009901,36.0903465 C115.009901,35.935953 114.97896,35.8118812 114.885829,35.7809406 C114.824257,35.7496906 114.731436,35.7496906 114.607673,35.7496906 L114.42203,35.7496906 L114.42203,36.3069307 L114.174505,36.3069307 L114.174505,34.914604 L114.700495,34.914604 Z M114.45297,35.0383663 L114.45297,35.5334158 L114.669554,35.5334158 C114.762376,35.5334158 114.855198,35.5334158 114.917079,35.5024752 C115.009901,35.4715347 115.072092,35.3790223 115.072092,35.2858911 C115.072092,35.2240099 115.040842,35.1311881 114.97896,35.1002475 C114.917079,35.0696163 114.824257,35.0383663 114.669554,35.0383663 L114.45297,35.0383663 Z" id="path-1"></path>
    </defs>
    <g id="Page-1" stroke="none" stroke-width="1" fill="none" fill-rule="evenodd">
        <g id="navigation-drawer" transform="translate(1.000000, 0.000000)">
            <rect id="bg" stroke="#CCCCCC" fill="#FFFFFF" fill-rule="nonzero" x="0" y="0.5" width="322" height="900"></rect>
            <path d="M1,362 L323,362" id="divider" stroke="#D6D5D5" stroke-linecap="square"></path>
            <g id="atoms/sidenav-item" transform="translate(56.000000, 127.000000)" font-size="16" font-family=".AppleSystemUIFont" fill="#000000" font-weight="normal">
                <g id="Title">
                    <text id="Sidenav-Item">
                        <tspan x="0" y="15.9583333">Sidenav Item</tspan>
                    </text>
                </g>
            </g>
            <g id="atoms/sidenav-item" transform="translate(56.000000, 221.000000)" font-size="16" font-family=".AppleSystemUIFont" fill="#000000" font-weight="normal">
                <g id="Title">
                    <text id="Sidenav-Item">
                        <tspan x="0" y="15.9583333">Sidenav Item</tspan>
                    </text>
                </g>
            </g>
            <g id="atoms/sidenav-item" transform="translate(56.000000, 173.000000)" font-size="16" font-family=".AppleSystemUIFont" fill="#000000" font-weight="normal">
                <g id="Title">
                    <text id="Sidenav-Item">
                        <tspan x="0" y="15.9583333">Sidenav Item</tspan>
                    </text>
                </g>
            </g>
            <g id="atoms/sidenav-item" transform="translate(56.000000, 269.000000)" font-size="16" font-family=".AppleSystemUIFont" fill="#000000" font-weight="normal">
                <g id="Title">
                    <text id="Sidenav-Item">
                        <tspan x="0" y="15.9583333">Sidenav Item</tspan>
                    </text>
                </g>
            </g>
            <g id="atoms/sidenav-item" transform="translate(56.000000, 317.000000)" font-size="16" font-family=".AppleSystemUIFont" fill="#000000" font-weight="normal">
                <g id="Title">
                    <text id="Sidenav-Item">
                        <tspan x="0" y="15.9583333">Sidenav Item</tspan>
                    </text>
                </g>
            </g>
            <g id="atoms/sidenav-item" transform="translate(56.000000, 375.000000)" font-size="16" font-family=".AppleSystemUIFont" fill="#000000" font-weight="normal">
                <g id="Title">
                    <text id="Sidenav-Item">
                        <tspan x="0" y="15.9583333">Sidenav Item</tspan>
                    </text>
                </g>
            </g>
            <g id="shadow">
                <g id="path-1-link" fill-rule="nonzero" fill="#000000">
                    <rect id="path-1" x="0" y="0.5" width="321" height="106"></rect>
                </g>
                <g id="path-1-link" fill="#FFFFFF">
                    <rect id="path-1" x="0" y="0.5" width="321" height="106"></rect>
                </g>
            </g>
            <rect id="bg" fill="#F5F5F5" fill-rule="nonzero" x="0" y="1" width="321" height="106"></rect>
            <text id="App-Name" fill-opacity="0.87" fill="#000000" font-family=".AppleSystemUIFont" font-size="16" font-weight="normal">
                <tspan x="123" y="35">App Name</tspan>
            </text>
            <mask id="mask-2" fill="white">
                <use xlink:href="#path-1"></use>
            </mask>
            <use id="Clip-2" fill="#000000" xlink:href="#path-1"></use>
            <g id="list" mask="url(#mask-2)" fill-opacity="0.54" fill="#000000" fill-rule="nonzero">
                <g transform="translate(21.000000, 228.000000)" id="Shape">
                    <path d="M0,6 L2,6 L2,4 L0,4 L0,6 Z M0,10 L2,10 L2,8 L0,8 L0,10 Z M0,2 L2,2 L2,0 L0,0 L0,2 Z M4,6 L18,6 L18,4 L4,4 L4,6 Z M4,10 L18,10 L18,8 L4,8 L4,10 Z M4,0 L4,2 L18,2 L18,0 L4,0 Z"></path>
                </g>
            </g>
            <g id="receipt" mask="url(#mask-2)" fill-opacity="0.54" fill="#000000" fill-rule="nonzero">
                <g transform="translate(21.000000, 320.000000)" id="Shape">
                    <path d="M15,15 L3,15 L3,13 L15,13 L15,15 Z M15,11 L3,11 L3,9 L15,9 L15,11 Z M15,7 L3,7 L3,5 L15,5 L15,7 Z M0,20 L1.5,18.5 L3,20 L4.5,18.5 L6,20 L7.5,18.5 L9,20 L10.5,18.5 L12,20 L13.5,18.5 L15,20 L16.5,18.5 L18,20 L18,0 L16.5,1.5 L15,0 L13.5,1.5 L12,0 L10.5,1.5 L9,0 L7.5,1.5 L6,0 L4.5,1.5 L3,0 L1.5,1.5 L0,0 L0,20 Z"></path>
                </g>
            </g>
            <g id="view_quilt" mask="url(#mask-2)" fill-opacity="0.54" fill="#000000" fill-rule="nonzero">
                <g transform="translate(22.000000, 179.000000)" id="Shape">
                    <path d="M6,13 L11,13 L11,7 L6,7 L6,13 Z M0,13 L5,13 L5,0 L0,0 L0,13 Z M12,13 L17,13 L17,7 L12,7 L12,13 Z M6,0 L6,6 L17,6 L17,0 L6,0 Z"></path>
                </g>
            </g>
            <g id="home" mask="url(#mask-2)" fill-opacity="0.54" fill="#000000" fill-rule="nonzero">
                <g transform="translate(20.000000, 128.000000)" id="Shape">
                    <polygon points="8 17 8 11 12 11 12 17 17 17 17 9 20 9 10 0 0 9 3 9 3 17"></polygon>
                </g>
            </g>
            <g id="group" mask="url(#mask-2)" fill-opacity="0.54" fill="#000000" fill-rule="nonzero">
                <g transform="translate(19.000000, 274.000000)" id="Shape">
                    <path d="M15,6 C16.66,6 17.99,4.66 17.99,3 C17.99,1.34 16.66,0 15,0 C13.34,0 12,1.34 12,3 C12,4.66 13.34,6 15,6 Z M7,6 C8.66,6 9.99,4.66 9.99,3 C9.99,1.34 8.66,0 7,0 C5.34,0 4,1.34 4,3 C4,4.66 5.34,6 7,6 Z M7,8 C4.67,8 0,9.17 0,11.5 L0,14 L14,14 L14,11.5 C14,9.17 9.33,8 7,8 Z M15,8 C14.71,8 14.38,8.02 14.03,8.05 C15.19,8.89 16,10.02 16,11.5 L16,14 L22,14 L22,11.5 C22,9.17 17.33,8 15,8 Z"></path>
                </g>
            </g>
            <g id="cancel" mask="url(#mask-2)" fill-opacity="0.54" fill="#000000" fill-rule="nonzero">
                <g transform="translate(20.000000, 376.000000)" id="Shape">
                    <path d="M10,0 C4.47,0 0,4.47 0,10 C0,15.53 4.47,20 10,20 C15.53,20 20,15.53 20,10 C20,4.47 15.53,0 10,0 Z M15,13.59 L13.59,15 L10,11.41 L6.41,15 L5,13.59 L8.59,10 L5,6.41 L6.41,5 L10,8.59 L13.59,5 L15,6.41 L11.41,10 L15,13.59 Z"></path>
                </g>
            </g>
            <text id="firstname.lastname@company.com" fill-opacity="0.87" fill="#000000" mask="url(#mask-2)" font-family=".AppleSystemUIFont" font-size="14" font-weight="normal">
                <tspan x="16" y="87">firstname.lastname@company.com</tspan>
            </text>
            <text id="Firstname-Lastname" fill-opacity="0.87" fill="#000000" mask="url(#mask-2)" font-family=".AppleSystemUIFont" font-size="14" font-weight="normal">
                <tspan x="16" y="64">Firstname Lastname</tspan>
            </text>
        </g>
    </g>
</svg>