<?xml version="1.0" encoding="UTF-8" standalone="no"?>
<svg width="394px" height="45px" viewBox="0 0 394 45" version="1.1" xmlns="http://www.w3.org/2000/svg" xmlns:xlink="http://www.w3.org/1999/xlink">
    <!-- Generator: Sketch 46.2 (44496) - http://www.bohemiancoding.com/sketch -->
    <title>atoms/card-title-search-active</title>
    <desc>Created with Sketch.</desc>
    <defs></defs>
    <g id="Symbols" stroke="none" stroke-width="1" fill="none" fill-rule="evenodd">
        <g id="atoms/card-title-search-active" fill="#000000">
            <g id="atoms/divider" transform="translate(0.000000, 44.000000)" fill-opacity="0.12">
                <rect id="divider" x="0" y="0" width="394" height="1" rx="0.5"></rect>
            </g>
            <text id="Card-Title" font-family=".SFNSDisplay-Regular, .SF NS Display" font-size="24" font-weight="normal" letter-spacing="-0.0461538471" fill-opacity="0.87">
                <tspan x="15" y="23">Card Title</tspan>
            </text>
            <g id="Group-2" transform="translate(206.000000, 0.000000)">
                <g id="search" transform="translate(0.000000, 3.000000)" fill-opacity="0.54">
                    <path d="M12.5,11 L11.71,11 L11.43,10.73 C12.4439501,9.55406794 13.0011916,8.05271043 13,6.5 C13,2.91014913 10.0898509,4.4408921e-16 6.5,0 C2.91014913,-4.4408921e-16 2.22044605e-15,2.91014913 1.77635684e-15,6.5 C1.33226763e-15,10.0898509 2.91014913,13 6.5,13 C8.11,13 9.59,12.41 10.73,11.43 L11,11.71 L11,12.5 L16,17.49 L17.49,16 L12.5,11 L12.5,11 Z M6.5,11 C4.01,11 2,8.99 2,6.5 C2,4.01 4.01,2 6.5,2 C8.99,2 11,4.01 11,6.5 C11,8.99 8.99,11 6.5,11 Z" id="Shape"></path>
                </g>
                <g id="atoms/input" transform="translate(18.000000, 0.000000)">
                    <text id="Input-title" font-family=".AppleSystemUIFont" font-size="16" font-weight="normal" letter-spacing="-1.49011614e-09" fill-opacity="0.2">
                        <tspan x="16" y="15">Search</tspan>
                    </text>
                    <rect id="Rectangle-69" fill-opacity="0.12" fill-rule="evenodd" x="7.11111111" y="29" width="145.777778" height="1"></rect>
                </g>
            </g>
        </g>
    </g>
</svg>