<?xml version="1.0" encoding="UTF-8" standalone="no"?>
<svg width="360px" height="57px" viewBox="0 0 360 57" version="1.1" xmlns="http://www.w3.org/2000/svg" xmlns:xlink="http://www.w3.org/1999/xlink">
    <!-- Generator: Sketch 46.2 (44496) - http://www.bohemiancoding.com/sketch -->
    <title>atoms/card-header</title>
    <desc>Created with Sketch.</desc>
    <defs></defs>
    <g id="Symbols" stroke="none" stroke-width="1" fill="none" fill-rule="evenodd">
        <g id="atoms/card-header">
            <text id="Subhead" font-family=".AppleSystemUIFont" font-size="15" font-weight="normal" letter-spacing="-0.0288461559" fill-opacity="0.54" fill="#000000">
                <tspan x="70" y="38">Subhead</tspan>
            </text>
            <text id="Title" font-family=".AppleSystemUIFont" font-size="14" font-weight="normal" letter-spacing="-0.0269230772" fill-opacity="0.87" fill="#000000">
                <tspan x="70" y="17">Title</tspan>
            </text>
            <g id="atoms/divider-copy-2" transform="translate(0.000000, 56.000000)" fill="#000000" fill-opacity="0.12">
                <rect id="divider" x="0" y="0" width="360" height="1" rx="0.5"></rect>
            </g>
            <circle id="Oval-17" fill="#666666" cx="38" cy="20" r="20"></circle>
            <path d="M341,16 C339.895431,16 339,15.1045695 339,14 C339,12.8954305 339.895431,12 341,12 C342.104569,12 343,12.8954305 343,14 C343,15.1045695 342.104569,16 341,16 Z M341,10 C339.895431,10 339,9.1045695 339,8 C339,6.8954305 339.895431,6 341,6 C342.104569,6 343,6.8954305 343,8 C343,9.1045695 342.104569,10 341,10 Z M341,4 C339.895431,4 339,3.1045695 339,2 C339,0.8954305 339.895431,0 341,0 C342.104569,0 343,0.8954305 343,2 C343,3.1045695 342.104569,4 341,4 Z" id="more-vert-2" fill-opacity="0.54" fill="#000000"></path>
        </g>
    </g>
</svg>