<?xml version="1.0" encoding="UTF-8" standalone="no"?>
<svg width="134px" height="24px" viewBox="0 0 134 24" version="1.1" xmlns="http://www.w3.org/2000/svg" xmlns:xlink="http://www.w3.org/1999/xlink">
    <!-- Generator: Sketch 46.2 (44496) - http://www.bohemiancoding.com/sketch -->
    <title>atoms/checkbox-label-off</title>
    <desc>Created with Sketch.</desc>
    <defs></defs>
    <g id="Symbols" stroke="none" stroke-width="1" fill="none" fill-rule="evenodd">
        <g id="atoms/checkbox-label-off">
            <g id="Group">
                <g id="label" transform="translate(40.000000, 3.000000)" font-weight="normal" font-family=".AppleSystemUIFont" letter-spacing="-0.0307692308" fill="#000000" font-size="16" fill-opacity="0.87">
                    <text id="Notifications">
                        <tspan x="0" y="15">Notifications</tspan>
                    </text>
                </g>
                <g id="check-off">
                    <rect id="bounds" x="0" y="0" width="24" height="24"></rect>
                    <path d="M19,5 L19,19 L5,19 L5,5 L19,5 L19,5 Z M19,3 L5,3 C3.9,3 3,3.9 3,5 L3,19 C3,20.1 3.9,21 5,21 L19,21 C20.1,21 21,20.1 21,19 L21,5 C21,3.9 20.1,3 19,3 L19,3 L19,3 Z" id="Shape" fill="#010101" opacity="0.54"></path>
                </g>
            </g>
        </g>
    </g>
</svg>