<?xml version="1.0" encoding="UTF-8" standalone="no"?>
<svg width="157px" height="33px" viewBox="0 0 157 33" version="1.1" xmlns="http://www.w3.org/2000/svg" xmlns:xlink="http://www.w3.org/1999/xlink">
    <!-- Generator: Sketch 46.2 (44496) - http://www.bohemiancoding.com/sketch -->
    <title>atoms/chip-contact-deletable</title>
    <desc>Created with Sketch.</desc>
    <defs></defs>
    <g id="Symbols" stroke="none" stroke-width="1" fill="none" fill-rule="evenodd">
        <g id="atoms/chip-contact-deletable">
            <rect id="Rectangle-44-Copy-3" fill="#E0E0E0" x="0" y="0.76171875" width="157" height="32" rx="16"></rect>
            <path d="M142.00293,8.5234375 C137.60293,8.5234375 134.00293,12.1234375 134.00293,16.5234375 C134.00293,20.9234375 137.60293,24.5234375 142.00293,24.5234375 C146.40293,24.5234375 150.00293,20.9234375 150.00293,16.5234375 C150.00293,12.1234375 146.40293,8.5234375 142.00293,8.5234375 L142.00293,8.5234375 Z M146.00293,19.4034375 L144.88293,20.5234375 L142.00293,17.6434375 L139.12293,20.5234375 L138.00293,19.4034375 L140.88293,16.5234375 L138.00293,13.6434375 L139.12293,12.5234375 L142.00293,15.4034375 L144.88293,12.5234375 L146.00293,13.6434375 L143.12293,16.5234375 L146.00293,19.4034375 L146.00293,19.4034375 Z" id="Shape-Copy-2" fill-opacity="0.54" fill="#000000"></path>
            <g id="Group-2">
                <text id="Trevor-Hansen-Copy" font-family=".AppleSystemUIFont" font-size="13" font-weight="normal" fill-opacity="0.87" fill="#000000">
                    <tspan x="39.6816406" y="21.5234375">Trevor Hansen</tspan>
                </text>
                <g id="Group">
                    <circle id="Oval-20-Copy" fill="#F16C00" cx="16" cy="16.7617188" r="16"></circle>
                    <text id="T" font-family=".AppleSystemUIFont" font-size="16" font-weight="normal" letter-spacing="-0.0307692308" fill-opacity="0.87" fill="#FFFFFF">
                        <tspan x="11.6013221" y="22">T</tspan>
                    </text>
                </g>
            </g>
        </g>
    </g>
</svg>