<?xml version="1.0" encoding="UTF-8" standalone="no"?>
<svg width="125px" height="33px" viewBox="0 0 125 33" version="1.1" xmlns="http://www.w3.org/2000/svg" xmlns:xlink="http://www.w3.org/1999/xlink">
    <!-- Generator: Sketch 46.2 (44496) - http://www.bohemiancoding.com/sketch -->
    <title>atoms/chip-deletable</title>
    <desc>Created with Sketch.</desc>
    <defs></defs>
    <g id="Symbols" stroke="none" stroke-width="1" fill="none" fill-rule="evenodd">
        <g id="atoms/chip-deletable">
            <rect id="Rectangle-44" fill="#E0E0E0" x="0.127929688" y="0.76171875" width="124" height="32" rx="16"></rect>
            <path d="M107.898438,8.76171875 C103.498437,8.76171875 99.8984375,12.3617187 99.8984375,16.7617188 C99.8984375,21.1617187 103.498437,24.7617188 107.898438,24.7617188 C112.298438,24.7617188 115.898438,21.1617187 115.898438,16.7617188 C115.898438,12.3617187 112.298438,8.76171875 107.898438,8.76171875 L107.898438,8.76171875 Z M111.898438,19.6417187 L110.778437,20.7617188 L107.898438,17.8817188 L105.018438,20.7617188 L103.898438,19.6417187 L106.778437,16.7617188 L103.898438,13.8817188 L105.018438,12.7617188 L107.898438,15.6417187 L110.778437,12.7617188 L111.898438,13.8817188 L109.018438,16.7617188 L111.898438,19.6417187 L111.898438,19.6417187 Z" id="Shape" fill-opacity="0.54" fill="#000000"></path>
            <text id="Example-Chip" font-family=".AppleSystemUIFont" font-size="13" font-weight="normal" fill-opacity="0.87" fill="#000000">
                <tspan x="12.0507812" y="21.7617188">Example Chip</tspan>
            </text>
        </g>
    </g>
</svg>