<?xml version="1.0" encoding="UTF-8" standalone="no"?>
<svg width="187px" height="64px" viewBox="0 0 187 64" version="1.1" xmlns="http://www.w3.org/2000/svg" xmlns:xlink="http://www.w3.org/1999/xlink">
    <!-- Generator: Sketch 46.2 (44496) - http://www.bohemiancoding.com/sketch -->
    <title>atoms/datepicker</title>
    <desc>Created with Sketch.</desc>
    <defs></defs>
    <g id="Symbols" stroke="none" stroke-width="1" fill="none" fill-rule="evenodd">
        <g id="atoms/datepicker">
            <text id="Date-label" font-family=".AppleSystemUIFont" font-size="12" font-weight="normal" letter-spacing="-1.11758713e-09" fill-opacity="0.54" fill="#000000">
                <tspan x="17" y="23">Date label</tspan>
            </text>
            <text id="mm/dd/yyyy" font-family=".AppleSystemUIFont" font-size="14" font-weight="normal" letter-spacing="-1.30385169e-09" fill-opacity="0.87" fill="#000000">
                <tspan x="70" y="53">mm/dd/yyyy</tspan>
            </text>
            <path d="M70,62.5 L186.504295,62.5" id="Line" stroke-opacity="0.12" stroke="#000000" stroke-linecap="square"></path>
            <g id="today" transform="translate(18.000000, 36.000000)" fill="#000000" fill-opacity="0.54">
                <path d="M16,2 L15,2 L15,0 L13,0 L13,2 L5,2 L5,0 L3,0 L3,2 L2,2 C0.9,2 0,2.9 0,4 L0,18 C0,19.1 0.9,20 2,20 L16,20 C17.1,20 18,19.1 18,18 L18,4 C18,2.9 17.1,2 16,2 L16,2 Z M16,18 L2,18 L2,7 L16,7 L16,18 L16,18 Z" id="Shape"></path>
                <rect id="Rectangle-path" x="4" y="9" width="5" height="5"></rect>
            </g>
            <polygon id="Shape" fill-opacity="0.54" fill="#000000" points="174 44 179 49 184 44"></polygon>
        </g>
    </g>
</svg>