<?xml version="1.0" encoding="UTF-8" standalone="no"?>
<svg width="154px" height="44px" viewBox="0 0 154 44" version="1.1" xmlns="http://www.w3.org/2000/svg" xmlns:xlink="http://www.w3.org/1999/xlink">
    <!-- Generator: Sketch 46.2 (44496) - http://www.bohemiancoding.com/sketch -->
    <title>atoms/file-upload-attached-accent</title>
    <desc>Created with Sketch.</desc>
    <defs>
        <rect id="path-1" x="0" y="0" width="145" height="36" rx="3"></rect>
        <filter x="-14.5%" y="-47.2%" width="129.0%" height="216.7%" filterUnits="objectBoundingBox" id="filter-2">
            <feOffset dx="0" dy="2" in="SourceAlpha" result="shadowOffsetOuter1"></feOffset>
            <feGaussianBlur stdDeviation="2.5" in="shadowOffsetOuter1" result="shadowBlurOuter1"></feGaussianBlur>
            <feColorMatrix values="0 0 0 0 0   0 0 0 0 0   0 0 0 0 0  0 0 0 0.26 0" type="matrix" in="shadowBlurOuter1" result="shadowMatrixOuter1"></feColorMatrix>
            <feOffset dx="0" dy="2" in="SourceAlpha" result="shadowOffsetOuter2"></feOffset>
            <feGaussianBlur stdDeviation="5" in="shadowOffsetOuter2" result="shadowBlurOuter2"></feGaussianBlur>
            <feColorMatrix values="0 0 0 0 0   0 0 0 0 0   0 0 0 0 0  0 0 0 0.16 0" type="matrix" in="shadowBlurOuter2" result="shadowMatrixOuter2"></feColorMatrix>
            <feMerge>
                <feMergeNode in="shadowMatrixOuter1"></feMergeNode>
                <feMergeNode in="shadowMatrixOuter2"></feMergeNode>
            </feMerge>
        </filter>
    </defs>
    <g id="Symbols" stroke="none" stroke-width="1" fill="none" fill-rule="evenodd">
        <g id="atoms/file-upload-attached-accent">
            <g id="atoms/button-raised-accent-icon">
                <g id="clip">
                    <use fill="black" fill-opacity="1" filter="url(#filter-2)" xlink:href="#path-1"></use>
                    <use fill="#039BE5" fill-rule="evenodd" xlink:href="#path-1"></use>
                </g>
                <text id="BUTTON" font-family=".AppleSystemUIFont" font-size="14" font-weight="normal" letter-spacing="-0.0269230772" fill="#FFFFFF">
                    <tspan x="38" y="24">filename.sql</tspan>
                </text>
            </g>
            <g id="cancel-red-copy-2" transform="translate(134.000000, 24.000000)" fill="#E6402B">
                <path d="M10,0 C4.47,0 0,4.47 0,10 C0,15.53 4.47,20 10,20 C15.53,20 20,15.53 20,10 C20,4.47 15.53,0 10,0 Z M15,13.59 L13.59,15 L10,11.41 L6.41,15 L5,13.59 L8.59,10 L5,6.41 L6.41,5 L10,8.59 L13.59,5 L15,6.41 L11.41,10 L15,13.59 Z" id="Shape"></path>
            </g>
            <g id="file_upload-copy-2" transform="translate(14.000000, 10.000000)" fill="#FFFFFF">
                <path d="M4,13 L10,13 L10,7 L14,7 L7,0 L0,7 L4,7 L4,13 Z M0,15 L14,15 L14,17 L0,17 L0,15 Z" id="Shape"></path>
            </g>
        </g>
    </g>
</svg>