<?xml version="1.0" encoding="UTF-8" standalone="no"?>
<svg width="145px" height="36px" viewBox="0 0 145 36" version="1.1" xmlns="http://www.w3.org/2000/svg" xmlns:xlink="http://www.w3.org/1999/xlink">
    <!-- Generator: Sketch 46.2 (44496) - http://www.bohemiancoding.com/sketch -->
    <title>atoms/file-upload-primary</title>
    <desc>Created with Sketch.</desc>
    <defs>
        <rect id="path-1" x="0" y="0" width="145" height="36" rx="3"></rect>
        <filter x="-14.5%" y="-47.2%" width="129.0%" height="216.7%" filterUnits="objectBoundingBox" id="filter-2">
            <feOffset dx="0" dy="2" in="SourceAlpha" result="shadowOffsetOuter1"></feOffset>
            <feGaussianBlur stdDeviation="2.5" in="shadowOffsetOuter1" result="shadowBlurOuter1"></feGaussianBlur>
            <feColorMatrix values="0 0 0 0 0   0 0 0 0 0   0 0 0 0 0  0 0 0 0.26 0" type="matrix" in="shadowBlurOuter1" result="shadowMatrixOuter1"></feColorMatrix>
            <feOffset dx="0" dy="2" in="SourceAlpha" result="shadowOffsetOuter2"></feOffset>
            <feGaussianBlur stdDeviation="5" in="shadowOffsetOuter2" result="shadowBlurOuter2"></feGaussianBlur>
            <feColorMatrix values="0 0 0 0 0   0 0 0 0 0   0 0 0 0 0  0 0 0 0.16 0" type="matrix" in="shadowBlurOuter2" result="shadowMatrixOuter2"></feColorMatrix>
            <feMerge>
                <feMergeNode in="shadowMatrixOuter1"></feMergeNode>
                <feMergeNode in="shadowMatrixOuter2"></feMergeNode>
            </feMerge>
        </filter>
    </defs>
    <g id="Symbols" stroke="none" stroke-width="1" fill="none" fill-rule="evenodd">
        <g id="atoms/file-upload-primary">
            <g id="atoms/button-raised-primary-icon">
                <g id="clip">
                    <use fill="black" fill-opacity="1" filter="url(#filter-2)" xlink:href="#path-1"></use>
                    <use fill="#F57C00" fill-rule="evenodd" xlink:href="#path-1"></use>
                </g>
                <text id="BUTTON" font-family=".AppleSystemUIFont" font-size="14" font-weight="normal" letter-spacing="-0.0269230772" fill="#FFFFFF">
                    <tspan x="38" y="24">Choose a File...</tspan>
                </text>
            </g>
            <g id="attachment" transform="translate(11.000000, 13.000000)" fill="#FFFFFF">
                <path d="M0,5.5 C0,2.46 2.46,0 5.5,0 L16,0 C18.21,0 20,1.79 20,4 C20,6.21 18.21,8 16,8 L7.5,8 C6.11928813,8 5,6.88071187 5,5.5 C5,4.11928813 6.11928813,3 7.5,3 L15,3 L15,5 L7.41,5 C6.86,5 6.86,6 7.41,6 L16,6 C17.1,6 18,5.1 18,4 C18,2.9 17.1,2 16,2 L5.5,2 C3.57,2 2,3.57 2,5.5 C2,7.43 3.57,9 5.5,9 L15,9 L15,11 L5.5,11 C2.46,11 0,8.54 0,5.5 Z" id="Shape"></path>
            </g>
        </g>
    </g>
</svg>