<?xml version="1.0" encoding="UTF-8" standalone="no"?>
<svg width="360px" height="70px" viewBox="0 0 360 70" version="1.1" xmlns="http://www.w3.org/2000/svg" xmlns:xlink="http://www.w3.org/1999/xlink">
    <!-- Generator: Sketch 46.2 (44496) - http://www.bohemiancoding.com/sketch -->
    <title>atoms/list-item-contact-primary</title>
    <desc>Created with Sketch.</desc>
    <defs></defs>
    <g id="Symbols" stroke="none" stroke-width="1" fill="none" fill-rule="evenodd">
        <g id="atoms/list-item-contact-primary">
            <text id="Item-Name" font-family=".AppleSystemUIFont" font-size="16" font-weight="normal" fill-opacity="0.87" fill="#000000">
                <tspan x="71" y="41">Item Name</tspan>
            </text>
            <path d="M344,27 C344,25.9 343.1,25 342,25 L326,25 C324.9,25 324,25.9 324,27 L324,39 C324,40.1 324.9,41 326,41 L340,41 L344,45 L344,27 L344,27 Z M340,37 L328,37 L328,35 L340,35 L340,37 L340,37 Z M340,34 L328,34 L328,32 L340,32 L340,34 L340,34 Z M340,31 L328,31 L328,29 L340,29 L340,31 L340,31 Z" id="Shape-Copy-3" fill="#F16C00"></path>
            <circle id="avatar" fill="#F5F5F5" cx="36" cy="35" r="20"></circle>
        </g>
    </g>
</svg>