<?xml version="1.0" encoding="UTF-8" standalone="no"?>
<svg width="28px" height="30px" viewBox="0 0 28 30" version="1.1" xmlns="http://www.w3.org/2000/svg" xmlns:xlink="http://www.w3.org/1999/xlink">
    <!-- Generator: Sketch 46.2 (44496) - http://www.bohemiancoding.com/sketch -->
    <title>atoms/notification-icon-count</title>
    <desc>Created with Sketch.</desc>
    <defs>
        <circle id="path-1" cx="18" cy="10" r="10"></circle>
        <filter x="-17.5%" y="-12.5%" width="135.0%" height="135.0%" filterUnits="objectBoundingBox" id="filter-2">
            <feOffset dx="0" dy="1" in="SourceAlpha" result="shadowOffsetOuter1"></feOffset>
            <feGaussianBlur stdDeviation="1" in="shadowOffsetOuter1" result="shadowBlurOuter1"></feGaussianBlur>
            <feColorMatrix values="0 0 0 0 0   0 0 0 0 0   0 0 0 0 0  0 0 0 0.24 0" type="matrix" in="shadowBlurOuter1"></feColorMatrix>
        </filter>
    </defs>
    <g id="Symbols" stroke="none" stroke-width="1" fill="none" fill-rule="evenodd">
        <g id="atoms/notification-icon-count">
            <g id="notifications" transform="translate(0.000000, 10.000000)" fill="#FFFFFF">
                <path d="M8,20 C9.1,20 10,19.1 10,18 L6,18 C6,19.1045695 6.8954305,20 8,20 Z M14,14 L14,9 C14,5.93 12.36,3.36 9.5,2.68 L9.5,2 C9.5,1.17 8.83,0.5 8,0.5 C7.17,0.5 6.5,1.17 6.5,2 L6.5,2.68 C3.63,3.36 2,5.92 2,9 L2,14 L0,16 L0,17 L16,17 L16,16 L14,14 Z" id="Shape"></path>
            </g>
            <g id="Oval">
                <use fill="black" fill-opacity="1" filter="url(#filter-2)" xlink:href="#path-1"></use>
                <use fill="#E6402B" fill-rule="evenodd" xlink:href="#path-1"></use>
            </g>
            <text id="#" font-family=".AppleSystemUIFont" font-size="10" font-weight="normal" letter-spacing="-0.0192307699" fill="#FFFFFF">
                <tspan x="15" y="15">9</tspan>
            </text>
        </g>
    </g>
</svg>