<?xml version="1.0" encoding="UTF-8" standalone="no"?>
<svg width="740px" height="55px" viewBox="0 0 740 55" version="1.1" xmlns="http://www.w3.org/2000/svg" xmlns:xlink="http://www.w3.org/1999/xlink">
    <!-- Generator: Sketch 46.2 (44496) - http://www.bohemiancoding.com/sketch -->
    <title>atoms/slider-discrete</title>
    <desc>Created with Sketch.</desc>
    <defs>
        <path d="M372,41 L372,53 L375,50 L377.5,55 L378.5,55 C378.5,55 379.14566,54.3495845 379,54 C378.312327,52.3495845 376.5,49 376.5,49 L380,49 L372,41 Z" id="path-1"></path>
        <filter x="-75.0%" y="-35.7%" width="250.0%" height="185.7%" filterUnits="objectBoundingBox" id="filter-2">
            <feMorphology radius="1" operator="dilate" in="SourceAlpha" result="shadowSpreadOuter1"></feMorphology>
            <feOffset dx="0" dy="1" in="shadowSpreadOuter1" result="shadowOffsetOuter1"></feOffset>
            <feGaussianBlur stdDeviation="1.5" in="shadowOffsetOuter1" result="shadowBlurOuter1"></feGaussianBlur>
            <feComposite in="shadowBlurOuter1" in2="SourceAlpha" operator="out" result="shadowBlurOuter1"></feComposite>
            <feColorMatrix values="0 0 0 0 0   0 0 0 0 0   0 0 0 0 0  0 0 0 1 0" type="matrix" in="shadowBlurOuter1"></feColorMatrix>
        </filter>
    </defs>
    <g id="Symbols" stroke="none" stroke-width="1" fill="none" fill-rule="evenodd">
        <g id="atoms/slider-discrete">
            <g id="slider" transform="translate(1.000000, 33.000000)">
                <rect id="sliderContainer" fill="#C8C8C8" x="0" y="6" width="738" height="2"></rect>
                <rect id="activeProgress" fill="#039BE5" x="0" y="6" width="366" height="2"></rect>
                <path d="M370,12 C373.313708,12 376,9.3137085 376,6 C376,2.6862915 373.313708,0 370,0 C366.686292,0 364,2.6862915 364,6 C364,9.3137085 366.686292,12 370,12 Z" id="sliderKnob" fill="#039BE5"></path>
            </g>
            <g id="default-2">
                <use fill="black" fill-opacity="1" filter="url(#filter-2)" xlink:href="#path-1"></use>
                <use fill="#000000" fill-rule="evenodd" xlink:href="#path-1"></use>
                <path stroke="#FFFFFF" stroke-width="1" d="M377.333861,49.5 C377.346808,49.5244526 377.359965,49.5493185 377.373325,49.5745859 C377.69812,50.1888684 378.022949,50.8144029 378.326375,51.4144041 C378.404627,51.5693945 378.404627,51.5693945 378.482628,51.7249777 C378.909089,52.5772237 379.244148,53.2859561 379.461538,53.8076923 C379.57044,54.0690556 379.527252,54.3338139 379.3979,54.6062776 C379.337167,54.7342044 379.25736,54.861622 379.162768,54.9895812 C379.048394,55.1443006 378.935637,55.2708698 378.854848,55.3522538 L378.708182,55.5 L377.190983,55.5 L374.863024,50.8440825 L371.5,54.2071068 L371.5,39.7928932 L381.207107,49.5 L377.333861,49.5 Z"></path>
            </g>
            <g id="snaps" transform="translate(0.000000, 39.000000)" fill="#000000">
                <rect id="slider-marker" x="0" y="0" width="2" height="2" rx="1"></rect>
                <rect id="slider-marker" x="73" y="0" width="2" height="2" rx="1"></rect>
                <rect id="slider-marker" x="147" y="0" width="2" height="2" rx="1"></rect>
                <rect id="slider-marker" x="220" y="0" width="2" height="2" rx="1"></rect>
                <rect id="slider-marker" x="295" y="0" width="2" height="2" rx="1"></rect>
                <rect id="slider-marker" x="441" y="0" width="2" height="2" rx="1"></rect>
                <rect id="slider-marker" x="516" y="0" width="2" height="2" rx="1"></rect>
                <rect id="slider-marker" x="590" y="0" width="2" height="2" rx="1"></rect>
                <rect id="slider-marker" x="664" y="0" width="2" height="2" rx="1"></rect>
                <rect id="slider-marker" x="738" y="0" width="2" height="2" rx="1"></rect>
            </g>
            <g id="pin-expand" transform="translate(358.000000, 0.000000)">
                <path d="M4.85343518,23.1314033 C1.89379463,20.7485541 0,17.0954368 0,13 C0,5.82029825 5.82029825,0 13,0 C20.1797017,0 26,5.82029825 26,13 C26,16.9348583 24.2518019,20.4614031 21.4897338,22.8453064 L13.1543056,31.1381475 L4.85343518,23.1314033 Z" id="pin" fill="#039BE5"></path>
                <text id="5" font-family=".AppleSystemUIFont" font-size="10" font-weight="normal" fill="#FFFFFF">
                    <tspan x="10" y="18">5</tspan>
                </text>
            </g>
        </g>
    </g>
</svg>