<?xml version="1.0" encoding="UTF-8" standalone="no"?>
<svg width="706px" height="56px" viewBox="0 0 706 56" version="1.1" xmlns="http://www.w3.org/2000/svg" xmlns:xlink="http://www.w3.org/1999/xlink">
    <!-- Generator: Sketch 46.2 (44496) - http://www.bohemiancoding.com/sketch -->
    <title>molecules/bottom-navigation</title>
    <desc>Created with Sketch.</desc>
    <defs>
        <rect id="path-1" x="0" y="0" width="706" height="56" rx="2"></rect>
        <filter x="-1.1%" y="-18.8%" width="102.1%" height="126.8%" filterUnits="objectBoundingBox" id="filter-2">
            <feOffset dx="0" dy="-1" in="SourceAlpha" result="shadowOffsetOuter1"></feOffset>
            <feGaussianBlur stdDeviation="1" in="shadowOffsetOuter1" result="shadowBlurOuter1"></feGaussianBlur>
            <feColorMatrix values="0 0 0 0 0   0 0 0 0 0   0 0 0 0 0  0 0 0 0.11 0" type="matrix" in="shadowBlurOuter1" result="shadowMatrixOuter1"></feColorMatrix>
            <feOffset dx="0" dy="-2" in="SourceAlpha" result="shadowOffsetOuter2"></feOffset>
            <feGaussianBlur stdDeviation="1.5" in="shadowOffsetOuter2" result="shadowBlurOuter2"></feGaussianBlur>
            <feColorMatrix values="0 0 0 0 0   0 0 0 0 0   0 0 0 0 0  0 0 0 0.05 0" type="matrix" in="shadowBlurOuter2" result="shadowMatrixOuter2"></feColorMatrix>
            <feMerge>
                <feMergeNode in="shadowMatrixOuter1"></feMergeNode>
                <feMergeNode in="shadowMatrixOuter2"></feMergeNode>
            </feMerge>
        </filter>
    </defs>
    <g id="Symbols" stroke="none" stroke-width="1" fill="none" fill-rule="evenodd">
        <g id="molecules/bottom-navigation">
            <g id="Rectangle-44-Copy-7">
                <use fill="black" fill-opacity="1" filter="url(#filter-2)" xlink:href="#path-1"></use>
                <use fill="#F16C00" fill-rule="evenodd" xlink:href="#path-1"></use>
            </g>
            <g id="atoms/bottom-nav-item" transform="translate(437.000000, 0.000000)" fill="#F16C00">
                <rect id="Rectangle-46-Copy-3" x="0" y="0" width="94" height="56"></rect>
            </g>
            <g id="atoms/bottom-nav-item" transform="translate(195.000000, 0.000000)" fill="#F16C00">
                <rect id="Rectangle-46-Copy-3" x="0" y="0" width="94" height="56"></rect>
            </g>
            <g id="atoms/bottom-nav-item-active" transform="translate(269.000000, 0.000000)">
                <rect id="Rectangle-46-Copy-2" fill="#F16C00" fill-rule="evenodd" x="0" y="0" width="168" height="56"></rect>
                <text id="Item-Label-Copy" font-family=".AppleSystemUIFont" font-size="14" font-weight="normal" fill="#FFFFFF">
                    <tspan x="69.7949219" y="47">Item </tspan>
                    <tspan x="66.4760742" y="64">Label</tspan>
                </text>
            </g>
            <path d="M353,27.4 L351.6,26 C346.4,21.4 343,18.3 343,14.5 C343,11.4 345.4,9 348.5,9 C350.2,9 351.9,9.8 353,11.1 C354.1,9.8 355.8,9 357.5,9 C360.6,9 363,11.4 363,14.5 C363,18.3 359.6,21.4 354.4,26 L353,27.4 L353,27.4 Z" id="Shape-Copy-2" fill="#FFFFFF"></path>
            <path d="M250.3,20.7 L248.7,19 L247,20.7 L245.3,19 L243.6,20.7 L242,19 L240.3,20.7 L238.7,19 L237,20.7 L235.3,19 L233.7,20.7 L232,19 L232,35 C232,36.1 232.9,37 234,37 L250,37 C251.1,37 252,36.1 252,35 L252,19 L250.3,20.7 L250.3,20.7 Z M242,35 L234,35 L234,28 L242,28 L242,35 L242,35 Z M250,35 L243,35 L243,34 L250,34 L250,35 L250,35 Z M250,33 L243,33 L243,32 L250,32 L250,33 L250,33 Z M250,31 L243,31 L243,30 L250,30 L250,31 L250,31 Z M250,29 L243,29 L243,28 L250,28 L250,29 L250,29 Z M250,27 L234,27 L234,24 L250,24 L250,27 L250,27 Z" id="Shape-Copy" fill-opacity="0.54" fill="#FFFFFF"></path>
            <path d="M492,20.4 C491.4,20.2 487.7,20 484,20 C480.3,20 476.6,20.2 476,20.4 C474.4,20.9 474,24.4 474,28 C474,31.6 474.4,35.1 476,35.6 C476.6,35.8 480.3,36 484,36 C487.7,36 491.4,35.8 492,35.6 C493.6,35.1 494,31.6 494,28 C494,24.4 493.6,20.9 492,20.4 L492,20.4 Z M482,32.5 L482,23.5 L488,28 L482,32.5 L482,32.5 Z" id="Shape-Copy-4" fill-opacity="0.54" fill="#FFFFFF"></path>
        </g>
    </g>
</svg>