<?xml version="1.0" encoding="UTF-8" standalone="no"?>
<svg width="485px" height="479px" viewBox="0 0 485 479" version="1.1" xmlns="http://www.w3.org/2000/svg" xmlns:xlink="http://www.w3.org/1999/xlink">
    <!-- Generator: Sketch 46.2 (44496) - http://www.bohemiancoding.com/sketch -->
    <title>molecules/list-contacts</title>
    <desc>Created with Sketch.</desc>
    <defs></defs>
    <g id="Symbols" stroke="none" stroke-width="1" fill="none" fill-rule="evenodd">
        <g id="molecules/list-contacts">
            <g id="atoms/divider" transform="translate(53.000000, 134.000000)" fill="#000000" fill-opacity="0.12">
                <rect id="divider" x="0" y="0" width="432" height="1" rx="0.5"></rect>
            </g>
            <g id="atoms/list-item" transform="translate(1.000000, 0.000000)">
                <g id="Group">
                    <path d="M3.6,17.8 C5,20.6 7.4,22.9 10.2,24.4 L12.4,22.2 C12.7,21.9 13.1,21.8 13.4,22 C14.5,22.4 15.7,22.6 17,22.6 C17.6,22.6 18,23 18,23.6 L18,27 C18,27.6 17.6,28 17,28 C7.6,28 0,20.4 0,11 C0,10.4 0.4,10 1,10 L4.5,10 C5.1,10 5.5,10.4 5.5,11 C5.5,12.2 5.7,13.4 6.1,14.6 C6.2,14.9 6.1,15.3 5.9,15.6 L3.6,17.8 L3.6,17.8 Z" id="call" fill="#F16C00"></path>
                    <g id="list-item-2-line" transform="translate(52.000000, 0.000000)" font-family=".AppleSystemUIFont" font-weight="normal">
                        <text id="(650)-556" font-size="16" letter-spacing="-0.100000001" fill="#4D4D4E">
                            <tspan x="0" y="15">(650) 555-1234</tspan>
                        </text>
                        <text id="Mobile-2" font-size="14" letter-spacing="-0.107692309" fill="#999999">
                            <tspan x="0" y="36">Mobile</tspan>
                        </text>
                    </g>
                </g>
            </g>
            <g id="list-item-2-line" transform="translate(53.000000, 72.000000)" font-family=".AppleSystemUIFont" font-weight="normal">
                <text id="(323)-556" font-size="16" letter-spacing="-0.100000001" fill="#4D4D4E">
                    <tspan x="0" y="15">(323) 555-6789</tspan>
                </text>
                <text id="Work-2" font-size="14" letter-spacing="-0.107692309" fill="#999999">
                    <tspan x="0" y="36">Work</tspan>
                </text>
            </g>
            <g id="Group-2" transform="translate(0.000000, 158.000000)">
                <path d="M18,10 L2,10 C0.9,10 0,10.9 0,12 L0,24 C0,25.1 0.9,26 2,26 L18,26 C19.1,26 20,25.1 20,24 L20,12 C20,10.9 19.1,10 18,10 L18,10 Z M18,14 L10,19 L2,14 L2,12 L10,17 L18,12 L18,14 L18,14 Z" id="email" fill="#F16C00"></path>
                <g id="list-item-2-line" transform="translate(53.000000, 0.000000)" font-family=".AppleSystemUIFont" font-weight="normal">
                    <text id="aliconnors@example.c-2" font-size="16" letter-spacing="-0.100000001" fill="#4D4D4E">
                        <tspan x="0" y="15">aliconnors@example.com</tspan>
                    </text>
                    <text id="Personal-2" font-size="14" letter-spacing="-0.107692309" fill="#999999">
                        <tspan x="0" y="36">Personal</tspan>
                    </text>
                </g>
            </g>
            <g id="list-item-2-line" transform="translate(53.000000, 230.000000)" font-family=".AppleSystemUIFont" font-weight="normal">
                <text id="ali_connors@example.-2" font-size="16" letter-spacing="-0.100000001" fill="#4D4D4E">
                    <tspan x="0" y="15">ali_connors@example.com</tspan>
                </text>
                <text id="Work-3" font-size="14" letter-spacing="-0.107692309" fill="#999999">
                    <tspan x="0" y="36">Work</tspan>
                </text>
            </g>
            <g id="Group" transform="translate(3.000000, 316.000000)">
                <path d="M7,6 C3.1,6 0,9.1 0,13 C0,18.2 7,26 7,26 C7,26 14,18.2 14,13 C14,9.1 10.9,6 7,6 L7,6 Z M7,15.5 C5.6,15.5 4.5,14.4 4.5,13 C4.5,11.6 5.6,10.5 7,10.5 C8.4,10.5 9.5,11.6 9.5,13 C9.5,14.4 8.4,15.5 7,15.5 L7,15.5 Z" id="place" fill="#F16C00"></path>
                <g id="list-item-3-line" transform="translate(50.000000, 0.000000)" font-family=".AppleSystemUIFont" font-weight="normal">
                    <text id="2000-SW-1st-Ave-2" font-size="16" letter-spacing="-0.100000001" fill="#4D4D4E">
                        <tspan x="0" y="15">2000 SW 1st Ave</tspan>
                        <tspan x="0" y="33">San Francisco, CA 94112</tspan>
                    </text>
                    <text id="Home-2" font-size="14" letter-spacing="-0.107692309" fill="#999999">
                        <tspan x="0" y="58">Home</tspan>
                    </text>
                </g>
            </g>
            <g id="list-item-3-line" transform="translate(53.000000, 402.000000)" font-family=".AppleSystemUIFont" font-weight="normal">
                <text id="1600-Amphitheatre-Pk-2" font-size="16" letter-spacing="-0.100000001" fill="#4D4D4E">
                    <tspan x="0" y="15">1600 Amphitheatre Pkwy</tspan>
                    <tspan x="0" y="33">Mountain View, CA 94043</tspan>
                </text>
                <text id="Work-4" font-size="14" letter-spacing="-0.107692309" fill="#999999">
                    <tspan x="0" y="59">Work</tspan>
                </text>
            </g>
            <g id="atoms/divider" transform="translate(53.000000, 292.000000)" fill="#000000" fill-opacity="0.12">
                <rect id="divider" x="0" y="0" width="432" height="1" rx="0.5"></rect>
            </g>
        </g>
    </g>
</svg>