<?xml version="1.0" encoding="UTF-8" standalone="no"?>
<svg width="713px" height="720px" viewBox="0 0 713 720" version="1.1" xmlns="http://www.w3.org/2000/svg" xmlns:xlink="http://www.w3.org/1999/xlink">
    <!-- Generator: Sketch 46.2 (44496) - http://www.bohemiancoding.com/sketch -->
    <title>organisms/data-table</title>
    <desc>Created with Sketch.</desc>
    <defs>
        <rect id="path-1" x="0" y="0" width="713" height="720"></rect>
        <filter x="-1.4%" y="-1.1%" width="102.8%" height="102.8%" filterUnits="objectBoundingBox" id="filter-2">
            <feOffset dx="0" dy="1" in="SourceAlpha" result="shadowOffsetOuter1"></feOffset>
            <feGaussianBlur stdDeviation="2.5" in="shadowOffsetOuter1" result="shadowBlurOuter1"></feGaussianBlur>
            <feColorMatrix values="0 0 0 0 0   0 0 0 0 0   0 0 0 0 0  0 0 0 0.13 0" type="matrix" in="shadowBlurOuter1" result="shadowMatrixOuter1"></feColorMatrix>
            <feOffset dx="0" dy="1" in="SourceAlpha" result="shadowOffsetOuter2"></feOffset>
            <feGaussianBlur stdDeviation="1" in="shadowOffsetOuter2" result="shadowBlurOuter2"></feGaussianBlur>
            <feColorMatrix values="0 0 0 0 0   0 0 0 0 0   0 0 0 0 0  0 0 0 0.2 0" type="matrix" in="shadowBlurOuter2" result="shadowMatrixOuter2"></feColorMatrix>
            <feMerge>
                <feMergeNode in="shadowMatrixOuter1"></feMergeNode>
                <feMergeNode in="shadowMatrixOuter2"></feMergeNode>
            </feMerge>
        </filter>
        <rect id="path-3" x="43" y="196" width="24" height="24"></rect>
        <rect id="path-4" x="347" y="192" width="56" height="56"></rect>
    </defs>
    <g id="Symbols" stroke="none" stroke-width="1" fill="none" fill-rule="evenodd">
        <g id="organisms/data-table">
            <g id="container">
                <use fill="black" fill-opacity="1" filter="url(#filter-2)" xlink:href="#path-1"></use>
                <use fill="#FFFFFF" fill-rule="evenodd" xlink:href="#path-1"></use>
            </g>
            <g id="arrow-drop-down" transform="translate(632.000000, 686.000000)">
                <g id="keyboard-arrow-left"></g>
                <g id="keyboard-arrow-right" transform="translate(49.000000, 0.000000)"></g>
            </g>
            <g id="sort" transform="translate(631.000000, 27.000000)" fill-opacity="0.54" fill="#000000">
                <path d="M6,12 L12,12 L12,10 L6,10 L6,12 L6,12 Z M0,0 L0,2 L18,2 L18,0 L0,0 L0,0 Z M3,7 L15,7 L15,5 L3,5 L3,7 L3,7 Z" id="Shape"></path>
            </g>
            <text id="Card-Heading" font-family=".SFNSDisplay-Regular, .SF NS Display" font-size="20" font-weight="normal" fill-opacity="0.87" fill="#000000">
                <tspan x="26" y="36.5">Card Heading</tspan>
            </text>
            <g id="Rectangle-141">
                <use fill="#D8D8D8" fill-rule="evenodd" xlink:href="#path-3"></use>
                <rect stroke="#979797" stroke-width="1" x="43.5" y="196.5" width="23" height="23"></rect>
            </g>
            <g id="Rectangle-141-Copy">
                <use fill="#D8D8D8" fill-rule="evenodd" xlink:href="#path-4"></use>
                <rect stroke="#979797" stroke-width="1" x="347.5" y="192.5" width="55" height="55"></rect>
            </g>
            <g id="table-row" transform="translate(0.000000, 170.000000)">
                <rect id="Rectangle-145-Copy" fill="#FFFFFF" x="1" y="0.5" width="712" height="49"></rect>
                <text id="Table-content" font-family=".AppleSystemUIFont" font-size="13" font-weight="normal" fill-opacity="0.87" fill="#000000">
                    <tspan x="113.233398" y="32">Table </tspan>
                    <tspan x="99.6303711" y="48">content</tspan>
                </text>
                <text id="159" font-family=".AppleSystemUIFont" font-size="13" font-weight="normal" fill-opacity="0.87" fill="#000000">
                    <tspan x="333.047852" y="32">15</tspan>
                    <tspan x="338.79248" y="48">9</tspan>
                </text>
                <text id="6.0" font-family=".AppleSystemUIFont" font-size="13" font-weight="normal" fill-opacity="0.87" fill="#000000">
                    <tspan x="473.961426" y="32">6.</tspan>
                    <tspan x="476.887695" y="48">0</tspan>
                </text>
                <text id="24" font-family=".AppleSystemUIFont" font-size="13" font-weight="normal" fill-opacity="0.87" fill="#000000">
                    <tspan x="586.414551" y="32">2</tspan>
                    <tspan x="585.709961" y="48">4</tspan>
                </text>
                <text id="4.0" font-family=".AppleSystemUIFont" font-size="13" font-weight="normal" fill-opacity="0.87" fill="#000000">
                    <tspan x="680.878906" y="32">4.</tspan>
                    <tspan x="683.887695" y="48">0</tspan>
                </text>
                <g id="atoms/checkbox-off" fill="#000000" transform="translate(22.000000, 14.000000)">
                    <rect id="bounds" fill="none" x="0" y="0" width="24" height="24"></rect>
                    <path d="M19,5 L19,19 L5,19 L5,5 L19,5 L19,5 Z M19,3 L5,3 C3.9,3 3,3.9 3,5 L3,19 C3,20.1 3.9,21 5,21 L19,21 C20.1,21 21,20.1 21,19 L21,5 C21,3.9 20.1,3 19,3 L19,3 L19,3 Z" id="Shape" fill="#010101" opacity="0.54"></path>
                </g>
                <path d="M0.5,50 L712.5,50" id="Line-Copy" stroke="#E0E0E0" stroke-linecap="square"></path>
            </g>
            <g id="table-row-copy-4" transform="translate(0.000000, 370.000000)">
                <rect id="Rectangle-145-Copy" fill="#FFFFFF" x="1" y="0.5" width="712" height="49"></rect>
                <text id="Table-content" font-family=".AppleSystemUIFont" font-size="13" font-weight="normal" fill-opacity="0.87" fill="#000000">
                    <tspan x="113.233398" y="32">Table </tspan>
                    <tspan x="99.6303711" y="48">content</tspan>
                </text>
                <text id="159" font-family=".AppleSystemUIFont" font-size="13" font-weight="normal" fill-opacity="0.87" fill="#000000">
                    <tspan x="333.047852" y="32">15</tspan>
                    <tspan x="338.79248" y="48">9</tspan>
                </text>
                <text id="6.0" font-family=".AppleSystemUIFont" font-size="13" font-weight="normal" fill-opacity="0.87" fill="#000000">
                    <tspan x="473.961426" y="32">6.</tspan>
                    <tspan x="476.887695" y="48">0</tspan>
                </text>
                <text id="24" font-family=".AppleSystemUIFont" font-size="13" font-weight="normal" fill-opacity="0.87" fill="#000000">
                    <tspan x="586.414551" y="32">2</tspan>
                    <tspan x="585.709961" y="48">4</tspan>
                </text>
                <text id="4.0" font-family=".AppleSystemUIFont" font-size="13" font-weight="normal" fill-opacity="0.87" fill="#000000">
                    <tspan x="680.878906" y="32">4.</tspan>
                    <tspan x="683.887695" y="48">0</tspan>
                </text>
                <g id="atoms/checkbox-off" fill="#000000" transform="translate(22.000000, 14.000000)">
                    <rect id="bounds" fill="none" x="0" y="0" width="24" height="24"></rect>
                    <path d="M19,5 L19,19 L5,19 L5,5 L19,5 L19,5 Z M19,3 L5,3 C3.9,3 3,3.9 3,5 L3,19 C3,20.1 3.9,21 5,21 L19,21 C20.1,21 21,20.1 21,19 L21,5 C21,3.9 20.1,3 19,3 L19,3 L19,3 Z" id="Shape" fill="#010101" opacity="0.54"></path>
                </g>
                <path d="M0.5,50 L712.5,50" id="Line-Copy" stroke="#E0E0E0" stroke-linecap="square"></path>
            </g>
            <g id="table-row-copy-2" transform="translate(0.000000, 270.000000)">
                <rect id="Rectangle-145-Copy" fill="#FFFFFF" x="1" y="0.5" width="712" height="49"></rect>
                <text id="Table-content" font-family=".AppleSystemUIFont" font-size="13" font-weight="normal" fill-opacity="0.87" fill="#000000">
                    <tspan x="113.233398" y="32">Table </tspan>
                    <tspan x="99.6303711" y="48">content</tspan>
                </text>
                <text id="159" font-family=".AppleSystemUIFont" font-size="13" font-weight="normal" fill-opacity="0.87" fill="#000000">
                    <tspan x="333.047852" y="32">15</tspan>
                    <tspan x="338.79248" y="48">9</tspan>
                </text>
                <text id="6.0" font-family=".AppleSystemUIFont" font-size="13" font-weight="normal" fill-opacity="0.87" fill="#000000">
                    <tspan x="473.961426" y="32">6.</tspan>
                    <tspan x="476.887695" y="48">0</tspan>
                </text>
                <text id="24" font-family=".AppleSystemUIFont" font-size="13" font-weight="normal" fill-opacity="0.87" fill="#000000">
                    <tspan x="586.414551" y="32">2</tspan>
                    <tspan x="585.709961" y="48">4</tspan>
                </text>
                <text id="4.0" font-family=".AppleSystemUIFont" font-size="13" font-weight="normal" fill-opacity="0.87" fill="#000000">
                    <tspan x="680.878906" y="32">4.</tspan>
                    <tspan x="683.887695" y="48">0</tspan>
                </text>
                <g id="atoms/checkbox-off" fill="#000000" transform="translate(22.000000, 14.000000)">
                    <rect id="bounds" fill="none" x="0" y="0" width="24" height="24"></rect>
                    <path d="M19,5 L19,19 L5,19 L5,5 L19,5 L19,5 Z M19,3 L5,3 C3.9,3 3,3.9 3,5 L3,19 C3,20.1 3.9,21 5,21 L19,21 C20.1,21 21,20.1 21,19 L21,5 C21,3.9 20.1,3 19,3 L19,3 L19,3 Z" id="Shape" fill="#010101" opacity="0.54"></path>
                </g>
                <path d="M0.5,50 L712.5,50" id="Line-Copy" stroke="#E0E0E0" stroke-linecap="square"></path>
            </g>
            <g id="table-row-copy-5" transform="translate(0.000000, 470.000000)">
                <rect id="Rectangle-145-Copy" fill="#FFFFFF" x="1" y="0.5" width="712" height="49"></rect>
                <text id="Table-content" font-family=".AppleSystemUIFont" font-size="13" font-weight="normal" fill-opacity="0.87" fill="#000000">
                    <tspan x="113.233398" y="32">Table </tspan>
                    <tspan x="99.6303711" y="48">content</tspan>
                </text>
                <text id="159" font-family=".AppleSystemUIFont" font-size="13" font-weight="normal" fill-opacity="0.87" fill="#000000">
                    <tspan x="333.047852" y="32">15</tspan>
                    <tspan x="338.79248" y="48">9</tspan>
                </text>
                <text id="6.0" font-family=".AppleSystemUIFont" font-size="13" font-weight="normal" fill-opacity="0.87" fill="#000000">
                    <tspan x="473.961426" y="32">6.</tspan>
                    <tspan x="476.887695" y="48">0</tspan>
                </text>
                <text id="24" font-family=".AppleSystemUIFont" font-size="13" font-weight="normal" fill-opacity="0.87" fill="#000000">
                    <tspan x="586.414551" y="32">2</tspan>
                    <tspan x="585.709961" y="48">4</tspan>
                </text>
                <text id="4.0" font-family=".AppleSystemUIFont" font-size="13" font-weight="normal" fill-opacity="0.87" fill="#000000">
                    <tspan x="680.878906" y="32">4.</tspan>
                    <tspan x="683.887695" y="48">0</tspan>
                </text>
                <g id="atoms/checkbox-off" fill="#000000" transform="translate(22.000000, 14.000000)">
                    <rect id="bounds" fill="none" x="0" y="0" width="24" height="24"></rect>
                    <path d="M19,5 L19,19 L5,19 L5,5 L19,5 L19,5 Z M19,3 L5,3 C3.9,3 3,3.9 3,5 L3,19 C3,20.1 3.9,21 5,21 L19,21 C20.1,21 21,20.1 21,19 L21,5 C21,3.9 20.1,3 19,3 L19,3 L19,3 Z" id="Shape" fill="#010101" opacity="0.54"></path>
                </g>
                <path d="M0.5,50 L712.5,50" id="Line-Copy" stroke="#E0E0E0" stroke-linecap="square"></path>
            </g>
            <g id="table-row-copy-8" transform="translate(0.000000, 570.000000)">
                <rect id="Rectangle-145-Copy" fill="#FFFFFF" x="1" y="0.5" width="712" height="49"></rect>
                <text id="Table-content" font-family=".AppleSystemUIFont" font-size="13" font-weight="normal" fill-opacity="0.87" fill="#000000">
                    <tspan x="113.233398" y="32">Table </tspan>
                    <tspan x="99.6303711" y="48">content</tspan>
                </text>
                <text id="159" font-family=".AppleSystemUIFont" font-size="13" font-weight="normal" fill-opacity="0.87" fill="#000000">
                    <tspan x="333.047852" y="32">15</tspan>
                    <tspan x="338.79248" y="48">9</tspan>
                </text>
                <text id="6.0" font-family=".AppleSystemUIFont" font-size="13" font-weight="normal" fill-opacity="0.87" fill="#000000">
                    <tspan x="473.961426" y="32">6.</tspan>
                    <tspan x="476.887695" y="48">0</tspan>
                </text>
                <text id="24" font-family=".AppleSystemUIFont" font-size="13" font-weight="normal" fill-opacity="0.87" fill="#000000">
                    <tspan x="586.414551" y="32">2</tspan>
                    <tspan x="585.709961" y="48">4</tspan>
                </text>
                <text id="4.0" font-family=".AppleSystemUIFont" font-size="13" font-weight="normal" fill-opacity="0.87" fill="#000000">
                    <tspan x="680.878906" y="32">4.</tspan>
                    <tspan x="683.887695" y="48">0</tspan>
                </text>
                <g id="atoms/checkbox-off" fill="#000000" transform="translate(22.000000, 14.000000)">
                    <rect id="bounds" fill="none" x="0" y="0" width="24" height="24"></rect>
                    <path d="M19,5 L19,19 L5,19 L5,5 L19,5 L19,5 Z M19,3 L5,3 C3.9,3 3,3.9 3,5 L3,19 C3,20.1 3.9,21 5,21 L19,21 C20.1,21 21,20.1 21,19 L21,5 C21,3.9 20.1,3 19,3 L19,3 L19,3 Z" id="Shape" fill="#010101" opacity="0.54"></path>
                </g>
                <path d="M0.5,50 L712.5,50" id="Line-Copy" stroke="#E0E0E0" stroke-linecap="square"></path>
            </g>
            <g id="table-heading" transform="translate(0.000000, 117.000000)">
                <rect id="Rectangle-145" fill="#FFFFFF" x="1" y="0" width="712" height="54"></rect>
                <g id="atoms/checkbox-off" fill="#000000" transform="translate(22.000000, 16.000000)">
                    <rect id="bounds" fill="none" x="0" y="0" width="24" height="24"></rect>
                    <path d="M19,5 L19,19 L5,19 L5,5 L19,5 L19,5 Z M19,3 L5,3 C3.9,3 3,3.9 3,5 L3,19 C3,20.1 3.9,21 5,21 L19,21 C20.1,21 21,20.1 21,19 L21,5 C21,3.9 20.1,3 19,3 L19,3 L19,3 Z" id="Shape" fill="#010101" opacity="0.54"></path>
                </g>
                <text id="Column-Heading" font-family=".AppleSystemUIFont" font-size="12" font-weight="normal" fill-opacity="0.54" fill="#000000">
                    <tspan x="67" y="32">Column Heading</tspan>
                </text>
                <text id="Calories" font-family=".AppleSystemUIFont" font-size="12" font-weight="normal" fill-opacity="0.54" fill="#000000">
                    <tspan x="302" y="32">Calories</tspan>
                </text>
                <text id="Fat-(g)" font-family=".AppleSystemUIFont" font-size="12" font-weight="normal" fill-opacity="0.54" fill="#000000">
                    <tspan x="450" y="32">Fat (g)</tspan>
                </text>
                <text id="Carbs-(g)" font-family=".AppleSystemUIFont" font-size="12" font-weight="normal" fill-opacity="0.54" fill="#000000">
                    <tspan x="544" y="32">Carbs (g)</tspan>
                </text>
                <text id="Protein-(g)" font-family=".AppleSystemUIFont" font-size="12" font-weight="normal" fill-opacity="0.54" fill="#000000">
                    <tspan x="635" y="32">Protein (g)</tspan>
                </text>
                <path d="M0.5,54.5 L712.5,54.5" id="Line" stroke="#E0E0E0" stroke-linecap="square"></path>
            </g>
            <rect id="Rectangle-145" fill="#FFF3E0" x="1" y="62" width="712" height="54"></rect>
            <g id="more-vert" transform="translate(683.000000, 25.000000)" fill-opacity="0.54" fill="#000000">
                <path d="M2,60 C3.1,60 4,59.1 4,58 C4,56.9 3.1,56 2,56 C0.9,56 0,56.9 0,58 C0,59.1 0.9,60 2,60 L2,60 Z M2,62 C0.9,62 0,62.9 0,64 C0,65.1 0.9,66 2,66 C3.1,66 4,65.1 4,64 C4,62.9 3.1,62 2,62 L2,62 Z M2,68 C0.9,68 0,68.9 0,70 C0,71.1 0.9,72 2,72 C3.1,72 4,71.1 4,70 C4,68.9 3.1,68 2,68 L2,68 Z" id="Shape"></path>
                <path d="M3,4 C4.1,4 5,3.1 5,2 C5,0.9 4.1,0 3,0 C1.9,0 1,0.9 1,2 C1,3.1 1.9,4 3,4 L3,4 Z M3,6 C1.9,6 1,6.9 1,8 C1,9.1 1.9,10 3,10 C4.1,10 5,9.1 5,8 C5,6.9 4.1,6 3,6 L3,6 Z M3,12 C1.9,12 1,12.9 1,14 C1,15.1 1.9,16 3,16 C4.1,16 5,15.1 5,14 C5,12.9 4.1,12 3,12 L3,12 Z" id="Shape-Copy"></path>
            </g>
            <g id="delete" transform="translate(631.000000, 79.000000)" fill-opacity="0.54" fill="#000000">
                <path d="M1,16 C1,17.1 1.9,18 3,18 L11,18 C12.1,18 13,17.1 13,16 L13,4 L1,4 L1,16 L1,16 Z M14,1 L10.5,1 L9.5,0 L4.5,0 L3.5,1 L0,1 L0,3 L14,3 L14,1 L14,1 Z" id="Shape"></path>
            </g>
            <text id="1-item-selected" font-family=".AppleSystemUIFont" font-size="15" font-weight="normal" fill="#F57C00">
                <tspan x="26" y="95">1 item selected</tspan>
            </text>
            <path d="M0.5,116.5 L712.5,116.5" id="Line" stroke="#E0E0E0" stroke-linecap="square"></path>
            <g id="table-row-copy" transform="translate(0.000000, 220.000000)">
                <rect id="Rectangle-145-Copy" fill="#E8E8E8" x="1" y="0.5" width="712" height="49"></rect>
                <g id="atoms/checkbox-on" transform="translate(22.062500, 14.992188)">
                    <rect id="bounds" x="0" y="0" width="24" height="24"></rect>
                    <path d="M19,3 L5,3 C3.9,3 3,3.9 3,5 L3,19 C3,20.1 3.9,21 5,21 L19,21 C20.1,21 21,20.1 21,19 L21,5 C21,3.9 20.1,3 19,3 L19,3 Z M10,17 L5,12.1923077 L6.4,10.8461538 L10,14.3076923 L17.6,7 L19,8.34615385 L10,17 L10,17 Z" id="Shape" fill="#039BE5" fill-rule="evenodd"></path>
                </g>
                <text id="Table-content" font-family=".AppleSystemUIFont" font-size="13" font-weight="normal" fill-opacity="0.87" fill="#000000">
                    <tspan x="113.233398" y="32">Table </tspan>
                    <tspan x="99.6303711" y="48">content</tspan>
                </text>
                <text id="159" font-family=".AppleSystemUIFont" font-size="13" font-weight="normal" fill-opacity="0.87" fill="#000000">
                    <tspan x="333.047852" y="32">15</tspan>
                    <tspan x="338.79248" y="48">9</tspan>
                </text>
                <text id="6.0" font-family=".AppleSystemUIFont" font-size="13" font-weight="normal" fill-opacity="0.87" fill="#000000">
                    <tspan x="473.961426" y="32">6.</tspan>
                    <tspan x="476.887695" y="48">0</tspan>
                </text>
                <text id="24" font-family=".AppleSystemUIFont" font-size="13" font-weight="normal" fill-opacity="0.87" fill="#000000">
                    <tspan x="586.414551" y="32">2</tspan>
                    <tspan x="585.709961" y="48">4</tspan>
                </text>
                <text id="4.0" font-family=".AppleSystemUIFont" font-size="13" font-weight="normal" fill-opacity="0.87" fill="#000000">
                    <tspan x="680.878906" y="32">4.</tspan>
                    <tspan x="683.887695" y="48">0</tspan>
                </text>
                <path d="M0.5,50 L712.5,50" id="Line-Copy" stroke="#E0E0E0" stroke-linecap="square"></path>
            </g>
            <g id="table-row-copy-6" transform="translate(0.000000, 420.000000)">
                <rect id="Rectangle-145-Copy" fill="#FFFFFF" x="1" y="0.5" width="712" height="49"></rect>
                <text id="Table-content" font-family=".AppleSystemUIFont" font-size="13" font-weight="normal" fill-opacity="0.87" fill="#000000">
                    <tspan x="113.233398" y="32">Table </tspan>
                    <tspan x="99.6303711" y="48">content</tspan>
                </text>
                <text id="159" font-family=".AppleSystemUIFont" font-size="13" font-weight="normal" fill-opacity="0.87" fill="#000000">
                    <tspan x="333.047852" y="32">15</tspan>
                    <tspan x="338.79248" y="48">9</tspan>
                </text>
                <text id="6.0" font-family=".AppleSystemUIFont" font-size="13" font-weight="normal" fill-opacity="0.87" fill="#000000">
                    <tspan x="473.961426" y="32">6.</tspan>
                    <tspan x="476.887695" y="48">0</tspan>
                </text>
                <text id="24" font-family=".AppleSystemUIFont" font-size="13" font-weight="normal" fill-opacity="0.87" fill="#000000">
                    <tspan x="586.414551" y="32">2</tspan>
                    <tspan x="585.709961" y="48">4</tspan>
                </text>
                <text id="4.0" font-family=".AppleSystemUIFont" font-size="13" font-weight="normal" fill-opacity="0.87" fill="#000000">
                    <tspan x="680.878906" y="32">4.</tspan>
                    <tspan x="683.887695" y="48">0</tspan>
                </text>
                <g id="atoms/checkbox-off" fill="#000000" transform="translate(22.000000, 14.000000)">
                    <rect id="bounds" fill="none" x="0" y="0" width="24" height="24"></rect>
                    <path d="M19,5 L19,19 L5,19 L5,5 L19,5 L19,5 Z M19,3 L5,3 C3.9,3 3,3.9 3,5 L3,19 C3,20.1 3.9,21 5,21 L19,21 C20.1,21 21,20.1 21,19 L21,5 C21,3.9 20.1,3 19,3 L19,3 L19,3 Z" id="Shape" fill="#010101" opacity="0.54"></path>
                </g>
                <path d="M0.5,50 L712.5,50" id="Line-Copy" stroke="#E0E0E0" stroke-linecap="square"></path>
            </g>
            <g id="table-row-copy-3" transform="translate(0.000000, 320.000000)">
                <rect id="Rectangle-145-Copy" fill="#FFFFFF" x="1" y="0.5" width="712" height="49"></rect>
                <text id="Table-content" font-family=".AppleSystemUIFont" font-size="13" font-weight="normal" fill-opacity="0.87" fill="#000000">
                    <tspan x="113.233398" y="32">Table </tspan>
                    <tspan x="99.6303711" y="48">content</tspan>
                </text>
                <text id="159" font-family=".AppleSystemUIFont" font-size="13" font-weight="normal" fill-opacity="0.87" fill="#000000">
                    <tspan x="333.047852" y="32">15</tspan>
                    <tspan x="338.79248" y="48">9</tspan>
                </text>
                <text id="6.0" font-family=".AppleSystemUIFont" font-size="13" font-weight="normal" fill-opacity="0.87" fill="#000000">
                    <tspan x="473.961426" y="32">6.</tspan>
                    <tspan x="476.887695" y="48">0</tspan>
                </text>
                <text id="24" font-family=".AppleSystemUIFont" font-size="13" font-weight="normal" fill-opacity="0.87" fill="#000000">
                    <tspan x="586.414551" y="32">2</tspan>
                    <tspan x="585.709961" y="48">4</tspan>
                </text>
                <text id="4.0" font-family=".AppleSystemUIFont" font-size="13" font-weight="normal" fill-opacity="0.87" fill="#000000">
                    <tspan x="680.878906" y="32">4.</tspan>
                    <tspan x="683.887695" y="48">0</tspan>
                </text>
                <g id="atoms/checkbox-off" fill="#000000" transform="translate(22.000000, 14.000000)">
                    <rect id="bounds" fill="none" x="0" y="0" width="24" height="24"></rect>
                    <path d="M19,5 L19,19 L5,19 L5,5 L19,5 L19,5 Z M19,3 L5,3 C3.9,3 3,3.9 3,5 L3,19 C3,20.1 3.9,21 5,21 L19,21 C20.1,21 21,20.1 21,19 L21,5 C21,3.9 20.1,3 19,3 L19,3 L19,3 Z" id="Shape" fill="#010101" opacity="0.54"></path>
                </g>
                <path d="M0.5,50 L712.5,50" id="Line-Copy" stroke="#E0E0E0" stroke-linecap="square"></path>
            </g>
            <g id="table-row-copy-7" transform="translate(0.000000, 520.000000)">
                <rect id="Rectangle-145-Copy" fill="#FFFFFF" x="1" y="0.5" width="712" height="49"></rect>
                <text id="Table-content" font-family=".AppleSystemUIFont" font-size="13" font-weight="normal" fill-opacity="0.87" fill="#000000">
                    <tspan x="113.233398" y="32">Table </tspan>
                    <tspan x="99.6303711" y="48">content</tspan>
                </text>
                <text id="159" font-family=".AppleSystemUIFont" font-size="13" font-weight="normal" fill-opacity="0.87" fill="#000000">
                    <tspan x="333.047852" y="32">15</tspan>
                    <tspan x="338.79248" y="48">9</tspan>
                </text>
                <text id="6.0" font-family=".AppleSystemUIFont" font-size="13" font-weight="normal" fill-opacity="0.87" fill="#000000">
                    <tspan x="473.961426" y="32">6.</tspan>
                    <tspan x="476.887695" y="48">0</tspan>
                </text>
                <text id="24" font-family=".AppleSystemUIFont" font-size="13" font-weight="normal" fill-opacity="0.87" fill="#000000">
                    <tspan x="586.414551" y="32">2</tspan>
                    <tspan x="585.709961" y="48">4</tspan>
                </text>
                <text id="4.0" font-family=".AppleSystemUIFont" font-size="13" font-weight="normal" fill-opacity="0.87" fill="#000000">
                    <tspan x="680.878906" y="32">4.</tspan>
                    <tspan x="683.887695" y="48">0</tspan>
                </text>
                <g id="atoms/checkbox-off" fill="#000000" transform="translate(22.000000, 14.000000)">
                    <rect id="bounds" fill="none" x="0" y="0" width="24" height="24"></rect>
                    <path d="M19,5 L19,19 L5,19 L5,5 L19,5 L19,5 Z M19,3 L5,3 C3.9,3 3,3.9 3,5 L3,19 C3,20.1 3.9,21 5,21 L19,21 C20.1,21 21,20.1 21,19 L21,5 C21,3.9 20.1,3 19,3 L19,3 L19,3 Z" id="Shape" fill="#010101" opacity="0.54"></path>
                </g>
                <path d="M0.5,50 L712.5,50" id="Line-Copy" stroke="#E0E0E0" stroke-linecap="square"></path>
            </g>
            <g id="table-row-copy-9" transform="translate(0.000000, 620.000000)">
                <rect id="Rectangle-145-Copy" fill="#FFFFFF" x="1" y="0.5" width="712" height="49"></rect>
                <text id="Table-content" font-family=".AppleSystemUIFont" font-size="13" font-weight="normal" fill-opacity="0.87" fill="#000000">
                    <tspan x="113.233398" y="32">Table </tspan>
                    <tspan x="99.6303711" y="48">content</tspan>
                </text>
                <text id="159" font-family=".AppleSystemUIFont" font-size="13" font-weight="normal" fill-opacity="0.87" fill="#000000">
                    <tspan x="333.047852" y="32">15</tspan>
                    <tspan x="338.79248" y="48">9</tspan>
                </text>
                <text id="6.0" font-family=".AppleSystemUIFont" font-size="13" font-weight="normal" fill-opacity="0.87" fill="#000000">
                    <tspan x="473.961426" y="32">6.</tspan>
                    <tspan x="476.887695" y="48">0</tspan>
                </text>
                <text id="24" font-family=".AppleSystemUIFont" font-size="13" font-weight="normal" fill-opacity="0.87" fill="#000000">
                    <tspan x="586.414551" y="32">2</tspan>
                    <tspan x="585.709961" y="48">4</tspan>
                </text>
                <text id="4.0" font-family=".AppleSystemUIFont" font-size="13" font-weight="normal" fill-opacity="0.87" fill="#000000">
                    <tspan x="680.878906" y="32">4.</tspan>
                    <tspan x="683.887695" y="48">0</tspan>
                </text>
                <g id="atoms/checkbox-off" fill="#000000" transform="translate(22.000000, 14.000000)">
                    <rect id="bounds" fill="none" x="0" y="0" width="24" height="24"></rect>
                    <path d="M19,5 L19,19 L5,19 L5,5 L19,5 L19,5 Z M19,3 L5,3 C3.9,3 3,3.9 3,5 L3,19 C3,20.1 3.9,21 5,21 L19,21 C20.1,21 21,20.1 21,19 L21,5 C21,3.9 20.1,3 19,3 L19,3 L19,3 Z" id="Shape" fill="#010101" opacity="0.54"></path>
                </g>
                <path d="M0.5,50 L712.5,50" id="Line-Copy" stroke="#E0E0E0" stroke-linecap="square"></path>
            </g>
            <g id="atoms/pagination" transform="translate(261.000000, 671.000000)" fill="#000000">
                <text id="Count" font-family=".AppleSystemUIFont" font-size="12" font-weight="normal" fill-opacity="0.54">
                    <tspan x="290.771484" y="29">1-10 of </tspan>
                    <tspan x="309.287109" y="44">100</tspan>
                </text>
                <g id="prev-next" stroke-width="1" fill-rule="evenodd" transform="translate(368.000000, 18.000000)">
                    <polygon id="Shape" fill-opacity="0.38" points="7.4 11.1 2.8 6.5 7.4 1.9 6 0.5 0 6.5 6 12.5"></polygon>
                    <polygon id="Shape" fill-opacity="0.54" points="45.6 11.3 50.2 6.8 45.6 2.2 47 0.8 53 6.8 47 12.8"></polygon>
                </g>
                <g id="per-page" stroke-width="1" fill-rule="evenodd" transform="translate(100.000000, 17.000000)" fill-opacity="0.54">
                    <text id="Rows-per-page" font-family=".AppleSystemUIFont" font-size="12" font-weight="normal">
                        <tspan x="0" y="12">Rows per page:</tspan>
                    </text>
                    <text id="#-Per-Page" font-family=".AppleSystemUIFont" font-size="12" font-weight="normal">
                        <tspan x="101" y="12">10</tspan>
                    </text>
                    <polygon id="Shape" points="121 5 126 10 131 5"></polygon>
                </g>
            </g>
        </g>
    </g>
</svg>