<?xml version="1.0" encoding="UTF-8" standalone="no"?>
<svg width="298px" height="59px" viewBox="0 0 298 59" version="1.1" xmlns="http://www.w3.org/2000/svg" xmlns:xlink="http://www.w3.org/1999/xlink">
    <!-- Generator: Sketch 46.2 (44496) - http://www.bohemiancoding.com/sketch -->
    <title>atoms/logo</title>
    <desc>Created with Sketch.</desc>
    <defs></defs>
    <g id="Symbols" stroke="none" stroke-width="1" fill="none" fill-rule="evenodd">
        <g id="atoms/logo" fill="#FFFFFF">
            <path d="M25.5,0 L51,14.75 L49.2586371,44.25 L25.5,59 L1.58305719,44.25 L0,14.75 L25.5,0 Z M25.5,2.94499165 L48.4543293,16.2224958 L46.8712721,42.7775042 L25.5,56.0550083 L4.12872794,42.7775042 L2.54567075,16.2224958 L25.5,2.94499165 Z" id="Combined-Shape"></path>
            <path d="M43.9838902,30.195 C43.5069139,29.9442 42.9498056,29.9340667 42.4588381,30.1076 L40.9910231,29.3362 L40.9910231,23.2144 L42.4359432,22.348 C42.6140143,22.4024667 42.7984452,22.4379333 42.9892357,22.4379333 C43.3352025,22.4379333 43.6760815,22.3442 43.9724428,22.1656 C44.4087171,21.9034 44.7165258,21.4879333 44.8399036,20.9964667 C44.9620096,20.5037333 44.8856934,19.9932667 44.6224025,19.5588 C44.1009084,18.6962 42.8722175,18.3896667 42.0034847,18.9115333 C41.5226926,19.2003333 41.2225156,19.669 41.1233045,20.1794667 L39.7190863,21.0218 L34.6313394,17.9830667 L34.6313394,16.306 C35.0192801,15.9576667 35.2673077,15.4598667 35.2673077,14.9 C35.2673077,13.8524667 34.4112943,13 33.3594026,13 C32.307511,13 31.4514975,13.8524667 31.4514975,14.9 C31.4514975,15.4598667 31.6995252,15.9576667 32.0874659,16.306 L32.0874659,17.9830667 L26.9997189,21.0230667 L21.911972,17.9830667 L21.911972,16.306 C22.2999127,15.9576667 22.5479404,15.4598667 22.5479404,14.9 C22.5479404,13.8524667 21.6919269,13 20.6400353,13 C19.5881436,13 18.7321301,13.8524667 18.7321301,14.9 C18.7321301,15.4598667 18.9801578,15.9576667 19.3680985,16.306 L19.3680985,17.9830667 L14.2816235,21.0218 L12.8774053,20.1794667 C12.7781943,19.669 12.4780172,19.1990667 11.9972251,18.9115333 C11.1284923,18.3884 9.90107337,18.6962 9.37830737,19.5575333 C9.11374453,19.992 9.03742833,20.5037333 9.15953425,20.9964667 C9.28291212,21.4879333 9.59072081,21.9034 10.0269951,22.1656 C10.3246283,22.3442 10.6642354,22.4379333 11.0102022,22.4379333 C11.2009927,22.4379333 11.3854235,22.4024667 11.5634947,22.348 L13.0084148,23.2156667 L13.0084148,29.3362 L11.5418718,30.1088667 C11.0509042,29.9353333 10.4937959,29.9442 10.0155477,30.1962667 C9.08576192,30.6864667 8.72961964,31.8378667 9.22058722,32.7638 C9.55256271,33.3882667 10.1987066,33.7758667 10.9084473,33.7758667 C11.2175279,33.7758667 11.5240646,33.6998667 11.798803,33.5554667 C12.2948583,33.2945333 12.6217461,32.8423333 12.7489397,32.3394667 L14.2409215,31.5541333 L19.3680985,34.6169333 L19.3680985,40.7362 L17.9015555,41.5088667 C17.4093159,41.3353333 16.8522076,41.3454667 16.3752314,41.5962667 C15.4454456,42.0864667 15.0893033,43.2378667 15.5802709,44.1638 C15.9122464,44.7882667 16.5583903,45.1758667 17.268131,45.1758667 C17.5772116,45.1758667 17.8837483,45.0998667 18.1584867,44.9554667 C18.654542,44.6945333 18.9814297,44.2423333 19.1086234,43.7394667 L20.6006052,42.9541333 L25.7277822,46.0169333 L25.7277822,47.694 C25.3398415,48.0423333 25.0918138,48.5401333 25.0918138,49.1 C25.0918138,50.1475333 25.9478273,51 26.9997189,51 C28.0516106,51 28.9076241,50.1475333 28.9076241,49.1 C28.9076241,48.5401333 28.6595964,48.0423333 28.2716557,47.694 L28.2716557,46.0169333 L33.3988327,42.9541333 L34.8908145,43.7394667 C35.0192801,44.2436 35.3448959,44.6945333 35.8409512,44.9567333 C36.1144176,45.0998667 36.4222263,45.1758667 36.7313069,45.1758667 C37.4410476,45.1758667 38.0871915,44.7882667 38.419167,44.1638 C38.9114065,43.2378667 38.5539923,42.0852 37.6242065,41.5962667 C37.1472302,41.3442 36.590122,41.3353333 36.0991544,41.5088667 L34.6313394,40.7362 L34.6313394,34.6169333 L39.7585164,31.5541333 L41.2504982,32.3394667 C41.3789638,32.8436 41.7045796,33.2945333 42.2006349,33.5567333 C42.4741013,33.6998667 42.78191,33.7758667 43.0909906,33.7758667 C43.8007313,33.7758667 44.4468752,33.3882667 44.7788507,32.7638 C45.2710902,31.8378667 44.913676,30.6852 43.9838902,30.195 L43.9838902,30.195 Z M32.0874659,40.7818 L26.9997189,43.8218 L21.911972,40.7818 L21.911972,34.6169333 L26.9997189,31.5769333 L32.0874659,34.6169333 L32.0874659,40.7818 L32.0874659,40.7818 Z M38.4471496,29.3818 L33.3594026,32.4218 L28.2716557,29.3818 L28.2716557,23.2169333 L33.3594026,20.1769333 L38.4471496,23.2169333 L38.4471496,29.3818 L38.4471496,29.3818 Z" id="Shape"></path>
            <path d="M104.851302,40.3254817 C104.384155,45.2729874 102.558065,49.1321964 99.372975,51.9032243 C96.1878855,54.6742522 91.95178,56.0597453 86.6645313,56.0597453 C82.9698275,56.0597453 79.7157765,55.1838588 76.9022807,53.4320596 C74.088785,51.6802604 71.9176482,49.1906194 70.3888052,45.963062 C68.8599622,42.7355046 68.0637018,38.9877721 68,34.7197522 L68,30.3880521 C68,26.0138624 68.7750268,22.1599619 70.3251037,18.8262349 C71.8751806,15.4925078 74.0994015,12.9232408 76.9978329,11.1183567 C79.8962644,9.3134727 83.2458667,8.4110442 87.0467402,8.4110442 C92.1641174,8.4110442 96.283438,9.8018457 99.4048258,12.5834906 C102.526214,15.3651354 104.341687,19.2933536 104.851302,24.3682629 L96.8249161,24.3682629 C96.4427054,21.0345359 95.4712677,18.6298294 93.9105738,17.1540712 C92.3498799,15.6783131 90.0619583,14.9404451 87.0467402,14.9404451 C83.5431417,14.9404451 80.8517814,16.2197702 78.9725786,18.7784588 C77.0933758,21.3371473 76.1325548,25.0901882 76.090087,30.037694 L76.090087,34.1464389 C76.090087,39.1576464 76.9872071,42.9796965 78.7814742,45.6127039 C80.5757413,48.2457112 83.2034007,49.5621952 86.6645313,49.5621952 C89.8283869,49.5621952 92.2065515,48.8508692 93.7990962,47.4281959 C95.391641,46.0055225 96.4002375,43.6379748 96.8249161,40.3254817 L104.851302,40.3254817 Z M106.758688,37.872975 C106.758688,34.4967801 107.427547,31.4550652 108.765284,28.7477391 C110.103022,26.040413 111.982197,23.9595191 114.402865,22.5049949 C116.823533,21.0504707 119.605136,20.3232195 122.747758,20.3232195 C127.397988,20.3232195 131.172263,21.8201891 134.070694,24.8141732 C136.969126,27.8081574 138.535105,31.7788428 138.768678,36.7263485 L138.800529,38.5418405 C138.800529,41.9392693 138.147595,44.9756758 136.841708,47.651151 C135.535822,50.3266262 133.667264,52.3969034 131.235979,53.8620445 C128.804694,55.3271857 125.996549,56.0597453 122.811459,56.0597453 C117.948889,56.0597453 114.05783,54.4406824 111.138164,51.2025081 C108.218499,47.9643337 106.758688,43.6486021 106.758688,38.2551839 L106.758688,37.872975 Z M114.498417,38.5418405 C114.498417,42.0879068 115.230977,44.8642016 116.696118,46.870808 C118.161259,48.8774144 120.199686,49.8807025 122.811459,49.8807025 C125.423232,49.8807025 127.456351,48.8614892 128.910875,46.8230319 C130.365399,44.7845746 131.09265,41.8012521 131.09265,37.872975 C131.09265,34.3906105 130.344166,31.630241 128.847174,29.5917837 C127.350181,27.5533264 125.317063,26.534113 122.747758,26.534113 C120.22092,26.534113 118.214344,27.5374011 116.727968,29.5440075 C115.241593,31.550614 114.498417,34.5498616 114.498417,38.5418405 L114.498417,38.5418405 Z M153.92597,45.6127039 L161.219789,20.9602342 L169.214324,20.9602342 L157.270298,55.4227306 L150.549792,55.4227306 L138.510214,20.9602342 L146.5366,20.9602342 L153.92597,45.6127039 Z M191.060271,55.4227306 C190.720528,54.7644788 190.423257,53.6921814 190.16845,52.2058063 C187.705314,54.7751118 184.690142,56.0597453 181.122841,56.0597453 C177.661711,56.0597453 174.83764,55.0723824 172.650545,53.0976269 C170.463451,51.1228714 169.36992,48.681006 169.36992,45.7719576 C169.36992,42.0984876 170.734179,39.2797257 173.462739,37.3155871 C176.191299,35.3514486 180.092975,34.3693941 185.167885,34.3693941 L189.913644,34.3693941 L189.913644,32.1079918 C189.913644,30.3243417 189.414655,28.8963813 188.41666,27.8240678 C187.418665,26.7517543 185.900462,26.2156056 183.862005,26.2156056 C182.099588,26.2156056 180.655703,26.6562031 179.530304,27.5374112 C178.404906,28.4186193 177.842215,29.5386923 177.842215,30.8976638 L170.102487,30.8976638 C170.102487,29.007844 170.728878,27.2401459 171.98168,25.5945163 C173.234482,23.9488867 174.938479,22.6589448 177.093723,21.7246518 C179.248967,20.7903589 181.653674,20.3232195 184.307915,20.3232195 C188.342362,20.3232195 191.559254,21.3371244 193.958688,23.3649647 C196.358122,25.3928051 197.589671,28.2434175 197.653373,31.9168874 L197.653373,47.4600466 C197.653373,50.5602004 198.088662,53.0339162 198.959253,54.8812681 L198.959253,55.4227306 L191.060271,55.4227306 Z M182.556124,49.8488518 C184.084967,49.8488518 185.523545,49.4772636 186.871899,48.734076 C188.220254,47.9908885 189.234159,46.9929087 189.913644,45.7401068 L189.913644,39.2425567 L185.741198,39.2425567 C182.874617,39.2425567 180.719406,39.7415466 179.275499,40.7395413 C177.831591,41.737536 177.109649,43.1495712 177.109649,44.9756892 C177.109649,46.4620643 177.60333,47.6458381 178.590708,48.5270462 C179.578085,49.4082543 180.899878,49.8488518 182.556124,49.8488518 L182.556124,49.8488518 Z M210.899622,55.4227306 L203.159893,55.4227306 L203.159893,6.5 L210.899622,6.5 L210.899622,55.4227306 Z M231.407838,56.0597453 C226.5028,56.0597453 222.526806,54.5150001 219.479737,51.4254632 C216.432668,48.3359264 214.909157,44.2219141 214.909157,39.083303 L214.909157,38.1277809 C214.909157,34.6878842 215.572707,31.6143189 216.899828,28.9069928 C218.226948,26.1996667 220.090198,24.0922308 222.489632,22.5846217 C224.889066,21.0770127 227.564501,20.3232195 230.516017,20.3232195 C235.208716,20.3232195 238.834355,21.8201891 241.393044,24.8141732 C243.951732,27.8081574 245.231057,32.0442629 245.231057,37.5226169 L245.231057,40.6439891 L222.712587,40.6439891 C222.94616,43.4893357 223.896364,45.7400986 225.563228,47.3963451 C227.230091,49.0525917 229.326911,49.8807025 231.853748,49.8807025 C235.399815,49.8807025 238.287586,48.4474337 240.517149,45.5808532 L244.689595,49.5621952 C243.309389,51.6218864 241.467374,53.2197157 239.163492,54.3557309 C236.859611,55.4917462 234.274419,56.0597453 231.407838,56.0597453 L231.407838,56.0597453 Z M230.484167,26.534113 C228.360774,26.534113 226.646159,27.2772894 225.340273,28.7636645 C224.034386,30.2500396 223.200967,32.3203168 222.83999,34.974558 L237.586881,34.974558 L237.586881,34.4012448 C237.417009,31.8107053 236.726917,29.8519046 235.516583,28.524784 C234.306249,27.1976634 232.628794,26.534113 230.484167,26.534113 L230.484167,26.534113 Z M255.324083,20.9602342 L255.547038,24.9415762 C258.09511,21.8626563 261.439404,20.3232195 265.58002,20.3232195 C272.757088,20.3232195 276.40927,24.4319233 276.536673,32.6494543 L276.536673,55.4227306 L268.796944,55.4227306 L268.796944,33.0953646 C268.796944,30.9082698 268.324497,29.2892069 267.379587,28.2381274 C266.434677,27.1870478 264.889931,26.6615159 262.745305,26.6615159 C259.623917,26.6615159 257.298836,28.0735511 255.769993,30.8976638 L255.769993,55.4227306 L248.030264,55.4227306 L248.030264,20.9602342 L255.324083,20.9602342 Z M291.0251,12.5834906 L291.0251,20.9602342 L297.108591,20.9602342 L297.108591,26.6933667 L291.0251,26.6933667 L291.0251,45.9312113 C291.0251,47.2477149 291.285212,48.1979191 291.805443,48.7818521 C292.325675,49.3657852 293.254645,49.6577474 294.592383,49.6577474 C295.484208,49.6577474 296.386636,49.5515793 297.299695,49.33924 L297.299695,55.3271784 C295.537279,55.8155588 293.83859,56.0597453 292.203578,56.0597453 C286.258077,56.0597453 283.285372,52.7791523 283.285372,46.2178679 L283.285372,26.6933667 L277.615941,26.6933667 L277.615941,20.9602342 L283.285372,20.9602342 L283.285372,12.5834906 L291.0251,12.5834906 Z" id="Covalent"></path>
        </g>
    </g>
</svg>