<?xml version="1.0" encoding="UTF-8" standalone="no"?>
<svg width="298px" height="60px" viewBox="0 0 298 60" version="1.1" xmlns="http://www.w3.org/2000/svg" xmlns:xlink="http://www.w3.org/1999/xlink">
    <title>Covalent</title>
    <desc>Copyright 2017 Teradata</desc>
    <defs></defs>
    <g id="Page-1" stroke="none" stroke-width="1" fill="none" fill-rule="evenodd">
        <g id="logo" fill="#FFFFFF">
            <path d="M104.8513,40.3255 C104.3842,45.273 102.5581,49.1322 99.373,51.9032 C96.1879,54.6743 91.9518,56.0597 86.6645,56.0597 C82.9698,56.0597 79.7158,55.1839 76.90228,53.4321 C74.08879,51.6803 71.91764,49.1906 70.3888,45.9631 C68.859959,42.7355 68.0637018,38.9878 68,34.7198 L68,30.3881 C68,26.0139 68.775027,22.16 70.3251,18.8262 C71.87518,15.49251 74.0994,12.92324 76.99783,11.11836 C79.8963,9.31347 83.2459,8.41105 87.0467,8.41105 C92.1641,8.41105 96.2834,9.80185 99.4048,12.58349 C102.5262,15.36514 104.3417,19.2934 104.8513,24.3683 L96.8249,24.3683 C96.4427,21.0345 95.4713,18.6298 93.9106,17.1541 C92.3499,15.67831 90.062,14.94044 87.0467,14.94044 C83.5431,14.94044 80.8518,16.21977 78.9726,18.7785 C77.09338,21.3371 76.13256,25.0902 76.09009,30.0377 L76.09009,34.1464 C76.09009,39.1576 76.9872,42.9797 78.7815,45.6127 C80.5757,48.2457 83.2034,49.5622 86.6645,49.5622 C89.8284,49.5622 92.2066,48.8509 93.7991,47.4282 C95.3916,46.0055 96.4002,43.638 96.8249,40.3255 L104.8513,40.3255 Z M106.7587,37.873 C106.7587,34.4968 107.4275,31.4551 108.7653,28.7477 C110.103,26.0404 111.9822,23.9595 114.4029,22.505 C116.8235,21.0505 119.6051,20.3232 122.7478,20.3232 C127.398,20.3232 131.1723,21.8202 134.0707,24.8142 C136.9691,27.8082 138.5351,31.7788 138.7687,36.7263 L138.8005,38.5418 C138.8005,41.9393 138.1476,44.9757 136.8417,47.6511 C135.5358,50.3266 133.6673,52.3969 131.236,53.862 C128.8047,55.3272 125.9966,56.0597 122.8115,56.0597 C117.9489,56.0597 114.0578,54.4407 111.1382,51.2025 C108.2185,47.9643 106.7587,43.6486 106.7587,38.2552 L106.7587,37.873 Z M114.4984,38.5418 C114.4984,42.0879 115.231,44.8642 116.6961,46.8708 C118.1613,48.8774 120.1997,49.8807 122.8115,49.8807 C125.4232,49.8807 127.4563,48.8615 128.9109,46.823 C130.3654,44.7846 131.0927,41.8013 131.0927,37.873 C131.0927,34.3906 130.3442,31.6302 128.8472,29.5918 C127.3502,27.5533 125.3171,26.5341 122.7478,26.5341 C120.2209,26.5341 118.2143,27.5374 116.728,29.544 C115.2416,31.5506 114.4984,34.5499 114.4984,38.5418 Z M153.926,45.6127 L161.2198,20.9602 L169.214,20.9602 L157.2703,55.4227 L150.5498,55.4227 L138.5102,20.9602 L146.5366,20.9602 L153.926,45.6127 Z M191.06,55.4227 C190.721,54.7645 190.423,53.6922 190.168,52.2058 C187.705,54.7751 184.69,56.0597 181.123,56.0597 C177.662,56.0597 174.838,55.0724 172.651,53.0976 C170.463,51.1229 169.37,48.681 169.37,45.772 C169.37,42.0985 170.734,39.2797 173.463,37.3156 C176.191,35.3514 180.093,34.3694 185.168,34.3694 L189.914,34.3694 L189.914,32.108 C189.914,30.3243 189.415,28.8964 188.417,27.8241 C187.419,26.7518 185.9,26.2156 183.862,26.2156 C182.1,26.2156 180.656,26.6562 179.53,27.5374 C178.405,28.4186 177.842,29.5387 177.842,30.8977 L170.102,30.8977 C170.102,29.0078 170.729,27.2401 171.982,25.5945 C173.234,23.9489 174.938,22.6589 177.094,21.7247 C179.249,20.7904 181.654,20.3232 184.308,20.3232 C188.342,20.3232 191.559,21.3371 193.959,23.365 C196.358,25.3928 197.59,28.2434 197.653,31.9169 L197.653,47.46 C197.653,50.5602 198.089,53.0339 198.959,54.8813 L198.959,55.4227 L191.06,55.4227 Z M182.556,49.8489 C184.085,49.8489 185.524,49.4773 186.872,48.7341 C188.22,47.9909 189.234,46.9929 189.914,45.7401 L189.914,39.2426 L185.741,39.2426 C182.875,39.2426 180.719,39.7415 179.275,40.7395 C177.832,41.7375 177.11,43.1496 177.11,44.9757 C177.11,46.4621 177.603,47.6458 178.591,48.527 C179.578,49.4083 180.9,49.8489 182.556,49.8489 Z M210.9,55.4227 L203.16,55.4227 L203.16,6.5 L210.9,6.5 L210.9,55.4227 Z M231.408,56.0597 C226.503,56.0597 222.527,54.515 219.48,51.4255 C216.433,48.3359 214.909,44.2219 214.909,39.0833 L214.909,38.1278 C214.909,34.6879 215.573,31.6143 216.9,28.907 C218.227,26.1997 220.09,24.0922 222.49,22.5846 C224.889,21.077 227.565,20.3232 230.516,20.3232 C235.209,20.3232 238.834,21.8202 241.393,24.8142 C243.952,27.8082 245.231,32.0443 245.231,37.5226 L245.231,40.644 L222.713,40.644 C222.946,43.4893 223.896,45.7401 225.563,47.3963 C227.23,49.0526 229.327,49.8807 231.854,49.8807 C235.4,49.8807 238.288,48.4474 240.517,45.5809 L244.69,49.5622 C243.309,51.6219 241.467,53.2197 239.163,54.3557 C236.86,55.4917 234.274,56.0597 231.408,56.0597 Z M230.484,26.5341 C228.361,26.5341 226.646,27.2773 225.34,28.7637 C224.034,30.25 223.201,32.3203 222.84,34.9746 L237.587,34.9746 L237.587,34.4012 C237.417,31.8107 236.727,29.8519 235.517,28.5248 C234.306,27.1977 232.629,26.5341 230.484,26.5341 Z M255.324,20.9602 L255.547,24.9416 C258.095,21.8627 261.439,20.3232 265.58,20.3232 C272.757,20.3232 276.409,24.4319 276.537,32.6495 L276.537,55.4227 L268.797,55.4227 L268.797,33.0954 C268.797,30.9083 268.324,29.2892 267.38,28.2381 C266.435,27.187 264.89,26.6615 262.745,26.6615 C259.624,26.6615 257.299,28.0736 255.77,30.8977 L255.77,55.4227 L248.03,55.4227 L248.03,20.9602 L255.324,20.9602 Z M291.025,12.58349 L291.025,20.9602 L297.109,20.9602 L297.109,26.6934 L291.025,26.6934 L291.025,45.9312 C291.025,47.2477 291.285,48.1979 291.805,48.7819 C292.326,49.3658 293.255,49.6577 294.592,49.6577 C295.484,49.6577 296.387,49.5516 297.3,49.3392 L297.3,55.3272 C295.537,55.8156 293.839,56.0597 292.204,56.0597 C286.258,56.0597 283.285,52.7792 283.285,46.2179 L283.285,26.6934 L277.616,26.6934 L277.616,20.9602 L283.285,20.9602 L283.285,12.58349 L291.025,12.58349 Z" id="path0_fill"></path>
            <path d="M44.6372,18.4137 L25.5101,7.3343 L6.383,18.4137 L7.70209,40.5726 L25.5101,51.6521 L43.318,40.5726 L44.6372,18.4137 Z M40.0422,30.0737 L33.3261,33.9649 L33.3261,41.6852 L25.51,46.2137 L17.6939,41.6852 L17.6939,33.9649 L10.97779,30.0737 L10.97779,21.0168 L18.7939,16.48832 L25.51,20.3795 L32.2261,16.48832 L40.0422,21.0168 L40.0422,30.0737 Z M32.1103,19.0428 L37.7263,22.265 L37.7263,28.7094 L32.1103,31.9316 L26.4943,28.7094 L26.4943,22.265 L32.1103,19.0428 Z M31.126,33.8765 L25.51,30.6543 L19.894,33.8765 L19.894,40.3209 L25.51,43.5431 L31.126,40.3209 L31.126,33.8765 Z" id="path1_fill"></path>
            <path d="M25.5,0 L51,14.7632 L49.2587,44.2895 L25.5,59.0526 L1.58307,44.2895 L0,14.7632 L25.5,0 Z M25.5095,4.87682 L46.7578,17.185 L45.3068,41.8013 L25.5095,54.1095 L5.58032,41.8013 L4.26123,17.185 L25.5095,4.87682 Z" id="path2_fill"></path>
        </g>
    </g>
</svg>