<?xml version="1.0" encoding="UTF-8" standalone="no"?>
<svg width="175px" height="170px" viewBox="0 0 175 170" version="1.1" xmlns="http://www.w3.org/2000/svg" xmlns:xlink="http://www.w3.org/1999/xlink">
    <!-- Generator: Sketch 46.2 (44496) - http://www.bohemiancoding.com/sketch -->
    <title>molecules/card-metric-chart</title>
    <desc>Created with Sketch.</desc>
    <defs>
        <rect id="path-1" x="0" y="0" width="175" height="170" rx="2"></rect>
        <filter x="-5.7%" y="-4.7%" width="111.4%" height="111.8%" filterUnits="objectBoundingBox" id="filter-2">
            <feOffset dx="0" dy="1" in="SourceAlpha" result="shadowOffsetOuter1"></feOffset>
            <feGaussianBlur stdDeviation="2.5" in="shadowOffsetOuter1" result="shadowBlurOuter1"></feGaussianBlur>
            <feColorMatrix values="0 0 0 0 0   0 0 0 0 0   0 0 0 0 0  0 0 0 0.13 0" type="matrix" in="shadowBlurOuter1" result="shadowMatrixOuter1"></feColorMatrix>
            <feOffset dx="0" dy="1" in="SourceAlpha" result="shadowOffsetOuter2"></feOffset>
            <feGaussianBlur stdDeviation="1" in="shadowOffsetOuter2" result="shadowBlurOuter2"></feGaussianBlur>
            <feColorMatrix values="0 0 0 0 0   0 0 0 0 0   0 0 0 0 0  0 0 0 0.2 0" type="matrix" in="shadowBlurOuter2" result="shadowMatrixOuter2"></feColorMatrix>
            <feMerge>
                <feMergeNode in="shadowMatrixOuter1"></feMergeNode>
                <feMergeNode in="shadowMatrixOuter2"></feMergeNode>
            </feMerge>
        </filter>
    </defs>
    <g id="Symbols" stroke="none" stroke-width="1" fill="none" fill-rule="evenodd">
        <g id="molecules/card-metric-chart">
            <g id="paper-shadow-z=&quot;1&quot;-copy-3">
                <use fill="black" fill-opacity="1" filter="url(#filter-2)" xlink:href="#path-1"></use>
                <use fill="#FFFFFF" fill-rule="evenodd" xlink:href="#path-1"></use>
            </g>
            <g id="bar-chart" transform="translate(19.000000, 106.000000)" fill="#039BE5">
                <path d="M120,11.9999204 C120,10.8953949 120.892623,10 121.995089,10 L136.004911,10 C137.106768,10 138,10.8919411 138,11.9999204 L138,44 L120,44 L120,11.9999204 Z" id="Rectangle-10"></path>
                <path d="M100,2.00492334 C100,0.897634756 100.892623,0 101.995089,0 L116.004911,0 C117.106768,0 118,0.898855112 118,2.00492334 L118,44 L100,44 L100,2.00492334 Z" id="Rectangle-10-Copy"></path>
                <path d="M80,11.9999204 C80,10.8953949 80.8926228,10 81.9950893,10 L96.0049107,10 C97.1067681,10 98,10.8919411 98,11.9999204 L98,44 L80,44 L80,11.9999204 Z" id="Rectangle-10-Copy-2"></path>
                <path d="M60,17.9912443 C60,16.8915104 60.8926228,16 61.9950893,16 L76.0049107,16 C77.1067681,16 78,16.8998975 78,17.9912443 L78,44 L60,44 L60,17.9912443 Z" id="Rectangle-10-Copy-3"></path>
                <path d="M39,27.9950893 C39,26.8932319 39.8926228,26 40.9950893,26 L55.0049107,26 C56.1067681,26 57,26.8926228 57,27.9950893 L57,44 L39,44 L39,27.9950893 Z" id="Rectangle-10-Copy-4"></path>
                <path d="M20,32.0058587 C20,30.8980535 20.8926228,30 21.9950893,30 L36.0049107,30 C37.1067681,30 38,30.8970601 38,32.0058587 L38,44 L20,44 L20,32.0058587 Z" id="Rectangle-10-Copy-5"></path>
                <path d="M0,36.9973917 C0,35.8942627 0.892622799,35 1.99508929,35 L16.0049107,35 C17.1067681,35 18,35.8958578 18,36.9973917 L18,44 L0,44 L0,36.9973917 Z" id="Rectangle-10-Copy-6"></path>
            </g>
            <text id="Metric-Change" font-family=".AppleSystemUIFont" font-size="12" font-weight="normal" letter-spacing="-0.0230769236" fill="#444444">
                <tspan x="20" y="93">+22% of target</tspan>
            </text>
            <text id="Metric-Number" font-family=".SFNSDisplay-Regular, .SF NS Display" font-size="34" font-weight="normal" letter-spacing="-0.0653846189" fill-opacity="0.87" fill="#000000">
                <tspan x="20" y="70">537</tspan>
            </text>
            <text id="Metric-Name" font-family=".AppleSystemUIFont" font-size="14" font-weight="normal" letter-spacing="-0.0269230772" fill-opacity="0.87" fill="#000000">
                <tspan x="20" y="34">Metric Name</tspan>
            </text>
        </g>
    </g>
</svg>