<?xml version="1.0" encoding="UTF-8" standalone="no"?>
<svg width="160px" height="41px" viewBox="0 0 160 41" version="1.1" xmlns="http://www.w3.org/2000/svg" xmlns:xlink="http://www.w3.org/1999/xlink">
    <!-- Generator: Sketch 46.2 (44496) - http://www.bohemiancoding.com/sketch -->
    <title>atoms/list-item</title>
    <desc>Created with Sketch.</desc>
    <defs></defs>
    <g id="Symbols" stroke="none" stroke-width="1" fill="none" fill-rule="evenodd">
        <g id="atoms/list-item">
            <g id="Group">
                <path d="M3.6,17.8 C5,20.6 7.4,22.9 10.2,24.4 L12.4,22.2 C12.7,21.9 13.1,21.8 13.4,22 C14.5,22.4 15.7,22.6 17,22.6 C17.6,22.6 18,23 18,23.6 L18,27 C18,27.6 17.6,28 17,28 C7.6,28 0,20.4 0,11 C0,10.4 0.4,10 1,10 L4.5,10 C5.1,10 5.5,10.4 5.5,11 C5.5,12.2 5.7,13.4 6.1,14.6 C6.2,14.9 6.1,15.3 5.9,15.6 L3.6,17.8 L3.6,17.8 Z" id="call" fill="#F16C00"></path>
                <g id="list-item-2-line" transform="translate(52.000000, 0.000000)" font-family=".AppleSystemUIFont" font-weight="normal">
                    <text id="(650)-556" font-size="16" letter-spacing="-0.100000001" fill="#4D4D4E">
                        <tspan x="0" y="15">(650) 555-1234</tspan>
                    </text>
                    <text id="Mobile-2" font-size="14" letter-spacing="-0.107692309" fill="#999999">
                        <tspan x="0" y="36">Mobile</tspan>
                    </text>
                </g>
            </g>
        </g>
    </g>
</svg>