<?xml version="1.0" encoding="UTF-8" standalone="no"?>
<svg width="86px" height="24px" viewBox="0 0 86 24" version="1.1" xmlns="http://www.w3.org/2000/svg" xmlns:xlink="http://www.w3.org/1999/xlink">
    <!-- Generator: Sketch 46.2 (44496) - http://www.bohemiancoding.com/sketch -->
    <title>atoms/radio-label-off</title>
    <desc>Created with Sketch.</desc>
    <defs></defs>
    <g id="Symbols" stroke="none" stroke-width="1" fill="none" fill-rule="evenodd">
        <g id="atoms/radio-label-off">
            <g id="Group">
                <text id="Always" font-family=".AppleSystemUIFont" font-size="16" font-weight="normal" letter-spacing="-0.0307692308" fill-opacity="0.87" fill="#000000">
                    <tspan x="35" y="15">Always</tspan>
                </text>
                <g id="radio-off">
                    <rect id="bounds" x="0" y="0" width="24" height="24"></rect>
                    <path d="M12,2 C6.5,2 2,6.5 2,12 C2,17.5 6.5,22 12,22 C17.5,22 22,17.5 22,12 C22,6.5 17.5,2 12,2 L12,2 Z M12,20 C7.6,20 4,16.4 4,12 C4,7.6 7.6,4 12,4 C16.4,4 20,7.6 20,12 C20,16.4 16.4,20 12,20 L12,20 Z" id="Shape" fill="#010101" opacity="0.54"></path>
                </g>
            </g>
        </g>
    </g>
</svg>