<?xml version="1.0" encoding="UTF-8" standalone="no"?>
<svg width="360px" height="34px" viewBox="0 0 360 34" version="1.1" xmlns="http://www.w3.org/2000/svg" xmlns:xlink="http://www.w3.org/1999/xlink">
    <!-- Generator: Sketch 46.2 (44496) - http://www.bohemiancoding.com/sketch -->
    <title>atoms/slider-sm-active</title>
    <desc>Created with Sketch.</desc>
    <defs>
        <path d="M154,20 L154,32 L157,29 L159.5,34 L160.5,34 C160.5,34 161.14566,33.3495845 161,33 C160.312327,31.3495845 158.5,28 158.5,28 L162,28 L154,20 Z" id="path-1"></path>
        <filter x="-75.0%" y="-35.7%" width="250.0%" height="185.7%" filterUnits="objectBoundingBox" id="filter-2">
            <feMorphology radius="1" operator="dilate" in="SourceAlpha" result="shadowSpreadOuter1"></feMorphology>
            <feOffset dx="0" dy="1" in="shadowSpreadOuter1" result="shadowOffsetOuter1"></feOffset>
            <feGaussianBlur stdDeviation="1.5" in="shadowOffsetOuter1" result="shadowBlurOuter1"></feGaussianBlur>
            <feComposite in="shadowBlurOuter1" in2="SourceAlpha" operator="out" result="shadowBlurOuter1"></feComposite>
            <feColorMatrix values="0 0 0 0 0   0 0 0 0 0   0 0 0 0 0  0 0 0 1 0" type="matrix" in="shadowBlurOuter1"></feColorMatrix>
        </filter>
    </defs>
    <g id="Symbols" stroke="none" stroke-width="1" fill="none" fill-rule="evenodd">
        <g id="atoms/slider-sm-active">
            <rect id="sliderContainer" fill="#C8C8C8" x="8" y="16" width="340" height="2"></rect>
            <rect id="activeProgress" fill="#039BE5" x="8" y="16" width="150.5" height="2"></rect>
            <path d="M150.5,31 C159.060414,31 166,24.0604136 166,15.5 C166,6.93958638 159.060414,0 150.5,0 C141.939586,0 135,6.93958638 135,15.5 C135,24.0604136 141.939586,31 150.5,31 Z" id="sliderKnob" fill="#039BE5"></path>
            <g id="default">
                <use fill="black" fill-opacity="1" filter="url(#filter-2)" xlink:href="#path-1"></use>
                <use fill="#000000" fill-rule="evenodd" xlink:href="#path-1"></use>
                <path stroke="#FFFFFF" stroke-width="1" d="M159.333861,28.5 C159.346808,28.5244526 159.359965,28.5493185 159.373325,28.5745859 C159.69812,29.1888684 160.022949,29.8144029 160.326375,30.4144041 C160.404627,30.5693945 160.404627,30.5693945 160.482628,30.7249777 C160.909089,31.5772237 161.244148,32.2859561 161.461538,32.8076923 C161.57044,33.0690556 161.527252,33.3338139 161.3979,33.6062776 C161.337167,33.7342044 161.25736,33.861622 161.162768,33.9895812 C161.048394,34.1443006 160.935637,34.2708698 160.854848,34.3522538 L160.708182,34.5 L159.190983,34.5 L156.863024,29.8440825 L153.5,33.2071068 L153.5,18.7928932 L163.207107,28.5 L159.333861,28.5 Z"></path>
            </g>
        </g>
    </g>
</svg>