<?xml version="1.0" encoding="UTF-8" standalone="no"?>
<svg width="153px" height="44px" viewBox="0 0 153 44" version="1.1" xmlns="http://www.w3.org/2000/svg" xmlns:xlink="http://www.w3.org/1999/xlink">
    <!-- Generator: Sketch 46.2 (44496) - http://www.bohemiancoding.com/sketch -->
    <title>atoms/switch-label-pressed</title>
    <desc>Created with Sketch.</desc>
    <defs>
        <linearGradient x1="50%" y1="0%" x2="50%" y2="99.0214445%" id="linearGradient-1">
            <stop stop-color="#000000" stop-opacity="0" offset="0%"></stop>
            <stop stop-color="#000000" stop-opacity="0.02" offset="80%"></stop>
            <stop stop-color="#000000" stop-opacity="0.04" offset="100%"></stop>
        </linearGradient>
        <linearGradient x1="50%" y1="0%" x2="50%" y2="100%" id="linearGradient-2">
            <stop stop-color="#FFFFFF" stop-opacity="0.12" offset="0%"></stop>
            <stop stop-color="#FFFFFF" stop-opacity="0.06" offset="20%"></stop>
            <stop stop-color="#FFFFFF" stop-opacity="0" offset="100%"></stop>
        </linearGradient>
        <circle id="path-3" cx="10" cy="10" r="10"></circle>
        <filter x="-30.0%" y="-20.0%" width="160.0%" height="160.0%" filterUnits="objectBoundingBox" id="filter-4">
            <feOffset dx="0" dy="2" in="SourceAlpha" result="shadowOffsetOuter1"></feOffset>
            <feGaussianBlur stdDeviation="1" in="shadowOffsetOuter1" result="shadowBlurOuter1"></feGaussianBlur>
            <feComposite in="shadowBlurOuter1" in2="SourceAlpha" operator="out" result="shadowBlurOuter1"></feComposite>
            <feColorMatrix values="0 0 0 0 0   0 0 0 0 0   0 0 0 0 0  0 0 0 0.237601902 0" type="matrix" in="shadowBlurOuter1" result="shadowMatrixOuter1"></feColorMatrix>
            <feOffset dx="0" dy="0" in="SourceAlpha" result="shadowOffsetOuter2"></feOffset>
            <feGaussianBlur stdDeviation="1" in="shadowOffsetOuter2" result="shadowBlurOuter2"></feGaussianBlur>
            <feComposite in="shadowBlurOuter2" in2="SourceAlpha" operator="out" result="shadowBlurOuter2"></feComposite>
            <feColorMatrix values="0 0 0 0 0   0 0 0 0 0   0 0 0 0 0  0 0 0 0.12 0" type="matrix" in="shadowBlurOuter2" result="shadowMatrixOuter2"></feColorMatrix>
            <feMerge>
                <feMergeNode in="shadowMatrixOuter1"></feMergeNode>
                <feMergeNode in="shadowMatrixOuter2"></feMergeNode>
            </feMerge>
        </filter>
        <path d="M31.0303087,43 C31.0303087,43 28.811066,41.3012618 28.0303089,40 C27.2495518,38.6987382 25.7700566,37.0410095 26.030309,36 C26.2905613,34.9589905 27.2495518,34.6309149 28.0303089,35.4116721 C28.8110661,36.1924292 29.3370074,37.8840694 29.8575123,37.623817 C30.3780171,37.3635647 29.9876383,34.8911672 29.4671337,33.4597792 C28.9466291,32.0283912 28.4039585,29.0000002 29.4671337,29 C30.5303089,28.9999999 30.5303087,30 31.0303087,31.5 C31.5303087,33 31.1399301,34.9999993 31.5303087,35 C31.9206874,35.0000006 32.0696572,34.6506308 32.0696573,34 C32.0696574,33.8231855 32.1043246,33.6737454 32.1747111,33.5498595 C32.3633284,33.217878 32.8084456,33.0694009 33.5303087,33.0694008 C34.5215502,33.0694008 34.0303087,35.0000001 34.5303087,35 C35.0303087,35 35.0303091,35.0410094 35.0303087,34 C35.0303083,32.9589906 35.493948,33.069401 36.493948,33.0694008 C37.493948,33.0694008 37.0098044,34.9999999 37.5303087,35 C38.0508131,35.0000001 37.5303087,34.0000001 38.0303087,34 C38.5303087,34 39.0303081,34.1577286 39.0303087,36.5 C39.0303093,38.8422714 39.3110662,38.9589904 38.5303087,40 C37.7495512,41.0410096 37.0303087,42 37.0303087,42 C37.0303087,42 37.0303087,43 36.493948,43 C35.9575872,43.0000001 35.68094,41.9999999 35.0303087,42 C34.3796774,42.0000001 34.0303087,43 34.0303087,43 L31.0303087,43 Z M37.030309,41 L37.030309,37 L36.030309,37 L36.030309,41 L37.030309,41 Z M34.030309,40 C34.030309,40.2708838 34.2622426,41 34.530309,41 C34.8064513,41 35.030309,40.2754211 35.030309,40 L35.030309,38 C35.030309,37.7291162 34.7983754,37 34.530309,37 C34.2541666,37 34.030309,37.7245789 34.030309,38 L34.030309,40 Z M32.030309,40 C32.030309,40.2708838 32.2622426,41 32.530309,41 C32.8064513,41 33.030309,40.2754211 33.030309,40 L33.030309,38 C33.030309,37.7291162 32.7983754,37 32.530309,37 C32.2541666,37 32.030309,37.7245789 32.030309,38 L32.030309,40 Z" id="path-5"></path>
        <filter x="-34.4%" y="-25.0%" width="168.8%" height="164.3%" filterUnits="objectBoundingBox" id="filter-6">
            <feMorphology radius="1" operator="dilate" in="SourceAlpha" result="shadowSpreadOuter1"></feMorphology>
            <feOffset dx="0" dy="1" in="shadowSpreadOuter1" result="shadowOffsetOuter1"></feOffset>
            <feGaussianBlur stdDeviation="1" in="shadowOffsetOuter1" result="shadowBlurOuter1"></feGaussianBlur>
            <feComposite in="shadowBlurOuter1" in2="SourceAlpha" operator="out" result="shadowBlurOuter1"></feComposite>
            <feColorMatrix values="0 0 0 0 0   0 0 0 0 0   0 0 0 0 0  0 0 0 1 0" type="matrix" in="shadowBlurOuter1"></feColorMatrix>
        </filter>
    </defs>
    <g id="Symbols" stroke="none" stroke-width="1" fill="none" fill-rule="evenodd">
        <g id="atoms/switch-label-pressed">
            <g id="Group">
                <g id="radio-button-ripple">
                    <g id="switch-off-copy" transform="translate(12.000000, 11.000000)">
                        <rect id="bounds" x="0" y="0" width="40" height="20"></rect>
                        <path d="M30,17 L10,17 C6.1,17 3,13.9 3,10 C3,6.1 6.1,3 10,3 L30,3 C33.9,3 37,6.1 37,10 C37,13.9 33.9,17 30,17 Z" id="track" fill-opacity="0.26" fill="#221F1F"></path>
                        <g id="knob">
                            <use fill="black" fill-opacity="1" filter="url(#filter-4)" xlink:href="#path-3"></use>
                            <use fill="#F1F1F1" fill-rule="evenodd" xlink:href="#path-3"></use>
                            <circle stroke="url(#linearGradient-1)" stroke-width="0.5" cx="10" cy="10" r="9.75"></circle>
                            <circle stroke="url(#linearGradient-2)" stroke-width="0.5" cx="10" cy="10" r="9.75"></circle>
                        </g>
                    </g>
                    <circle id="ripple" fill-opacity="0.1" fill="#000000" cx="22" cy="22" r="22"></circle>
                    <g id="pointer">
                        <use fill="black" fill-opacity="1" filter="url(#filter-6)" xlink:href="#path-5"></use>
                        <use fill="#FFFFFF" fill-rule="evenodd" xlink:href="#path-5"></use>
                        <path stroke="#000000" stroke-width="1" d="M29.6063616,36.8688683 C29.6027263,36.6645732 29.5954057,36.3732696 29.5561262,36.0393946 C29.4633515,35.25081 29.245065,34.3121779 28.997237,33.6306507 C28.6974922,32.8063522 28.4412383,31.6493127 28.3745616,30.7292596 C28.2775822,29.3910656 28.54088,28.5000002 29.4671337,28.5 C30.3935279,28.4999999 30.8001017,28.9857808 31.1315801,30.0862434 C31.1018063,29.9873985 31.3982424,31.0226621 31.5046504,31.3418861 C31.6093657,31.6560322 31.6830292,31.9986422 31.7325527,32.3747211 C31.7693286,32.6539947 31.7897186,32.8903133 31.8033453,33.2025009 C32.1187301,32.7518273 32.6964556,32.5694009 33.5303087,32.5694008 C34.1193464,32.5694008 34.429019,32.8734485 34.5941035,33.4070606 C34.6716987,33.1059383 34.8245525,32.8869289 35.0767491,32.7413192 C35.3602115,32.5776578 35.5655828,32.5604563 36.2490452,32.5677385 C36.3689303,32.5689927 36.4226229,32.5694008 36.493948,32.5694008 C37.1577064,32.5694008 37.4692282,32.9519024 37.6232638,33.6166263 C37.7363598,33.5419295 37.8743799,33.5 38.0303087,33.5 C39.0887537,33.5 39.5303082,34.2823549 39.5303087,36.4999999 C39.5303088,36.9125726 39.5383263,37.2604767 39.5545164,37.6875433 C39.5985755,38.8497428 39.5948422,38.9979705 39.4485036,39.4100702 C39.350829,39.6851285 39.1951602,39.9468649 38.9303087,40.3000001 C37.8969495,41.6778121 37.7999733,41.8071137 37.5232936,42.1760202 C37.5128419,42.3113719 37.489589,42.4677182 37.4461986,42.6295137 C37.3105875,43.135185 37.0170789,43.5 36.4939481,43.5 C36.1132703,43.5000001 35.8654377,43.3231063 35.5479989,42.9659274 C35.5171651,42.9312336 35.4856518,42.8949899 35.427785,42.8282135 C35.2068051,42.5742554 35.1071553,42.5 35.0303088,42.5 C34.9485456,42.5 34.8282311,42.5907818 34.700807,42.7796466 C34.6023882,42.9255204 34.5330563,43.0769638 34.5023307,43.1649097 L34.3852607,43.5 L30.8609097,43.5 L30.7263952,43.3970347 C30.619372,43.3151129 30.4356308,43.1694172 30.2004805,42.9743411 C29.8090039,42.6495797 29.4173993,42.3046237 29.0505666,41.9532621 C28.7429461,41.6586155 28.4660369,41.3718986 28.2270489,41.0965327 C27.9696019,40.799898 27.7592497,40.5200601 27.6015624,40.2572479 C27.428841,39.969379 27.3434348,39.8424581 26.8324893,39.099907 C26.7378,38.9622963 26.6658609,38.8569915 26.5963947,38.7539705 C25.7086449,37.4374033 25.3537182,36.6448103 25.5452377,35.8787322 C25.9019656,34.4518208 27.3340468,34.0083032 28.3838623,35.0581187 C28.6370553,35.3113117 28.8583541,35.6241829 29.1346995,36.0836864 C29.1979165,36.1888029 29.4094942,36.5495202 29.4503694,36.6177801 C29.5094923,36.7165129 29.5605221,36.7988317 29.6063616,36.8688683 Z M36.530309,37 L37.030309,37.5 L36.530309,37.5 L36.530309,39 L36.530309,37.25 L36.530309,37.5 L36.030309,37.5 L36.530309,37 Z M34.530309,40 C34.530309,40.0668258 34.5763191,40.2556897 34.6402309,40.4066746 C34.6716799,40.4809694 34.7036018,40.537784 34.7259386,40.5650611 C34.7033327,40.5374553 34.6447742,40.5 34.530309,40.5 C34.4206645,40.5 34.3622266,40.5365374 34.3398401,40.5635695 C34.3612657,40.5376978 34.3922768,40.4825576 34.4228269,40.4097725 C34.4855417,40.2603554 34.530309,40.0716349 34.530309,40 L34.530309,38 C34.530309,37.9331742 34.4842988,37.7443103 34.420387,37.5933254 C34.388938,37.5190306 34.3570161,37.462216 34.3346793,37.4349389 C34.3572853,37.4625447 34.4158437,37.5 34.530309,37.5 C34.6399534,37.5 34.6983913,37.4634626 34.7207778,37.4364305 C34.6993522,37.4623022 34.6683411,37.5174424 34.637791,37.5902275 C34.5750762,37.7396446 34.530309,37.9283651 34.530309,38 L34.530309,40 Z M32.530309,40 L32.530309,38 C32.530309,37.9283651 32.5750762,37.7396446 32.637791,37.5902275 C32.6683411,37.5174424 32.6993522,37.4623022 32.7207778,37.4364305 C32.6983913,37.4634626 32.6399534,37.5 32.530309,37.5 C32.4158437,37.5 32.3572853,37.4625447 32.3346793,37.4349389 C32.3570161,37.462216 32.388938,37.5190306 32.420387,37.5933254 C32.4842988,37.7443103 32.530309,37.9331742 32.530309,38 L32.530309,40 C32.530309,40.0716349 32.4855417,40.2603554 32.4228269,40.4097725 C32.3922768,40.4825576 32.3612657,40.5376978 32.3398401,40.5635695 C32.3622266,40.5365374 32.4206645,40.5 32.530309,40.5 C32.6447742,40.5 32.7033327,40.5374553 32.7259386,40.5650611 C32.7036018,40.537784 32.6716799,40.4809694 32.6402309,40.4066746 C32.5763191,40.2556897 32.530309,40.0668258 32.530309,40 Z"></path>
                    </g>
                </g>
                <text id="Switch-Label" font-family=".AppleSystemUIFont" font-size="16" font-weight="normal" letter-spacing="-0.0307692308" fill-opacity="0.87" fill="#000000">
                    <tspan x="62" y="26">Switch Label</tspan>
                </text>
            </g>
        </g>
    </g>
</svg>