<?xml version="1.0" encoding="UTF-8" standalone="no"?>
<svg width="1682px" height="1142px" viewBox="0 0 1682 1142" version="1.1" xmlns="http://www.w3.org/2000/svg" xmlns:xlink="http://www.w3.org/1999/xlink">
    <!-- Generator: Sketch 47.1 (45422) - http://www.bohemiancoding.com/sketch -->
    <title>card-over desktop</title>
    <desc>Created with Sketch.</desc>
    <defs>
        <path d="M55.5878713,21 L72.0792079,21 L71.460396,22.9183168 L65.3029084,22.9183168 L65.3029084,43.3081683 L64.3131188,43.3081683 C63.1683168,43.3081683 62.5804455,42.7821782 62.5804455,41.7920792 L62.5804455,22.8873762 L55,22.8873762 L55.5878713,21 Z M143.490099,26.2289604 C143.644802,25.8886139 144.201733,25.6720297 144.851795,25.6720297 C145.470297,25.6720297 146.089109,25.8886139 146.212871,26.2289604 L151.751238,40.8326114 L150.482673,40.8326114 C149.27599,40.8326114 148.75,40.740099 148.440594,39.8428218 L144.758354,29.0136139 L142.716584,34.7685644 L145.006188,34.7685644 L145.501238,36.4081064 L142.190285,36.4081064 L140.95297,39.8428218 C140.643564,40.740099 140.148824,40.8326114 139.034653,40.8326114 L138.013304,40.8326114 L143.490099,26.2289604 Z M122.72896,26.2289604 C122.883973,25.8886139 123.440903,25.6720297 124.090037,25.6720297 C124.709158,25.6720297 125.29703,25.8886139 125.451733,26.2289604 L131.02104,40.8326114 L129.721535,40.8326114 C128.514851,40.8326114 127.988861,40.740099 127.679455,39.8428218 L123.997525,29.0136139 L121.955446,34.7685644 L124.24505,34.7685644 L124.740099,36.4081064 L121.429455,36.4081064 L120.191832,39.8428218 C119.882426,40.740099 119.387067,40.8326114 118.273515,40.8326114 L117.252475,40.8326114 L122.72896,26.2289604 Z M96.4294554,26.2289604 C96.5841584,25.8886139 97.1410891,25.6720297 97.7908416,25.6720297 C98.4096535,25.6720297 98.9975248,25.8886139 99.1212871,26.1980198 L104.690594,40.8019802 L103.42203,40.8019802 C102.215347,40.8019802 101.689356,40.7091584 101.37995,39.8118812 L97.6980198,28.9826733 L95.6556312,34.7376238 L97.9455446,34.7376238 L98.4402847,36.3774752 L95.1299505,36.3774752 L93.8923267,39.8118812 C93.5519802,40.7091584 93.0878713,40.8019802 91.9740099,40.8019802 L89.5915842,40.8019802 C88.5086634,40.8019802 88.2920792,40.7091584 87.8282797,39.904703 L83.7125619,32.8811881 L84.9195545,32.8811881 C86.5284653,32.8811881 87.8589109,32.4173886 87.8589109,30.9628713 L87.8589109,29.6943069 C87.8589109,28.2710396 86.8069307,27.5284653 84.7029703,27.5284653 L82.7846535,27.5284653 L82.7846535,40.771349 L73.9975248,40.8019802 C69.2636139,40.8019802 68.4591584,39.6571782 68.4591584,36.1915223 L68.4591584,25.8576733 L78.2054455,25.8576733 L77.710396,27.5284653 L71.1816213,27.5284653 L71.1816213,31.9217203 L76.1017946,31.9217203 L75.6064356,33.5928218 L71.1509901,33.5928218 L71.1509901,36.2227723 C71.1509901,38.6667698 71.7079208,39.1927599 74.0594059,39.1927599 L80.0309406,39.1927599 L80.0309406,25.8886139 L84.6720297,25.8886139 C87.9826733,25.8886139 90.4888614,27.0024752 90.4888614,29.6943069 L90.4888614,30.9938119 C90.4888614,32.8502475 89.2512376,33.9641089 87.2091584,34.3044554 L91.1386139,40.2756807 L96.4294554,26.2289604 Z M128.700495,25.8886139 L141.107673,25.8886139 L140.643564,27.5594059 L136.033416,27.5594059 L136.033416,40.8638614 L135.043317,40.8638614 C133.898515,40.8638614 133.310334,40.3378713 133.310334,39.3477723 L133.310334,27.5594059 L128.205446,27.5594059 L128.700495,25.8886139 Z M105.742574,25.8886139 L110.816832,25.8886139 C115.148515,25.8886139 117.283416,27.9616337 117.283416,32.1695545 L117.283416,34.7376238 C117.283416,38.9455446 115.396349,40.7091584 111.373762,40.8638614 L110.816832,40.8638614 L107.444307,40.8638614 C106.299505,40.8638614 105.742574,40.3378713 105.742574,39.3477723 L105.742574,25.8886139 Z M108.434715,27.5284653 L108.434715,39.1927599 L110.878713,39.1927599 C113.570545,39.1927599 114.560644,37.7079208 114.560644,34.6757426 L114.530012,34.6757426 L114.530012,32.1695545 C114.530012,29.1370668 113.539604,27.5284653 110.785891,27.5284653 L108.434715,27.5284653 Z M152.834158,38.6980198 C153.081683,38.450495 153.391089,38.3267327 153.731436,38.3267327 C154.072092,38.3267327 154.381498,38.450495 154.628713,38.6980198 C154.876238,38.9455446 155,39.2549505 155,39.595297 C155,39.935953 154.876238,40.2450495 154.628713,40.4925743 C154.381498,40.740099 154.072092,40.8638614 153.731436,40.8638614 C153.391089,40.8638614 153.081683,40.740099 152.834158,40.4925743 C152.586634,40.2450495 152.462871,39.935953 152.462871,39.595297 C152.462871,39.2549505 152.586634,38.9455446 152.834158,38.6980198 Z M152.957921,40.3685025 C153.174505,40.5850866 153.42203,40.6782178 153.731436,40.6782178 C154.040842,40.6782178 154.288676,40.5544554 154.504641,40.3685025 C154.721225,40.1525371 154.814356,39.904703 154.814356,39.595297 C154.814356,39.2858911 154.721225,39.0383663 154.504641,38.8217822 C154.288676,38.605198 154.040842,38.5123762 153.731436,38.5123762 C153.42203,38.4814356 153.174505,38.605198 152.957921,38.8217822 C152.741337,39.0383663 152.648515,39.2858911 152.648515,39.595297 C152.648515,39.904703 152.741337,40.1525371 152.957921,40.3685025 Z M153.700495,38.914604 L153.700495,38.883354 C153.885829,38.883354 154.009901,38.914604 154.072092,38.9455446 C154.226485,39.0074257 154.288676,39.1311881 154.288676,39.2858911 C154.288676,39.4096535 154.257426,39.5024752 154.164604,39.5643564 C154.102723,39.595297 154.040842,39.6262376 153.94802,39.6262376 C154.072092,39.6571782 154.133663,39.6884282 154.195235,39.7496906 C154.257426,39.8118812 154.257426,39.904703 154.257426,39.9665842 L154.257426,40.0590965 L154.257426,40.1525371 L154.257426,40.2141089 L154.257426,40.2450495 L154.009901,40.2450495 L154.009901,40.2141089 L154.009901,40.1831683 L154.009901,40.0903465 C154.009901,39.935953 153.97896,39.8118812 153.885829,39.7809406 C153.824257,39.7496906 153.731436,39.7496906 153.607673,39.7496906 L153.42203,39.7496906 L153.42203,40.3069307 L153.174505,40.3069307 L153.174505,38.914604 L153.700495,38.914604 Z M153.45297,39.0383663 L153.45297,39.5334158 L153.669554,39.5334158 C153.762376,39.5334158 153.855198,39.5334158 153.917079,39.5024752 C154.009901,39.4715347 154.072092,39.3790223 154.072092,39.2858911 C154.072092,39.2240099 154.040842,39.1311881 153.97896,39.1002475 C153.917079,39.0696163 153.824257,39.0383663 153.669554,39.0383663 L153.45297,39.0383663 Z" id="path-1"></path>
    </defs>
    <g id="Page-1" stroke="none" stroke-width="1" fill="none" fill-rule="evenodd">
        <g id="card-over-desktop">
            <g id="laptop-bg-list-card-over">
                <g id="Rectangle-1">
                    <g id="path-1-link" fill="#37474F">
                        <path d="M0,39.9956201 C0,17.9066491 17.909579,0 39.995828,0 L1642.00417,0 C1664.09326,0 1682,17.9093683 1682,39.9956201 L1682,1102.00438 C1682,1124.09335 1664.09042,1142 1642.00417,1142 L39.995828,1142 C17.906742,1142 0,1124.09063 0,1102.00438 L0,39.9956201 Z M122,133 L122,1033 L1562,1033 L1562,133 L122,133 Z" id="path-1"></path>
                    </g>
                    <path d="M0.5,39.9956201 L0.5,1102.00438 C0.5,1123.81543 18.183828,1141.5 39.995828,1141.5 L1642.00417,1141.5 C1663.81526,1141.5 1681.5,1123.81622 1681.5,1102.00438 L1681.5,39.9956201 C1681.5,18.1845668 1663.81617,0.5 1642.00417,0.5 L39.995828,0.5 C18.184735,0.5 0.5,18.183777 0.5,39.9956201 Z M121.5,132.5 L1562.5,132.5 L1562.5,1033.5 L121.5,1033.5 L121.5,132.5 Z" id="Shape" stroke="#979797"></path>
                </g>
            </g>
            <g transform="translate(121.000000, 130.000000)">
                <g id="molecules/toolbar-tall">
                    <rect id="Rectangle-1" fill="#F16C00" x="0" y="0" width="1442" height="192"></rect>
                    <g id="molecules/toolbar">
                        <rect id="Rectangle-1" fill="#F16C00" x="0" y="0" width="1442" height="64"></rect>
                        <path d="M1407,40 C1405.89543,40 1405,39.1045695 1405,38 C1405,36.8954305 1405.89543,36 1407,36 C1408.10457,36 1409,36.8954305 1409,38 C1409,39.1045695 1408.10457,40 1407,40 Z M1407,34 C1405.89543,34 1405,33.1045695 1405,32 C1405,30.8954305 1405.89543,30 1407,30 C1408.10457,30 1409,30.8954305 1409,32 C1409,33.1045695 1408.10457,34 1407,34 Z M1407,28 C1405.89543,28 1405,27.1045695 1405,26 C1405,24.8954305 1405.89543,24 1407,24 C1408.10457,24 1409,24.8954305 1409,26 C1409,27.1045695 1408.10457,28 1407,28 Z" id="more-vert" fill="#FFFFFF"></path>
                        <path d="M1354.36248,34.83464 L1354.1076,35.08952 L1353.15504,34.13696 C1354.10688,32.9612 1354.68,31.4672 1354.68,29.84 C1354.68,26.06864 1351.61136,23 1347.84,23 C1344.06864,23 1341,26.06864 1341,29.84 C1341,33.61136 1344.06864,36.68 1347.84,36.68 C1349.4672,36.68 1350.9612,36.10688 1352.13696,35.15504 L1353.08952,36.1076 L1352.83464,36.36248 L1357.15608,40.68392 L1358.6832,39.1568 L1354.36248,34.83464 L1354.36248,34.83464 Z M1347.84072,34.52 C1345.26024,34.52 1343.16072,32.42048 1343.16072,29.84 C1343.16072,27.25952 1345.26024,25.16 1347.84072,25.16 C1350.4212,25.16 1352.52072,27.25952 1352.52072,29.84 C1352.52072,32.42048 1350.42048,34.52 1347.84072,34.52 L1347.84072,34.52 Z" id="Shape" fill="#FFFFFF"></path>
                        <text id="Toolbar" fill="#FFFFFF" font-family=".SFNSDisplay-Regular, .SF NS Display" font-size="20" font-weight="normal">
                            <tspan x="166" y="39">Toolbar</tspan>
                        </text>
                        <path d="M21,31 L39,31 L39,33 L21,33 L21,31 Z M21,36 L39,36 L39,38 L21,38 L21,36 Z M21,26 L39,26 L39,28 L21,28 L21,26 Z" id="menu" fill="#FFFFFF"></path>
                        <mask id="mask-2" fill="white">
                            <use xlink:href="#path-1"></use>
                        </mask>
                        <use id="Clip-2" fill="#FFFFFF" xlink:href="#path-1"></use>
                    </g>
                </g>
                <g id="paper-shadow-z=&quot;1&quot;-copy-5" transform="translate(180.000000, 99.000000)">
                    <g id="path-2-link" fill-rule="nonzero" fill="#000000">
                        <rect id="path-2" x="0" y="0" width="1080" height="656" rx="2"></rect>
                    </g>
                    <g id="path-2-link" fill="#FFFFFF">
                        <rect id="path-2" x="0" y="0" width="1080" height="656" rx="2"></rect>
                    </g>
                </g>
                <g id="atoms/card-footer-single" transform="translate(180.000000, 705.000000)">
                    <g id="atoms/button-primary" transform="translate(48.000000, 18.000000)" font-size="14" font-family=".AppleSystemUIFont" fill="#F57C00" font-weight="normal">
                        <g id="BUTTON">
                            <text id="SAVE">
                                <tspan x="0.2349985" y="14">SAVE</tspan>
                            </text>
                        </g>
                    </g>
                    <g id="atoms/divider" fill="#000000" fill-opacity="0.12">
                        <rect id="divider" x="0" y="0" width="1080" height="1" rx="0.5"></rect>
                    </g>
                </g>
                <g id="atoms/card-title-back" transform="translate(180.000000, 126.000000)" fill="#000000">
                    <g id="atoms/divider" transform="translate(0.000000, 65.000000)" fill-opacity="0.12">
                        <rect id="divider" x="0" y="0" width="1080" height="1" rx="0.5"></rect>
                    </g>
                    <g id="Card-Subtitle" transform="translate(56.000000, 32.000000)" fill-opacity="0.54" font-family=".AppleSystemUIFont" font-size="15" font-weight="normal">
                        <text id="multi-step-process-with-stepper">
                            <tspan x="0" y="15">multi-step process with stepper</tspan>
                        </text>
                    </g>
                    <g id="Card-Title" transform="translate(56.000000, 0.000000)" fill-opacity="0.87" font-family=".SFNSDisplay-Regular, .SF NS Display" font-size="24" font-weight="normal">
                        <text id="Create-Item">
                            <tspan x="0" y="23">Create Item</tspan>
                        </text>
                    </g>
                    <g id="arrow_back" transform="translate(20.000000, 16.000000)" fill-opacity="0.54">
                        <polygon id="Shape" points="16 7 3.83 7 9.42 1.41 8 0 0 8 8 16 9.41 14.59 3.83 9 16 9"></polygon>
                    </g>
                    <path d="M1062,16 C1060.89543,16 1060,15.1045695 1060,14 C1060,12.8954305 1060.89543,12 1062,12 C1063.10457,12 1064,12.8954305 1064,14 C1064,15.1045695 1063.10457,16 1062,16 Z M1062,10 C1060.89543,10 1060,9.1045695 1060,8 C1060,6.8954305 1060.89543,6 1062,6 C1063.10457,6 1064,6.8954305 1064,8 C1064,9.1045695 1063.10457,10 1062,10 Z M1062,4 C1060.89543,4 1060,3.1045695 1060,2 C1060,0.8954305 1060.89543,0 1062,0 C1063.10457,0 1064,0.8954305 1064,2 C1064,3.1045695 1063.10457,4 1062,4 Z" id="more-vert-2" fill-opacity="0.54"></path>
                </g>
                <g id="molecules/stepper" transform="translate(226.000000, 232.000000)">
                    <g id="Group-2">
                        <g id="atoms/button" transform="translate(166.000000, 262.000000)" font-size="14" font-family=".AppleSystemUIFont" fill="#444444" font-weight="normal">
                            <g id="BUTTON">
                                <text id="CANCEL">
                                    <tspan x="0.0900466" y="14">CANCEL</tspan>
                                </text>
                            </g>
                        </g>
                        <g id="atoms/button-raised-accent" transform="translate(43.000000, 252.000000)">
                            <g id="clip">
                                <g id="path-4-link" fill-rule="nonzero" fill="#000000">
                                    <rect id="path-4" x="0" y="0" width="90" height="36" rx="3"></rect>
                                </g>
                                <g id="path-4-link" fill="#039BE5">
                                    <rect id="path-4" x="0" y="0" width="90" height="36" rx="3"></rect>
                                </g>
                            </g>
                            <g id="BUTTON" transform="translate(10.000000, 10.000000)" font-size="14" font-family=".AppleSystemUIFont" fill="#FFFFFF" font-weight="normal">
                                <text id="CONTINUE">
                                    <tspan x="0.7224384" y="14">CONTINUE</tspan>
                                </text>
                            </g>
                        </g>
                        <rect id="divider" fill-opacity="0.12" fill="#000000" fill-rule="nonzero" transform="translate(12.000000, 381.000000) rotate(90.000000) translate(-12.000000, -381.000000) " x="0" y="380.5" width="24" height="1" rx="0.5"></rect>
                        <rect id="divider-copy" fill-opacity="0.12" fill="#000000" fill-rule="nonzero" transform="translate(12.500000, 180.500000) rotate(90.000000) translate(-12.500000, -180.500000) " x="-136" y="180" width="297" height="1" rx="0.5"></rect>
                        <g id="atoms/stepper-inactive" transform="translate(0.000000, 401.000000)">
                            <g id="Group">
                                <text id="Advanced-Options" fill-opacity="0.87" fill="#000000" font-family=".AppleSystemUIFont" font-size="14" font-weight="normal">
                                    <tspan x="36.5" y="19">Advanced Options</tspan>
                                </text>
                                <circle id="Oval-20-Copy" fill="#9E9E9E" fill-rule="nonzero" cx="12" cy="12" r="12"></circle>
                                <text id="3" fill-opacity="0.87" fill="#FFFFFF" font-family=".AppleSystemUIFont" font-size="12" font-weight="normal">
                                    <tspan x="8.74981971" y="17">3</tspan>
                                </text>
                            </g>
                        </g>
                        <g id="atoms/stepper-inactive" transform="translate(0.000000, 337.000000)">
                            <g id="Group">
                                <text id="Content" fill-opacity="0.87" fill="#000000" font-family=".AppleSystemUIFont" font-size="14" font-weight="normal">
                                    <tspan x="36.5" y="19">Content</tspan>
                                </text>
                                <circle id="Oval-20-Copy" fill="#9E9E9E" fill-rule="nonzero" cx="12" cy="12" r="12"></circle>
                                <text id="2" fill-opacity="0.87" fill="#FFFFFF" font-family=".AppleSystemUIFont" font-size="12" font-weight="normal">
                                    <tspan x="8.88751502" y="17">2</tspan>
                                </text>
                            </g>
                        </g>
                        <g id="atoms/stepper-active">
                            <g id="Group">
                                <text id="Metadata" fill-opacity="0.87" fill="#000000" font-family=".AppleSystemUIFont" font-size="14" font-weight="normal">
                                    <tspan x="36" y="19">Metadata</tspan>
                                </text>
                                <circle id="Oval-20-Copy" fill="#F16C00" fill-rule="nonzero" cx="12" cy="12" r="12"></circle>
                                <text id="1" fill-opacity="0.87" fill="#FFFFFF" font-family=".AppleSystemUIFont" font-size="12" font-weight="normal">
                                    <tspan x="9.7136869" y="17">1</tspan>
                                </text>
                            </g>
                        </g>
                    </g>
                </g>
                <g id="atoms/input-active" transform="translate(271.000000, 280.000000)">
                    <g id="Group" transform="translate(1.000000, 0.000000)">
                        <text id="Post-Title" fill="#F57C00" font-family=".AppleSystemUIFont" font-size="12" font-weight="normal">
                            <tspan x="0" y="12">Post Title</tspan>
                        </text>
                        <path d="M0.5,25.5 L0.5,43.5277557" id="Line" stroke="#000000" stroke-linecap="square"></path>
                    </g>
                    <rect id="Rectangle-69" fill="#F16C00" fill-rule="nonzero" x="0" y="50" width="322" height="2"></rect>
                </g>
                <g id="atoms/textarea" transform="translate(271.000000, 353.000000)">
                    <g id="Text" transform="translate(0.000000, 24.000000)" fill-opacity="0.2" font-family=".AppleSystemUIFont" fill="#000000" font-size="16" font-weight="normal">
                        <text id="Lorem-ipsum-dolor-sit-amet,-doming-noster-at-quo,-nostrud-lucilius-rationibus-ea-duo.-Vim-no">
                            <tspan x="0" y="15">Lorem ipsum dolor sit amet, doming noster at quo, nostrud lucilius rationibus ea duo. Vim no</tspan>
                        </text>
                        <text id="mucius-dolores.-No-bonorum-voluptatum-vis,-has-iudicabit-consectetuer-ne.-Nullam-sensibus">
                            <tspan x="0" y="33">mucius dolores. No bonorum voluptatum vis, has iudicabit consectetuer ne. Nullam sensibus</tspan>
                        </text>
                        <text id="vim-id,-et-quo-graeci-perpetua.">
                            <tspan x="0" y="51">vim id, et quo graeci perpetua.</tspan>
                        </text>
                    </g>
                    <g id="Label" fill-opacity="0.4" font-family=".AppleSystemUIFont" fill="#000000" font-size="12" font-weight="normal">
                        <text id="Text-area">
                            <tspan x="0" y="12">Text area</tspan>
                        </text>
                    </g>
                    <path d="M0.5,99.5 L680.5,99.5" id="Line" stroke-opacity="0.12" stroke="#000000" stroke-linecap="square"></path>
                </g>
                <g id="atoms/select-menu" transform="translate(613.000000, 305.000000)" fill="#000000">
                    <g id="Placeholder" fill-opacity="0.2" font-family=".AppleSystemUIFont" font-size="16" font-weight="normal">
                        <text id="Select-Category">
                            <tspan x="0" y="15">Select Category</tspan>
                        </text>
                    </g>
                    <rect id="Rectangle-69" fill-opacity="0.12" x="0" y="29" width="328" height="1"></rect>
                    <polygon id="Shape" fill-opacity="0.54" points="312 10 317 15 322 10"></polygon>
                </g>
                <g id="molecules/datepicker-desktop-open" transform="translate(976.000000, 270.000000)">
                    <g id="date-picker-open" transform="translate(1.000000, 16.000000)">
                        <g id="date-picker-bg" transform="translate(27.000000, 0.000000)">
                            <g id="path-6-link" fill-rule="nonzero" fill="#000000">
                                <rect id="path-6" x="0" y="0" width="343" height="383" rx="2"></rect>
                            </g>
                            <g id="path-6-link" fill="#FFFFFF">
                                <rect id="path-6" x="0" y="0" width="343" height="383" rx="2"></rect>
                            </g>
                        </g>
                        <g id="Rectangle-117-Copy" transform="translate(27.000000, 40.000000)">
                            <g id="path-8-link" fill-rule="nonzero" fill="#000000">
                                <rect id="path-8" x="0" y="0" width="343" height="42"></rect>
                            </g>
                            <g id="path-8-link" fill="#E0E0E0">
                                <rect id="path-8" x="0" y="0" width="343" height="42"></rect>
                            </g>
                        </g>
                        <rect id="Rectangle-117-Copy-2" fill-opacity="0.12" fill="#000000" fill-rule="nonzero" x="27" y="346" width="343" height="1"></rect>
                        <g id="Oct-2015" transform="translate(52.000000, 95.000000)" fill-opacity="0.87" font-family=".AppleSystemUIFont" fill="#000000" font-size="14" font-weight="normal">
                            <text id="Oct-2017">
                                <tspan x="0" y="14">Oct 2017</tspan>
                            </text>
                        </g>
                        <path d="M287,121 C296.941125,121 305,112.941125 305,103 C305,93.0588745 296.941125,85 287,85 C277.058875,85 269,93.0588745 269,103 C269,112.941125 277.058875,121 287,121 Z" id="Oval-50" fill="#F16C00" fill-rule="nonzero"></path>
                        <g id="1" transform="translate(240.000000, 95.000000)" fill-opacity="0.87" font-family=".AppleSystemUIFont" fill="#000000" font-size="13" font-weight="normal">
                            <text>
                                <tspan x="0.00708" y="13">1</tspan>
                            </text>
                        </g>
                        <g id="4" transform="translate(63.000000, 139.000000)" fill-opacity="0.87" font-family=".AppleSystemUIFont" fill="#000000" font-size="13" font-weight="normal">
                            <text>
                                <tspan x="0" y="13">4</tspan>
                            </text>
                        </g>
                        <g id="7" transform="translate(195.000000, 139.000000)" fill-opacity="0.87" font-family=".AppleSystemUIFont" fill="#000000" font-size="13" font-weight="normal">
                            <text>
                                <tspan x="0.334229" y="13">7</tspan>
                            </text>
                        </g>
                        <g id="2" transform="translate(283.000000, 95.000000)" fill-opacity="0.87" font-family=".AppleSystemUIFont" fill="#FFFFFF" font-size="13" font-weight="normal">
                            <text>
                                <tspan x="0.112061" y="13">2</tspan>
                            </text>
                        </g>
                        <g id="5" transform="translate(107.000000, 139.000000)" fill-opacity="0.87" font-family=".AppleSystemUIFont" fill="#000000" font-size="13" font-weight="normal">
                            <text>
                                <tspan x="0.016846" y="13">5</tspan>
                            </text>
                        </g>
                        <g id="8" transform="translate(239.000000, 139.000000)" fill-opacity="0.87" font-family=".AppleSystemUIFont" fill="#000000" font-size="13" font-weight="normal">
                            <text>
                                <tspan x="0" y="13">8</tspan>
                            </text>
                        </g>
                        <g id="3" transform="translate(327.000000, 95.000000)" fill-opacity="0.87" font-family=".AppleSystemUIFont" fill="#000000" font-size="13" font-weight="normal">
                            <text>
                                <tspan x="0" y="13">3</tspan>
                            </text>
                        </g>
                        <g id="6" transform="translate(151.000000, 139.000000)" fill-opacity="0.87" font-family=".AppleSystemUIFont" fill="#000000" font-size="13" font-weight="normal">
                            <text>
                                <tspan x="0" y="13">6</tspan>
                            </text>
                        </g>
                        <g id="9" transform="translate(283.000000, 139.000000)" fill-opacity="0.87" font-family=".AppleSystemUIFont" fill="#000000" font-size="13" font-weight="normal">
                            <text>
                                <tspan x="0" y="13">9</tspan>
                            </text>
                        </g>
                        <g id="10" transform="translate(321.000000, 139.000000)" fill-opacity="0.87" font-family=".AppleSystemUIFont" fill="#000000" font-size="13" font-weight="normal">
                            <text>
                                <tspan x="0.950928" y="13">10</tspan>
                            </text>
                        </g>
                        <g id="11" transform="translate(61.000000, 184.000000)" fill-opacity="0.87" font-family=".AppleSystemUIFont" fill="#000000" font-size="13" font-weight="normal">
                            <text>
                                <tspan x="0.0141602" y="13">11</tspan>
                            </text>
                        </g>
                        <g id="14" transform="translate(191.000000, 184.000000)" fill-opacity="0.87" font-family=".AppleSystemUIFont" fill="#000000" font-size="13" font-weight="normal">
                            <text>
                                <tspan x="0.862061" y="13">14</tspan>
                            </text>
                        </g>
                        <g id="12" transform="translate(104.000000, 184.000000)" fill-opacity="0.87" font-family=".AppleSystemUIFont" fill="#000000" font-size="13" font-weight="normal">
                            <text>
                                <tspan x="0.119141" y="13">12</tspan>
                            </text>
                        </g>
                        <g id="15" transform="translate(236.000000, 184.000000)" fill-opacity="0.87" font-family=".AppleSystemUIFont" fill="#000000" font-size="13" font-weight="normal">
                            <text>
                                <tspan x="0.023926" y="13">15</tspan>
                            </text>
                        </g>
                        <g id="13" transform="translate(147.000000, 184.000000)" fill-opacity="0.87" font-family=".AppleSystemUIFont" fill="#000000" font-size="13" font-weight="normal">
                            <text>
                                <tspan x="0.969971" y="13">13</tspan>
                            </text>
                        </g>
                        <g id="16" transform="translate(279.000000, 184.000000)" fill-opacity="0.87" font-family=".AppleSystemUIFont" fill="#000000" font-size="13" font-weight="normal">
                            <text>
                                <tspan x="0.90332" y="13">16</tspan>
                            </text>
                        </g>
                        <g id="17" transform="translate(322.000000, 184.000000)" fill-opacity="0.87" font-family=".AppleSystemUIFont" fill="#000000" font-size="13" font-weight="normal">
                            <text>
                                <tspan x="0.341309" y="13">17</tspan>
                            </text>
                        </g>
                        <g id="18" transform="translate(59.000000, 227.000000)" fill-opacity="0.87" font-family=".AppleSystemUIFont" fill="#000000" font-size="13" font-weight="normal">
                            <text>
                                <tspan x="0.8937988" y="13">18</tspan>
                            </text>
                        </g>
                        <g id="21" transform="translate(192.000000, 227.000000)" fill-opacity="0.87" font-family=".AppleSystemUIFont" fill="#000000" font-size="13" font-weight="normal">
                            <text>
                                <tspan x="0.119141" y="13">21</tspan>
                            </text>
                        </g>
                        <g id="19" transform="translate(103.000000, 227.000000)" fill-opacity="0.87" font-family=".AppleSystemUIFont" fill="#000000" font-size="13" font-weight="normal">
                            <text>
                                <tspan x="0.90332" y="13">19</tspan>
                            </text>
                        </g>
                        <g id="22" transform="translate(239.000000, 227.000000)" fill-opacity="0.87" font-family=".AppleSystemUIFont" fill="#000000" font-size="13" font-weight="normal">
                            <text id="2">
                                <tspan x="0.112061" y="13">2</tspan>
                            </text>
                            <text id="2">
                                <tspan x="0.112061" y="29">2</tspan>
                            </text>
                        </g>
                        <g id="20" transform="translate(150.000000, 227.000000)" fill-opacity="0.87" font-family=".AppleSystemUIFont" fill="#000000" font-size="13" font-weight="normal">
                            <text id="2">
                                <tspan x="1.112061" y="13">2</tspan>
                            </text>
                            <text id="0">
                                <tspan x="0.943848" y="29">0</tspan>
                            </text>
                        </g>
                        <g id="23" transform="translate(282.000000, 227.000000)" fill-opacity="0.87" font-family=".AppleSystemUIFont" fill="#000000" font-size="13" font-weight="normal">
                            <text id="2">
                                <tspan x="1.112061" y="13">2</tspan>
                            </text>
                            <text id="3">
                                <tspan x="0.962891" y="29">3</tspan>
                            </text>
                        </g>
                        <g id="24" transform="translate(324.000000, 227.000000)" fill-opacity="0.87" font-family=".AppleSystemUIFont" fill="#000000" font-size="13" font-weight="normal">
                            <text id="2">
                                <tspan x="1.207275" y="13">2</tspan>
                            </text>
                            <text id="4">
                                <tspan x="0.85498" y="29">4</tspan>
                            </text>
                        </g>
                        <g id="25" transform="translate(63.000000, 270.000000)" fill-opacity="0.87" font-family=".AppleSystemUIFont" fill="#000000" font-size="13" font-weight="normal">
                            <text id="2">
                                <tspan x="0.1120605" y="13">2</tspan>
                            </text>
                            <text id="5">
                                <tspan x="0.0168457" y="29">5</tspan>
                            </text>
                        </g>
                        <g id="S" transform="translate(63.000000, 53.000000)" fill-opacity="0.87" font-family=".AppleSystemUIFont" fill="#000000" font-size="13" font-weight="normal">
                            <text>
                                <tspan x="0" y="13.5">S</tspan>
                            </text>
                        </g>
                        <g id="28" transform="translate(194.000000, 270.000000)" fill-opacity="0.87" font-family=".AppleSystemUIFont" fill="#000000" font-size="13" font-weight="normal">
                            <text id="2">
                                <tspan x="1.112061" y="13">2</tspan>
                            </text>
                            <text id="8">
                                <tspan x="0.886719" y="29">8</tspan>
                            </text>
                        </g>
                        <g id="W" transform="translate(193.000000, 53.000000)" fill-opacity="0.87" font-family=".AppleSystemUIFont" fill="#000000" font-size="13" font-weight="normal">
                            <text>
                                <tspan x="0" y="13.5">W</tspan>
                            </text>
                        </g>
                        <g id="26" transform="translate(106.000000, 270.000000)" fill-opacity="0.87" font-family=".AppleSystemUIFont" fill="#000000" font-size="13" font-weight="normal">
                            <text id="2">
                                <tspan x="1.112061" y="13">2</tspan>
                            </text>
                            <text id="6">
                                <tspan x="0.89624" y="29">6</tspan>
                            </text>
                        </g>
                        <g id="M" transform="translate(105.000000, 53.000000)" fill-opacity="0.87" font-family=".AppleSystemUIFont" fill="#000000" font-size="13" font-weight="normal">
                            <text>
                                <tspan x="0.356934" y="13.5">M</tspan>
                            </text>
                        </g>
                        <g id="29" transform="translate(238.000000, 270.000000)" fill-opacity="0.87" font-family=".AppleSystemUIFont" fill="#000000" font-size="13" font-weight="normal">
                            <text id="2">
                                <tspan x="1.112061" y="13">2</tspan>
                            </text>
                            <text id="9">
                                <tspan x="0.89624" y="29">9</tspan>
                            </text>
                        </g>
                        <g id="T" transform="translate(239.000000, 53.000000)" fill-opacity="0.87" font-family=".AppleSystemUIFont" fill="#000000" font-size="13" font-weight="normal">
                            <text>
                                <tspan x="0" y="13.5">T</tspan>
                            </text>
                        </g>
                        <g id="27" transform="translate(151.000000, 270.000000)" fill-opacity="0.87" font-family=".AppleSystemUIFont" fill="#000000" font-size="13" font-weight="normal">
                            <text id="2">
                                <tspan x="0.112061" y="13">2</tspan>
                            </text>
                            <text id="7">
                                <tspan x="0.334229" y="29">7</tspan>
                            </text>
                        </g>
                        <g id="T" transform="translate(151.000000, 53.000000)" fill-opacity="0.87" font-family=".AppleSystemUIFont" fill="#000000" font-size="13" font-weight="normal">
                            <text>
                                <tspan x="0" y="13.5">T</tspan>
                            </text>
                        </g>
                        <g id="30" transform="translate(282.000000, 270.000000)" fill-opacity="0.87" font-family=".AppleSystemUIFont" fill="#000000" font-size="13" font-weight="normal">
                            <text id="3">
                                <tspan x="0.962891" y="13">3</tspan>
                            </text>
                            <text id="0">
                                <tspan x="0.943848" y="29">0</tspan>
                            </text>
                        </g>
                        <g id="F" transform="translate(283.000000, 53.000000)" fill-opacity="0.87" font-family=".AppleSystemUIFont" fill="#000000" font-size="13" font-weight="normal">
                            <text>
                                <tspan x="0.318359" y="13.5">F</tspan>
                            </text>
                        </g>
                        <g id="31" transform="translate(321.000000, 270.000000)" fill-opacity="0.87" font-family=".AppleSystemUIFont" fill="#000000" font-size="13" font-weight="normal">
                            <text>
                                <tspan x="0.969971" y="13">31</tspan>
                            </text>
                        </g>
                        <g id="S" transform="translate(325.000000, 53.000000)" fill-opacity="0.87" font-family=".AppleSystemUIFont" fill="#000000" font-size="13" font-weight="normal">
                            <text>
                                <tspan x="0" y="13.5">S</tspan>
                            </text>
                        </g>
                        <g id="Nov-2015" transform="translate(52.000000, 355.000000)" fill-opacity="0.87" font-family=".AppleSystemUIFont" fill="#000000" font-size="14" font-weight="normal">
                            <text id="Nov-2017">
                                <tspan x="0" y="14">Nov 2017</tspan>
                            </text>
                        </g>
                        <g id="mm/dd/yyyy" transform="translate(52.000000, 11.000000)" fill-opacity="0.87" font-family=".AppleSystemUIFont" fill="#000000" font-size="14" font-weight="normal">
                            <text>
                                <tspan x="0" y="14">mm/dd/yyyy</tspan>
                            </text>
                        </g>
                        <g id="today" transform="translate(0.000000, 8.000000)" fill-rule="nonzero" fill="#F16C00">
                            <path d="M16,2 L15,2 L15,0 L13,0 L13,2 L5,2 L5,0 L3,0 L3,2 L2,2 C0.9,2 0,2.9 0,4 L0,18 C0,19.1 0.9,20 2,20 L16,20 C17.1,20 18,19.1 18,18 L18,4 C18,2.9 17.1,2 16,2 L16,2 Z M16,18 L2,18 L2,7 L16,7 L16,18 L16,18 Z" id="Shape"></path>
                            <rect id="Rectangle-path" x="4" y="9" width="5" height="5"></rect>
                        </g>
                    </g>
                    <g id="-Date-label" fill-opacity="0.54" font-family=".AppleSystemUIFont" fill="#000000" font-size="12" font-weight="normal">
                        <text id="Publish-Date">
                            <tspan x="0" y="12">Publish Date</tspan>
                        </text>
                    </g>
                </g>
            </g>
        </g>
    </g>
</svg>