<?xml version="1.0" encoding="UTF-8" standalone="no"?>
<svg width="1682px" height="1142px" viewBox="0 0 1682 1142" version="1.1" xmlns="http://www.w3.org/2000/svg" xmlns:xlink="http://www.w3.org/1999/xlink">
    <!-- Generator: Sketch 47.1 (45422) - http://www.bohemiancoding.com/sketch -->
    <title>nav-list desktop</title>
    <desc>Created with Sketch.</desc>
    <defs>
        <path d="M55.5878713,21 L72.0792079,21 L71.460396,22.9183168 L65.3029084,22.9183168 L65.3029084,43.3081683 L64.3131188,43.3081683 C63.1683168,43.3081683 62.5804455,42.7821782 62.5804455,41.7920792 L62.5804455,22.8873762 L55,22.8873762 L55.5878713,21 Z M143.490099,26.2289604 C143.644802,25.8886139 144.201733,25.6720297 144.851795,25.6720297 C145.470297,25.6720297 146.089109,25.8886139 146.212871,26.2289604 L151.751238,40.8326114 L150.482673,40.8326114 C149.27599,40.8326114 148.75,40.740099 148.440594,39.8428218 L144.758354,29.0136139 L142.716584,34.7685644 L145.006188,34.7685644 L145.501238,36.4081064 L142.190285,36.4081064 L140.95297,39.8428218 C140.643564,40.740099 140.148824,40.8326114 139.034653,40.8326114 L138.013304,40.8326114 L143.490099,26.2289604 Z M122.72896,26.2289604 C122.883973,25.8886139 123.440903,25.6720297 124.090037,25.6720297 C124.709158,25.6720297 125.29703,25.8886139 125.451733,26.2289604 L131.02104,40.8326114 L129.721535,40.8326114 C128.514851,40.8326114 127.988861,40.740099 127.679455,39.8428218 L123.997525,29.0136139 L121.955446,34.7685644 L124.24505,34.7685644 L124.740099,36.4081064 L121.429455,36.4081064 L120.191832,39.8428218 C119.882426,40.740099 119.387067,40.8326114 118.273515,40.8326114 L117.252475,40.8326114 L122.72896,26.2289604 Z M96.4294554,26.2289604 C96.5841584,25.8886139 97.1410891,25.6720297 97.7908416,25.6720297 C98.4096535,25.6720297 98.9975248,25.8886139 99.1212871,26.1980198 L104.690594,40.8019802 L103.42203,40.8019802 C102.215347,40.8019802 101.689356,40.7091584 101.37995,39.8118812 L97.6980198,28.9826733 L95.6556312,34.7376238 L97.9455446,34.7376238 L98.4402847,36.3774752 L95.1299505,36.3774752 L93.8923267,39.8118812 C93.5519802,40.7091584 93.0878713,40.8019802 91.9740099,40.8019802 L89.5915842,40.8019802 C88.5086634,40.8019802 88.2920792,40.7091584 87.8282797,39.904703 L83.7125619,32.8811881 L84.9195545,32.8811881 C86.5284653,32.8811881 87.8589109,32.4173886 87.8589109,30.9628713 L87.8589109,29.6943069 C87.8589109,28.2710396 86.8069307,27.5284653 84.7029703,27.5284653 L82.7846535,27.5284653 L82.7846535,40.771349 L73.9975248,40.8019802 C69.2636139,40.8019802 68.4591584,39.6571782 68.4591584,36.1915223 L68.4591584,25.8576733 L78.2054455,25.8576733 L77.710396,27.5284653 L71.1816213,27.5284653 L71.1816213,31.9217203 L76.1017946,31.9217203 L75.6064356,33.5928218 L71.1509901,33.5928218 L71.1509901,36.2227723 C71.1509901,38.6667698 71.7079208,39.1927599 74.0594059,39.1927599 L80.0309406,39.1927599 L80.0309406,25.8886139 L84.6720297,25.8886139 C87.9826733,25.8886139 90.4888614,27.0024752 90.4888614,29.6943069 L90.4888614,30.9938119 C90.4888614,32.8502475 89.2512376,33.9641089 87.2091584,34.3044554 L91.1386139,40.2756807 L96.4294554,26.2289604 Z M128.700495,25.8886139 L141.107673,25.8886139 L140.643564,27.5594059 L136.033416,27.5594059 L136.033416,40.8638614 L135.043317,40.8638614 C133.898515,40.8638614 133.310334,40.3378713 133.310334,39.3477723 L133.310334,27.5594059 L128.205446,27.5594059 L128.700495,25.8886139 Z M105.742574,25.8886139 L110.816832,25.8886139 C115.148515,25.8886139 117.283416,27.9616337 117.283416,32.1695545 L117.283416,34.7376238 C117.283416,38.9455446 115.396349,40.7091584 111.373762,40.8638614 L110.816832,40.8638614 L107.444307,40.8638614 C106.299505,40.8638614 105.742574,40.3378713 105.742574,39.3477723 L105.742574,25.8886139 Z M108.434715,27.5284653 L108.434715,39.1927599 L110.878713,39.1927599 C113.570545,39.1927599 114.560644,37.7079208 114.560644,34.6757426 L114.530012,34.6757426 L114.530012,32.1695545 C114.530012,29.1370668 113.539604,27.5284653 110.785891,27.5284653 L108.434715,27.5284653 Z M152.834158,38.6980198 C153.081683,38.450495 153.391089,38.3267327 153.731436,38.3267327 C154.072092,38.3267327 154.381498,38.450495 154.628713,38.6980198 C154.876238,38.9455446 155,39.2549505 155,39.595297 C155,39.935953 154.876238,40.2450495 154.628713,40.4925743 C154.381498,40.740099 154.072092,40.8638614 153.731436,40.8638614 C153.391089,40.8638614 153.081683,40.740099 152.834158,40.4925743 C152.586634,40.2450495 152.462871,39.935953 152.462871,39.595297 C152.462871,39.2549505 152.586634,38.9455446 152.834158,38.6980198 Z M152.957921,40.3685025 C153.174505,40.5850866 153.42203,40.6782178 153.731436,40.6782178 C154.040842,40.6782178 154.288676,40.5544554 154.504641,40.3685025 C154.721225,40.1525371 154.814356,39.904703 154.814356,39.595297 C154.814356,39.2858911 154.721225,39.0383663 154.504641,38.8217822 C154.288676,38.605198 154.040842,38.5123762 153.731436,38.5123762 C153.42203,38.4814356 153.174505,38.605198 152.957921,38.8217822 C152.741337,39.0383663 152.648515,39.2858911 152.648515,39.595297 C152.648515,39.904703 152.741337,40.1525371 152.957921,40.3685025 Z M153.700495,38.914604 L153.700495,38.883354 C153.885829,38.883354 154.009901,38.914604 154.072092,38.9455446 C154.226485,39.0074257 154.288676,39.1311881 154.288676,39.2858911 C154.288676,39.4096535 154.257426,39.5024752 154.164604,39.5643564 C154.102723,39.595297 154.040842,39.6262376 153.94802,39.6262376 C154.072092,39.6571782 154.133663,39.6884282 154.195235,39.7496906 C154.257426,39.8118812 154.257426,39.904703 154.257426,39.9665842 L154.257426,40.0590965 L154.257426,40.1525371 L154.257426,40.2141089 L154.257426,40.2450495 L154.009901,40.2450495 L154.009901,40.2141089 L154.009901,40.1831683 L154.009901,40.0903465 C154.009901,39.935953 153.97896,39.8118812 153.885829,39.7809406 C153.824257,39.7496906 153.731436,39.7496906 153.607673,39.7496906 L153.42203,39.7496906 L153.42203,40.3069307 L153.174505,40.3069307 L153.174505,38.914604 L153.700495,38.914604 Z M153.45297,39.0383663 L153.45297,39.5334158 L153.669554,39.5334158 C153.762376,39.5334158 153.855198,39.5334158 153.917079,39.5024752 C154.009901,39.4715347 154.072092,39.3790223 154.072092,39.2858911 C154.072092,39.2240099 154.040842,39.1311881 153.97896,39.1002475 C153.917079,39.0696163 153.824257,39.0383663 153.669554,39.0383663 L153.45297,39.0383663 Z" id="path-1"></path>
    </defs>
    <g id="Page-1" stroke="none" stroke-width="1" fill="none" fill-rule="evenodd">
        <g id="nav-list-desktop">
            <g id="laptop-bg-nav-list-detail">
                <g id="Rectangle-1">
                    <g id="path-1-link" fill="#37474F">
                        <path d="M0,39.9956201 C0,17.9066491 17.909579,0 39.995828,0 L1642.00417,0 C1664.09326,0 1682,17.9093683 1682,39.9956201 L1682,1102.00438 C1682,1124.09335 1664.09042,1142 1642.00417,1142 L39.995828,1142 C17.906742,1142 0,1124.09063 0,1102.00438 L0,39.9956201 Z M122,133 L122,1033 L1562,1033 L1562,133 L122,133 Z" id="path-1"></path>
                    </g>
                    <path d="M0.5,39.9956201 L0.5,1102.00438 C0.5,1123.81543 18.183828,1141.5 39.995828,1141.5 L1642.00417,1141.5 C1663.81526,1141.5 1681.5,1123.81622 1681.5,1102.00438 L1681.5,39.9956201 C1681.5,18.1845668 1663.81617,0.5 1642.00417,0.5 L39.995828,0.5 C18.184735,0.5 0.5,18.183777 0.5,39.9956201 Z M121.5,132.5 L1562.5,132.5 L1562.5,1033.5 L121.5,1033.5 L121.5,132.5 Z" id="Shape" stroke="#979797"></path>
                </g>
            </g>
            <g transform="translate(121.000000, 130.000000)">
                <g id="molecules/toolbar">
                    <rect id="Rectangle-1" fill="#F16C00" x="0" y="0" width="1440" height="64"></rect>
                    <path d="M1405,40 C1403.89543,40 1403,39.1045695 1403,38 C1403,36.8954305 1403.89543,36 1405,36 C1406.10457,36 1407,36.8954305 1407,38 C1407,39.1045695 1406.10457,40 1405,40 Z M1405,34 C1403.89543,34 1403,33.1045695 1403,32 C1403,30.8954305 1403.89543,30 1405,30 C1406.10457,30 1407,30.8954305 1407,32 C1407,33.1045695 1406.10457,34 1405,34 Z M1405,28 C1403.89543,28 1403,27.1045695 1403,26 C1403,24.8954305 1403.89543,24 1405,24 C1406.10457,24 1407,24.8954305 1407,26 C1407,27.1045695 1406.10457,28 1405,28 Z" id="more-vert" fill="#FFFFFF"></path>
                    <path d="M1352.36248,34.83464 L1352.1076,35.08952 L1351.15504,34.13696 C1352.10688,32.9612 1352.68,31.4672 1352.68,29.84 C1352.68,26.06864 1349.61136,23 1345.84,23 C1342.06864,23 1339,26.06864 1339,29.84 C1339,33.61136 1342.06864,36.68 1345.84,36.68 C1347.4672,36.68 1348.9612,36.10688 1350.13696,35.15504 L1351.08952,36.1076 L1350.83464,36.36248 L1355.15608,40.68392 L1356.6832,39.1568 L1352.36248,34.83464 L1352.36248,34.83464 Z M1345.84072,34.52 C1343.26024,34.52 1341.16072,32.42048 1341.16072,29.84 C1341.16072,27.25952 1343.26024,25.16 1345.84072,25.16 C1348.4212,25.16 1350.52072,27.25952 1350.52072,29.84 C1350.52072,32.42048 1348.42048,34.52 1345.84072,34.52 L1345.84072,34.52 Z" id="Shape" fill="#FFFFFF"></path>
                    <text id="Toolbar" fill="#FFFFFF" font-family=".SFNSDisplay-Regular, .SF NS Display" font-size="20" font-weight="normal">
                        <tspan x="166" y="39">Toolbar</tspan>
                    </text>
                    <path d="M21,31 L39,31 L39,33 L21,33 L21,31 Z M21,36 L39,36 L39,38 L21,38 L21,36 Z M21,26 L39,26 L39,28 L21,28 L21,26 Z" id="menu" fill="#FFFFFF"></path>
                    <mask id="mask-2" fill="white">
                        <use xlink:href="#path-1"></use>
                    </mask>
                    <use id="Clip-2" fill="#FFFFFF" xlink:href="#path-1"></use>
                </g>
                <rect id="bg" stroke="#CCCCCC" fill="#FFFFFF" fill-rule="nonzero" x="0" y="64" width="392" height="836"></rect>
                <g id="atoms/list-items-2-line" transform="translate(17.000000, 89.000000)">
                    <g id="Second-line" transform="translate(55.000000, 22.000000)" fill-opacity="0.54" font-family=".AppleSystemUIFont" fill="#000000" font-size="14" font-weight="normal">
                        <text id="email-description-goes-here">
                            <tspan x="0" y="14">email description goes here</tspan>
                        </text>
                    </g>
                    <g id="First-line" transform="translate(55.000000, 1.000000)" fill-opacity="0.87" font-family=".AppleSystemUIFont" fill="#000000" font-size="16" font-weight="normal">
                        <text id="Amy-Johnson">
                            <tspan x="0" y="15">Amy Johnson</tspan>
                        </text>
                    </g>
                    <circle id="avatar" fill="#F5F5F5" cx="20" cy="20" r="20"></circle>
                </g>
                <g id="atoms/list-items-2-line" transform="translate(17.000000, 159.000000)">
                    <g id="Second-line" transform="translate(55.000000, 22.000000)" fill-opacity="0.54" font-family=".AppleSystemUIFont" fill="#000000" font-size="14" font-weight="normal">
                        <text id="email-description-goes-here">
                            <tspan x="0" y="14">email description goes here</tspan>
                        </text>
                    </g>
                    <g id="First-line" transform="translate(55.000000, 1.000000)" fill-opacity="0.87" font-family=".AppleSystemUIFont" fill="#000000" font-size="16" font-weight="normal">
                        <text id="Beverly-Harris">
                            <tspan x="0" y="15">Beverly Harris</tspan>
                        </text>
                    </g>
                    <circle id="avatar" fill="#F5F5F5" cx="20" cy="20" r="20"></circle>
                </g>
                <g id="atoms/list-items-2-line" transform="translate(17.000000, 229.000000)">
                    <g id="Second-line" transform="translate(55.000000, 22.000000)" fill-opacity="0.54" font-family=".AppleSystemUIFont" fill="#000000" font-size="14" font-weight="normal">
                        <text id="email-description-goes-here">
                            <tspan x="0" y="14">email description goes here</tspan>
                        </text>
                    </g>
                    <g id="First-line" transform="translate(55.000000, 1.000000)" fill-opacity="0.87" font-family=".AppleSystemUIFont" fill="#000000" font-size="16" font-weight="normal">
                        <text id="Brittany-Delgado">
                            <tspan x="0" y="15">Brittany Delgado</tspan>
                        </text>
                    </g>
                    <circle id="avatar" fill="#F5F5F5" cx="20" cy="20" r="20"></circle>
                </g>
                <g id="atoms/list-items-2-line" transform="translate(17.000000, 299.000000)">
                    <g id="Second-line" transform="translate(55.000000, 22.000000)" fill-opacity="0.54" font-family=".AppleSystemUIFont" fill="#000000" font-size="14" font-weight="normal">
                        <text id="email-description-goes-here">
                            <tspan x="0" y="14">email description goes here</tspan>
                        </text>
                    </g>
                    <g id="First-line" transform="translate(55.000000, 1.000000)" fill-opacity="0.87" font-family=".AppleSystemUIFont" fill="#000000" font-size="16" font-weight="normal">
                        <text id="Bruce-Morales">
                            <tspan x="0" y="15">Bruce Morales</tspan>
                        </text>
                    </g>
                    <circle id="avatar" fill="#F5F5F5" cx="20" cy="20" r="20"></circle>
                </g>
                <g id="atoms/list-items-2-line" transform="translate(17.000000, 369.000000)">
                    <g id="Second-line" transform="translate(55.000000, 22.000000)" fill-opacity="0.54" font-family=".AppleSystemUIFont" fill="#000000" font-size="14" font-weight="normal">
                        <text id="email-description-goes-here">
                            <tspan x="0" y="14">email description goes here</tspan>
                        </text>
                    </g>
                    <g id="First-line" transform="translate(55.000000, 1.000000)" fill-opacity="0.87" font-family=".AppleSystemUIFont" fill="#000000" font-size="16" font-weight="normal">
                        <text id="Carolyn-Campbell">
                            <tspan x="0" y="15">Carolyn Campbell</tspan>
                        </text>
                    </g>
                    <circle id="avatar" fill="#F5F5F5" cx="20" cy="20" r="20"></circle>
                </g>
                <g id="atoms/list-items-2-line-active" transform="translate(17.000000, 440.000000)">
                    <g id="Second-line" transform="translate(55.000000, 22.000000)" fill-opacity="0.54" font-family=".AppleSystemUIFont" fill="#000000" font-size="14" font-weight="normal">
                        <text id="email-description-goes-here">
                            <tspan x="0" y="14">email description goes here</tspan>
                        </text>
                    </g>
                    <g id="First-line" transform="translate(55.000000, 0.000000)" font-size="16" font-family=".AppleSystemUIFont" fill="#F57C00" font-weight="normal">
                        <text id="James-Connors">
                            <tspan x="0" y="15">James Connors</tspan>
                        </text>
                    </g>
                    <circle id="avatar" fill="#F5F5F5" cx="20" cy="20" r="20"></circle>
                </g>
                <g id="atoms/list-items-2-line" transform="translate(17.000000, 510.000000)">
                    <g id="Second-line" transform="translate(55.000000, 22.000000)" fill-opacity="0.54" font-family=".AppleSystemUIFont" fill="#000000" font-size="14" font-weight="normal">
                        <text id="email-description-goes-here">
                            <tspan x="0" y="14">email description goes here</tspan>
                        </text>
                    </g>
                    <g id="First-line" transform="translate(55.000000, 1.000000)" fill-opacity="0.87" font-family=".AppleSystemUIFont" fill="#000000" font-size="16" font-weight="normal">
                        <text id="Jennifer-Carpenter">
                            <tspan x="0" y="15">Jennifer Carpenter</tspan>
                        </text>
                    </g>
                    <circle id="avatar" fill="#F5F5F5" cx="20" cy="20" r="20"></circle>
                </g>
                <g id="atoms/list-items-2-line" transform="translate(17.000000, 580.000000)">
                    <g id="Second-line" transform="translate(55.000000, 22.000000)" fill-opacity="0.54" font-family=".AppleSystemUIFont" fill="#000000" font-size="14" font-weight="normal">
                        <text id="email-description-goes-here">
                            <tspan x="0" y="14">email description goes here</tspan>
                        </text>
                    </g>
                    <g id="First-line" transform="translate(55.000000, 1.000000)" fill-opacity="0.87" font-family=".AppleSystemUIFont" fill="#000000" font-size="16" font-weight="normal">
                        <text id="Katie-Morales">
                            <tspan x="0" y="15">Katie Morales</tspan>
                        </text>
                    </g>
                    <circle id="avatar" fill="#F5F5F5" cx="20" cy="20" r="20"></circle>
                </g>
                <g id="atoms/list-items-2-line" transform="translate(17.000000, 650.000000)">
                    <g id="Second-line" transform="translate(55.000000, 22.000000)" fill-opacity="0.54" font-family=".AppleSystemUIFont" fill="#000000" font-size="14" font-weight="normal">
                        <text id="email-description-goes-here">
                            <tspan x="0" y="14">email description goes here</tspan>
                        </text>
                    </g>
                    <g id="First-line" transform="translate(55.000000, 1.000000)" fill-opacity="0.87" font-family=".AppleSystemUIFont" fill="#000000" font-size="16" font-weight="normal">
                        <text id="Laurie-Lorenzo">
                            <tspan x="0" y="15">Laurie Lorenzo</tspan>
                        </text>
                    </g>
                    <circle id="avatar" fill="#F5F5F5" cx="20" cy="20" r="20"></circle>
                </g>
                <g id="atoms/list-items-2-line" transform="translate(17.000000, 720.000000)">
                    <g id="Second-line" transform="translate(55.000000, 22.000000)" fill-opacity="0.54" font-family=".AppleSystemUIFont" fill="#000000" font-size="14" font-weight="normal">
                        <text id="email-description-goes-here">
                            <tspan x="0" y="14">email description goes here</tspan>
                        </text>
                    </g>
                    <g id="First-line" transform="translate(55.000000, 1.000000)" fill-opacity="0.87" font-family=".AppleSystemUIFont" fill="#000000" font-size="16" font-weight="normal">
                        <text id="Rachel-Ross">
                            <tspan x="0" y="15">Rachel Ross</tspan>
                        </text>
                    </g>
                    <circle id="avatar" fill="#F5F5F5" cx="20" cy="20" r="20"></circle>
                </g>
                <g id="atoms/list-items-2-line" transform="translate(17.000000, 789.000000)">
                    <g id="Second-line" transform="translate(55.000000, 22.000000)" fill-opacity="0.54" font-family=".AppleSystemUIFont" fill="#000000" font-size="14" font-weight="normal">
                        <text id="email-description-goes-here">
                            <tspan x="0" y="14">email description goes here</tspan>
                        </text>
                    </g>
                    <g id="First-line" transform="translate(55.000000, 1.000000)" fill-opacity="0.87" font-family=".AppleSystemUIFont" fill="#000000" font-size="16" font-weight="normal">
                        <text id="Sam-Sterling">
                            <tspan x="0" y="15">Sam Sterling</tspan>
                        </text>
                    </g>
                    <circle id="avatar" fill="#F5F5F5" cx="20" cy="20" r="20"></circle>
                </g>
                <g id="atoms/list-items-2-line" transform="translate(17.000000, 858.000000)">
                    <g id="Second-line" transform="translate(55.000000, 22.000000)" fill-opacity="0.54" font-family=".AppleSystemUIFont" fill="#000000" font-size="14" font-weight="normal">
                        <text id="email-description-goes-here">
                            <tspan x="0" y="14">email description goes here</tspan>
                        </text>
                    </g>
                    <g id="First-line" transform="translate(55.000000, 1.000000)" fill-opacity="0.87" font-family=".AppleSystemUIFont" fill="#000000" font-size="16" font-weight="normal">
                        <text id="Wayne-Ray">
                            <tspan x="0" y="15">Wayne Ray</tspan>
                        </text>
                    </g>
                    <circle id="avatar" fill="#F5F5F5" cx="20" cy="20" r="20"></circle>
                </g>
                <path d="M-2.86320675e-16,144.5 L392,144.5" id="divider" stroke="#D6D5D5" stroke-linecap="square"></path>
                <path d="M-2.86320675e-16,214.5 L392,214.5" id="divider-copy" stroke="#D6D5D5" stroke-linecap="square"></path>
                <path d="M-2.86320675e-16,284.5 L392,284.5" id="divider-copy-2" stroke="#D6D5D5" stroke-linecap="square"></path>
                <path d="M-2.86320675e-16,354.5 L392,354.5" id="divider-copy-3" stroke="#D6D5D5" stroke-linecap="square"></path>
                <path d="M-2.86320675e-16,424.5 L392,424.5" id="divider-copy-4" stroke="#D6D5D5" stroke-linecap="square"></path>
                <path d="M-2.86320675e-16,495.5 L392,495.5" id="divider-copy-5" stroke="#D6D5D5" stroke-linecap="square"></path>
                <path d="M-2.86320675e-16,565.5 L392,565.5" id="divider-copy-6" stroke="#D6D5D5" stroke-linecap="square"></path>
                <path d="M-2.86320675e-16,635.5 L392,635.5" id="divider-copy-7" stroke="#D6D5D5" stroke-linecap="square"></path>
                <path d="M-2.86320675e-16,705.5 L392,705.5" id="divider-copy-8" stroke="#D6D5D5" stroke-linecap="square"></path>
                <path d="M-2.86320675e-16,775.5 L392,775.5" id="divider-copy-9" stroke="#D6D5D5" stroke-linecap="square"></path>
                <path d="M-2.86320675e-16,844.5 L392,844.5" id="divider-copy-10" stroke="#D6D5D5" stroke-linecap="square"></path>
                <text id="Email" fill="#FFFFFF" font-family=".SFNSDisplay-Regular, .SF NS Display" font-size="20" font-weight="normal">
                    <tspan x="414" y="39">Email</tspan>
                </text>
                <g id="paper-shadow-z=&quot;1&quot;" transform="translate(413.000000, 83.000000)">
                    <g id="path-2-link" fill-rule="nonzero" fill="#000000">
                        <rect id="path-2" x="0" y="0" width="1007" height="520" rx="2"></rect>
                    </g>
                    <g id="path-2-link" fill="#FFFFFF">
                        <rect id="path-2" x="0" y="0" width="1007" height="520" rx="2"></rect>
                    </g>
                </g>
                <text id="Leverage-agile-frameworks-to-provide-a-robust-synopsis-for-high-level-overviews.-Iterative-approaches-to-corporate-strategy-foster" fill-opacity="0.87" fill="#000000" font-family=".AppleSystemUIFont" font-size="16" font-weight="normal">
                    <tspan x="429" y="187">Leverage agile frameworks to provide a robust synopsis for high level overviews. Iterative approaches to corporate strategy foster</tspan>
                </text>
                <text id="collaborative-thinking-to-further-the-overall-value-proposition.-Organically-grow-the-holistic-world-view-of-disruptive-innovation-via" fill-opacity="0.87" fill="#000000" font-family=".AppleSystemUIFont" font-size="16" font-weight="normal">
                    <tspan x="429" y="205">collaborative thinking to further the overall value proposition. Organically grow the holistic world view of disruptive innovation via</tspan>
                </text>
                <text id="workplace-diversity-and-empowerment." fill-opacity="0.87" fill="#000000" font-family=".AppleSystemUIFont" font-size="16" font-weight="normal">
                    <tspan x="429" y="223">workplace diversity and empowerment.</tspan>
                </text>
                <text id="Bring-to-the-table-win-win-survival-strategies-to-ensure-proactive-domination.-At-the-end-of-the-day,-going-forward,-a-new-normal-that" fill-opacity="0.87" fill="#000000" font-family=".AppleSystemUIFont" font-size="16" font-weight="normal">
                    <tspan x="429" y="259">Bring to the table win-win survival strategies to ensure proactive domination. At the end of the day, going forward, a new normal that</tspan>
                </text>
                <text id="has-evolved-from-generation-X-is-on-the-runway-heading-towards-a-streamlined-cloud-solution.-User-generated-content-in-real-time-will" fill-opacity="0.87" fill="#000000" font-family=".AppleSystemUIFont" font-size="16" font-weight="normal">
                    <tspan x="429" y="277">has evolved from generation X is on the runway heading towards a streamlined cloud solution. User generated content in real-time will</tspan>
                </text>
                <text id="have-multiple-touchpoints-for-offshoring." fill-opacity="0.87" fill="#000000" font-family=".AppleSystemUIFont" font-size="16" font-weight="normal">
                    <tspan x="429" y="295">have multiple touchpoints for offshoring.</tspan>
                </text>
                <text id="Capitalize-on-low-hanging-fruit-to-identify-a-ballpark-value-added-activity-to-beta-test.-Override-the-digital-divide-with-additional" fill-opacity="0.87" fill="#000000" font-family=".AppleSystemUIFont" font-size="16" font-weight="normal">
                    <tspan x="429" y="331">Capitalize on low hanging fruit to identify a ballpark value added activity to beta test. Override the digital divide with additional</tspan>
                </text>
                <text id="clickthroughs-from-DevOps.-Nanotechnology-immersion-along-the-information-highway-will-close-the-loop-on-focusing-solely-on-the" fill-opacity="0.87" fill="#000000" font-family=".AppleSystemUIFont" font-size="16" font-weight="normal">
                    <tspan x="429" y="349">clickthroughs from DevOps. Nanotechnology immersion along the information highway will close the loop on focusing solely on the</tspan>
                </text>
                <text id="bottom-line." fill-opacity="0.87" fill="#000000" font-family=".AppleSystemUIFont" font-size="16" font-weight="normal">
                    <tspan x="429" y="367">bottom line.</tspan>
                </text>
                <text id="Podcasting-operational-change-management-inside-of-workflows-to-establish-a-framework.-Taking-seamless-key-performance-indicators" fill-opacity="0.87" fill="#000000" font-family=".AppleSystemUIFont" font-size="16" font-weight="normal">
                    <tspan x="429" y="403">Podcasting operational change management inside of workflows to establish a framework. Taking seamless key performance indicators</tspan>
                </text>
                <text id="offline-to-maximise-the-long-tail.-Keeping-your-eye-on-the-ball-while-performing-a-deep-dive-on-the-start-up-mentality-to-derive" fill-opacity="0.87" fill="#000000" font-family=".AppleSystemUIFont" font-size="16" font-weight="normal">
                    <tspan x="429" y="421">offline to maximise the long tail. Keeping your eye on the ball while performing a deep dive on the start-up mentality to derive</tspan>
                </text>
                <text id="convergence-on-cross-platform-integration." fill-opacity="0.87" fill="#000000" font-family=".AppleSystemUIFont" font-size="16" font-weight="normal">
                    <tspan x="429" y="439">convergence on cross-platform integration.</tspan>
                </text>
                <text id="Sincerly" fill-opacity="0.87" fill="#000000" font-family=".AppleSystemUIFont" font-size="16" font-weight="normal">
                    <tspan x="429" y="475">Sincerly</tspan>
                </text>
                <text id="-Jimmy" fill-opacity="0.87" fill="#000000" font-family=".AppleSystemUIFont" font-size="16" font-weight="normal">
                    <tspan x="429" y="493">-Jimmy</tspan>
                </text>
                <g id="atoms/divider" transform="translate(413.000000, 530.000000)" fill-rule="nonzero" fill="#000000" fill-opacity="0.12">
                    <rect id="divider" x="0" y="0" width="1007" height="1" rx="0.5"></rect>
                </g>
                <g id="atoms/card-header" transform="translate(413.000000, 99.000000)">
                    <g id="Subhead" transform="translate(70.000000, 23.000000)" fill-opacity="0.54" font-family=".AppleSystemUIFont" fill="#000000" font-size="15" font-weight="normal">
                        <text id="Tuesday,-January-3-2017-at-8:38-PM">
                            <tspan x="0" y="15">Tuesday, January 3 2017 at 8:38 PM</tspan>
                        </text>
                    </g>
                    <g id="Title" transform="translate(70.000000, 3.000000)" fill-opacity="0.87" font-family=".AppleSystemUIFont" fill="#000000" font-size="14" font-weight="normal">
                        <text id="James-Connors">
                            <tspan x="0" y="14">James Connors</tspan>
                        </text>
                    </g>
                    <g id="atoms/divider-copy-2" transform="translate(0.000000, 56.000000)" fill="#000000" fill-opacity="0.12">
                        <rect id="divider" x="0" y="0" width="1007" height="1" rx="0.5"></rect>
                    </g>
                    <circle id="Oval-17" fill="#666666" cx="38" cy="20" r="20"></circle>
                    <path d="M988,16 C986.895431,16 986,15.1045695 986,14 C986,12.8954305 986.895431,12 988,12 C989.104569,12 990,12.8954305 990,14 C990,15.1045695 989.104569,16 988,16 Z M988,10 C986.895431,10 986,9.1045695 986,8 C986,6.8954305 986.895431,6 988,6 C989.104569,6 990,6.8954305 990,8 C990,9.1045695 989.104569,10 988,10 Z M988,4 C986.895431,4 986,3.1045695 986,2 C986,0.8954305 986.895431,0 988,0 C989.104569,0 990,0.8954305 990,2 C990,3.1045695 989.104569,4 988,4 Z" id="more-vert-2" fill-opacity="0.54" fill="#000000"></path>
                </g>
                <g id="forward-copy" transform="translate(1207.000000, 547.000000)" fill-opacity="0.54" fill-rule="nonzero" fill="#000000">
                    <polygon id="Shape" points="8 4 8 0 16 8 8 16 8 12 0 12 0 4"></polygon>
                </g>
                <g id="reply-copy" transform="translate(609.000000, 547.000000)" fill-opacity="0.54" fill-rule="nonzero" fill="#000000">
                    <path d="M7,4 L7,0 L0,7 L7,14 L7,9.9 C12,9.9 15.5,11.5 18,15 C17,10 14,5 7,4 Z" id="Shape"></path>
                </g>
                <path d="M912,550 L912,547 L905,554 L912,561 L912,558 L908,554 L912,550 Z M918,551 L918,547 L911,554 L918,561 L918,556.9 C923,556.9 926.5,558.5 929,562 C928,557 925,552 918,551 Z" id="Shape-Copy" fill-opacity="0.54" fill="#000000" fill-rule="nonzero"></path>
                <text id="Reply" fill-opacity="0.54" fill="#000000" font-family=".AppleSystemUIFont" font-size="12" font-weight="normal">
                    <tspan x="604" y="585">Reply</tspan>
                </text>
                <text id="Reply-All" fill-opacity="0.54" fill="#000000" font-family=".AppleSystemUIFont" font-size="12" font-weight="normal">
                    <tspan x="894" y="585">Reply All</tspan>
                </text>
                <text id="Forward" fill-opacity="0.54" fill="#000000" font-family=".AppleSystemUIFont" font-size="12" font-weight="normal">
                    <tspan x="1193" y="585">Forward</tspan>
                </text>
            </g>
        </g>
    </g>
</svg>